<?xml version="1.0" standalone="no"?><!-- Generator: Gravit.io --><svg xmlns="http://www.w3.org/2000/svg" xmlns:xlink="http://www.w3.org/1999/xlink" style="isolation:isolate" viewBox="0 0 910 260" width="910" height="260"><defs><clipPath id="_clipPath_QlCLFM41mogbU42UXAjPyAIMg4T4X0mG"><rect width="910" height="260"/></clipPath></defs><g clip-path="url(#_clipPath_QlCLFM41mogbU42UXAjPyAIMg4T4X0mG)"><path d=" M 644.4 104.6 C 644.4 72.9 624.6 52.7 597.1 52.7 C 569.6 52.7 548.5 73.6 548.5 105 C 548.5 136.6 568.5 156.8 596 156.8 C 623.3 156.8 644.4 135.9 644.4 104.6 Z  M 631.3 105 C 631.3 128.2 617.5 144.8 596.7 144.8 C 575.8 144.8 561.9 128.6 561.9 104.6 C 561.9 81.3 575.6 64.8 596.5 64.8 C 617.3 64.8 631.3 80.9 631.3 105 Z  M 676.5 154 L 676.5 90.8 C 684.2 72.9 693.9 65.4 704.2 65.4 C 710 65.4 715 67.1 719.3 69.7 L 722.7 57.3 C 718.2 54.7 712.2 52.7 705.5 52.7 C 692.6 52.7 683.1 60.9 676.5 73.8 L 676.5 52.7 L 663.1 55.5 L 663.1 154 L 676.5 154 Z  M 805.9 148.4 L 803.1 136.2 C 795.6 141.1 785.9 144.3 775.8 144.3 C 755 144.3 741 128.6 741 104.6 C 741 81.3 754.1 65.2 775.6 65.2 C 785.9 65.2 795.4 68.2 802.9 73.2 L 806.4 61.1 C 798 55.7 787.6 52.7 775.6 52.7 C 747.7 52.7 727.2 74.2 727.2 105 C 727.2 135.5 745.5 156.8 775.4 156.8 C 786.8 156.8 797.5 153.6 805.9 148.4 Z  M 889.6 154 L 902.9 154 L 902.9 86.5 C 902.9 65 891.3 52.7 872.2 52.7 C 861.2 52.7 848.3 58.1 838 68.4 L 838 6.3 L 824.6 9.1 L 824.6 154 L 838 154 L 838 79.4 C 846.4 71 857.1 65.4 868.5 65.4 C 882.9 65.4 889.6 73.2 889.6 90.4 L 889.6 154 Z  M 422.1 152.9 L 460.4 55.5 L 446.4 55.5 L 416.1 136.8 L 385.1 55.5 L 370.7 55.5 L 409.2 152.5 L 402.6 169.9 C 395.7 188.6 389.9 192.7 382.3 192.7 C 377 192.7 372.2 191 367.3 188.4 L 363.2 200.7 C 369.2 203.2 374.8 205.2 382.3 205.2 C 395.9 205.2 404.9 198.5 414.2 174.2 L 422.1 152.9 Z  M 507.3 32.5 L 554.6 32.5 L 554.6 19.6 L 446.2 19.6 L 446.2 32.5 L 493.5 32.5 L 493.5 154 L 507.3 154 L 507.3 32.5 Z  M 361.9 61.6 C 361.9 36.8 344.9 19.6 309.5 19.6 L 275.7 19.6 L 275.7 154 L 289.5 154 L 289.5 106.7 L 307.7 106.5 C 341.3 105.8 361.9 91 361.9 61.6 Z  M 347.7 62.2 C 347.7 83.1 334.2 92.9 308.6 93.6 L 289.5 94 L 289.5 32.3 L 309 32.3 C 334.2 32.3 347.7 43.1 347.7 62.2 Z " fill-rule="evenodd" fill="rgb(37,37,37)"/><path d=" M 499.2 199.2 C 499.2 192 503.5 187 510.7 187 C 518.4 187 522.4 192.1 522.4 198.9 C 522.4 206 518.1 210.9 511 210.9 C 503.5 210.9 499.2 205.9 499.2 199.2 Z  M 504.6 230.3 C 507.3 230.6 511.1 230.6 514.2 230.6 C 523.4 230.6 528.1 232.4 528.1 237.9 C 528.1 244.1 520.4 248.7 510.9 248.7 C 501.2 248.7 495.3 244.8 495.3 239.3 C 495.3 235.4 499 231.8 504.6 230.3 Z  M 499.2 229.1 C 493.2 230.6 489.3 235.2 489.3 240.4 C 489.3 248.4 497.7 253.8 510 253.8 C 522.8 253.8 534.1 246.8 534.1 236.8 C 534.1 229.2 528.4 224.8 515.1 224.8 L 509.2 224.8 C 501.1 224.8 498.8 223 498.8 220.1 C 498.8 217.4 501.5 215.7 503.9 214.6 C 506.2 215.4 508.2 215.9 510.7 215.9 C 520.8 215.9 528.5 208.8 528.5 199.1 C 528.5 195.4 527.1 191.1 524.8 188.8 L 534.9 189.8 L 534.6 183.6 L 521.9 184.6 C 519.4 183.1 515.9 181.9 511.1 181.9 C 500.3 181.9 493.1 189.4 493.1 199.1 C 493.1 205.5 496.1 210.4 500.5 213.1 C 496.2 214.7 493 217.9 493 221.8 C 493 225.1 495.3 227.6 499.2 229.1 Z  M 547.3 206.8 L 547.3 206.3 L 578.3 206.1 C 579 204.1 579.3 201.2 579.3 198.8 C 579.3 188.4 572.7 181.9 562.6 181.9 C 550.2 181.9 541 192.1 541 206.5 C 541 220.5 549.9 230.3 563.1 230.3 C 568.8 230.3 573.9 228.8 577.8 226.4 L 576.6 220.7 C 573.1 223 568.4 224.5 563.3 224.5 C 553.7 224.5 547.6 217.2 547.3 206.8 Z  M 573.1 201.3 L 547.7 201.4 C 548.8 193.8 553.9 187.5 562.2 187.5 C 569.4 187.5 573.2 192.2 573.2 199.3 C 573.2 199.8 573.2 200.8 573.1 201.3 Z  M 634.1 206 C 634.1 191.3 624.9 181.9 612.1 181.9 C 599.3 181.9 589.5 191.6 589.5 206.2 C 589.5 220.9 598.8 230.3 611.6 230.3 C 624.3 230.3 634.1 220.6 634.1 206 Z  M 628 206.2 C 628 217 621.6 224.7 611.9 224.7 C 602.2 224.7 595.7 217.2 595.7 206 C 595.7 195.2 602.1 187.5 611.8 187.5 C 621.5 187.5 628 195 628 206.2 Z  M 704.3 229 L 710.5 229 L 710.5 197.7 C 710.5 187.6 705.2 181.9 696.4 181.9 C 691.1 181.9 685.3 184.4 680.2 189.5 C 677.9 184.4 673.5 181.9 667.8 181.9 C 663.1 181.9 658 183.9 653.3 188.2 L 653.3 181.9 L 647.1 183.2 L 647.1 229 L 653.3 229 L 653.3 193.1 C 656.8 190 661.2 187.8 666 187.8 C 672.7 187.8 675.7 191.5 675.7 199.5 L 675.7 229 L 681.9 229 L 681.9 197.8 C 681.9 196.7 681.8 194.4 681.7 193.7 C 685.2 190.4 689.7 187.8 694.6 187.8 C 701.3 187.8 704.3 191.5 704.3 199.5 L 704.3 229 Z  M 729.4 206.8 L 729.4 206.3 L 760.4 206.1 C 761.1 204.1 761.4 201.2 761.4 198.8 C 761.4 188.4 754.8 181.9 744.7 181.9 C 732.3 181.9 723.1 192.1 723.1 206.5 C 723.1 220.5 732 230.3 745.2 230.3 C 750.9 230.3 756 228.8 759.9 226.4 L 758.7 220.7 C 755.2 223 750.5 224.5 745.4 224.5 C 735.8 224.5 729.7 217.2 729.4 206.8 Z  M 755.2 201.3 L 729.8 201.4 C 730.9 193.8 736 187.5 744.3 187.5 C 751.5 187.5 755.3 192.2 755.3 199.3 C 755.3 199.8 755.3 200.8 755.2 201.3 Z  M 797.4 228.1 L 796.3 222.7 C 793.5 223.9 790.6 224.9 787.5 224.9 C 782.8 224.9 780.6 222 780.8 216.3 L 781.5 188.9 L 796.7 188.9 L 797 183.4 L 781.7 183.4 L 782 172.7 L 776.1 172.7 L 775.8 183.1 L 768.9 184.7 L 768.6 188.6 L 775.6 189 L 774.9 216.1 C 774.6 225.7 778.4 230.5 787.2 230.5 C 790.5 230.5 794.2 229.6 797.4 228.1 Z  M 815.2 229 L 815.2 199.6 C 818.8 191.3 823.3 187.8 828.1 187.8 C 830.8 187.8 833.1 188.6 835.1 189.8 L 836.7 184 C 834.6 182.8 831.8 181.9 828.7 181.9 C 822.7 181.9 818.3 185.7 815.2 191.7 L 815.2 181.9 L 809 183.2 L 809 229 L 815.2 229 Z  M 853.5 168.1 C 853.5 165.8 852.1 163.7 849.3 163.7 C 846.5 163.7 845.1 165.8 845.1 168.1 C 845.1 170.5 846.5 172.7 849.3 172.7 C 852.1 172.7 853.5 170.5 853.5 168.1 Z  M 846.2 229 L 852.4 229 L 852.4 181.9 L 846.2 183.2 L 846.2 229 Z  M 902.1 226.4 L 900.8 220.7 C 897.3 223 892.8 224.5 888.1 224.5 C 878.4 224.5 871.9 217.2 871.9 206 C 871.9 195.2 878 187.7 888 187.7 C 892.8 187.7 897.2 189.1 900.7 191.4 L 902.3 185.8 C 898.4 183.3 893.6 181.9 888 181.9 C 875 181.9 865.5 191.9 865.5 206.2 C 865.5 220.4 874 230.3 887.9 230.3 C 893.2 230.3 898.2 228.8 902.1 226.4 Z " fill-rule="evenodd" fill="rgb(37,37,37)"/><g id="Group"><path d=" M 72.8 5.6 L 21.3 68.9 L 132.2 33.3 L 72.8 5.6 Z " fill="rgb(192,61,36)" vector-effect="non-scaling-stroke" stroke-width="2.3" stroke="rgb(89,28,16)" stroke-linejoin="round" stroke-linecap="round" stroke-miterlimit="3"/><path d=" M 21.3 68.9 L 100.5 140.2 L 132.2 33.3 L 21.3 68.9 Z " fill="rgb(230,73,42)" vector-effect="non-scaling-stroke" stroke-width="2.3" stroke="rgb(89,28,16)" stroke-linejoin="round" stroke-linecap="round" stroke-miterlimit="3"/><path d=" M 203.5 124.4 L 136.2 219.4 L 100.5 140.2 L 203.5 124.4 Z " fill="rgb(204,65,38)" vector-effect="non-scaling-stroke" stroke-width="2.3" stroke="rgb(89,28,16)" stroke-linejoin="round" stroke-linecap="round" stroke-miterlimit="3"/><path d=" M 21.3 68.9 L 5.5 100.6 L 21.3 183.8 L 21.3 68.9 Z " fill="rgb(144,46,27)" vector-effect="non-scaling-stroke" stroke-width="2.3" stroke="rgb(89,28,16)" stroke-linejoin="round" stroke-linecap="round" stroke-miterlimit="3"/><path d=" M 21.3 68.9 L 100.5 140.2 L 21.3 183.8 L 21.3 68.9 Z " fill="rgb(197,63,36)" vector-effect="non-scaling-stroke" stroke-width="2.3" stroke="rgb(89,28,16)" stroke-linejoin="round" stroke-linecap="round" stroke-miterlimit="3"/><path d=" M 21.3 183.8 L 136.2 219.4 L 100.5 140.2 L 21.3 183.8 Z " fill="rgb(181,58,33)" vector-effect="non-scaling-stroke" stroke-width="2.3" stroke="rgb(89,28,16)" stroke-linejoin="round" stroke-linecap="round" stroke-miterlimit="3"/><path d=" M 100.5 140.2 L 132.2 33.3 L 203.5 124.4 L 100.5 140.2 Z " fill="rgb(233,75,43)" vector-effect="non-scaling-stroke" stroke-width="2.3" stroke="rgb(89,28,16)" stroke-linejoin="round" stroke-linecap="round" stroke-miterlimit="3"/><path d=" M 203.5 124.4 L 187.7 160 L 136.2 219.4 L 203.5 124.4 Z " fill="rgb(147,47,27)" vector-effect="non-scaling-stroke" stroke-width="2.3" stroke="rgb(89,28,16)" stroke-linejoin="round" stroke-linecap="round" stroke-miterlimit="3"/><path d=" M 132.2 33.3 L 203.5 124.4 L 187.7 41.2 L 132.2 33.3 Z " fill="rgb(199,63,37)" vector-effect="non-scaling-stroke" stroke-width="2.3" stroke="rgb(89,28,16)" stroke-linejoin="round" stroke-linecap="round" stroke-miterlimit="3"/><path d=" M 72.8 5.6 L 132.2 33.3 L 187.7 41.2 L 72.8 5.6 Z " fill="rgb(174,55,32)" vector-effect="non-scaling-stroke" stroke-width="2.3" stroke="rgb(89,28,16)" stroke-linejoin="round" stroke-linecap="round" stroke-miterlimit="3"/></g></g></svg>