<svg width="1586" height="820" xmlns="http://www.w3.org/2000/svg" xmlns:xlink="http://www.w3.org/1999/xlink" xml:space="preserve" overflow="hidden"><defs><clipPath id="clip0"><rect x="1713" y="1123" width="1586" height="820"/></clipPath></defs><g clip-path="url(#clip0)" transform="translate(-1713 -1123)"><path d="M-1153.36-764.069C-1152.41-767.631-1149.18-770.11-1145.5-770.105L-1026.11-770.105C-1023.47-770.11-1021.32-767.972-1021.32-765.327-1021.32-764.903-1021.37-764.479-1021.48-764.069L-1052.89-646.264C-1053.84-642.702-1057.06-640.223-1060.75-640.228L-1180.13-640.228C-1182.78-640.223-1184.92-642.361-1184.93-645.006-1184.93-645.43-1184.88-645.854-1184.76-646.264Z" stroke="#282C33" stroke-width="2.08136" fill="#FFFFFF" transform="matrix(1 0 0 1.00503 2899.38 2465.12)"/><path d="M12.2055 0 3.7259-13.5546 3.79014 0 1.92719 0 1.92719-15.9314 4.43254-15.9314 12.9764-2.24839 12.8479-15.9314 14.8394-15.9314 14.8394 0 12.2055 0" fill="#3A414A" transform="matrix(1 0 0 1.00503 1766.39 1732.19)"/><path d="M9.05779-2.31263C8.0942-0.963595 7.06636 0.321198 4.6895 0.256959 2.37687 0.192719 0.963595-1.09207 0.963595-3.4047 0.899355-7.51604 5.01069-7.4518 8.99355-7.4518 9.18627-9.70019 8.41539-10.9207 6.35973-10.9207 4.81797-10.8565 3.7259-10.4711 3.66166-8.92931L1.54175-9.12203C1.86295-11.4989 3.66166-12.4625 6.42397-12.4625 9.31475-12.4625 11.0492-11.1777 11.0492-8.35116L11.0492-3.0835C10.985-1.79871 11.4989-1.02783 12.8479-1.34903L12.8479-0.0642397C10.8565 0.513917 8.92931-0.192719 9.05779-2.31263ZM3.0835-3.4047C3.0835-2.11991 3.85438-1.28479 5.13917-1.28479 7.773-1.47751 9.18627-3.14774 8.99355-6.03853 6.23125-5.91005 3.0835-6.35973 3.0835-3.4047" fill="#3A414A" transform="matrix(1 0 0 1.00503 1783.03 1732.19)"/><path d="M3.79014-3.01926C3.66166-1.47751 4.94645-1.15631 6.23125-1.60599L6.23125-0.0642397C4.11134 0.578157 1.73447 0.256959 1.73447-2.56959L1.73447-10.728 0.321198-10.728 0.321198-12.2055 1.86295-12.2055 2.44111-14.9678 3.79014-14.9678 3.79014-12.2055 6.03853-12.2055 6.03853-10.728 3.79014-10.728 3.79014-3.01926" fill="#3A414A" transform="matrix(1 0 0 1.00503 1795.87 1732.19)"/><path d="M5.39613 0.256959C-0.321198 0.513917 1.92719-7.19484 1.47751-12.2055L3.53318-12.2055 3.53318-4.49678C3.53318-2.50535 3.98286-1.28479 6.03853-1.34903 10.6638-1.47751 8.92931-7.83724 9.25051-12.2055L11.2419-12.2055 11.3062 0 9.37899 0C9.31475-0.642397 9.44323-1.60599 9.25051-2.11991 8.54387-0.706636 7.4518 0.192719 5.39613 0.256959" fill="#3A414A" transform="matrix(1 0 0 1.00503 1802.3 1732.19)"/><path d="M7.32332-10.4711C2.31263-11.4989 3.91862-4.62526 3.66166 0L1.60599 0 1.54175-12.2055 3.46894-12.2055C3.53318-11.4347 3.4047-10.3426 3.59742-9.70019 3.98286-11.4347 5.07493-12.8479 7.32332-12.334L7.32332-10.4711" fill="#3A414A" transform="matrix(1 0 0 1.00503 1815.14 1732.19)"/><path d="M9.05779-2.31263C8.0942-0.963595 7.06636 0.321198 4.6895 0.256959 2.37687 0.192719 0.963595-1.09207 0.963595-3.4047 0.899355-7.51604 5.01069-7.4518 8.99355-7.4518 9.18627-9.70019 8.41539-10.9207 6.35973-10.9207 4.81797-10.8565 3.7259-10.4711 3.66166-8.92931L1.54175-9.12203C1.86295-11.4989 3.66166-12.4625 6.42397-12.4625 9.31475-12.4625 11.0492-11.1777 11.0492-8.35116L11.0492-3.0835C10.985-1.79871 11.4989-1.02783 12.8479-1.34903L12.8479-0.0642397C10.8565 0.513917 8.92931-0.192719 9.05779-2.31263ZM3.0835-3.4047C3.0835-2.11991 3.85438-1.28479 5.13917-1.28479 7.773-1.47751 9.18627-3.14774 8.99355-6.03853 6.23125-5.91005 3.0835-6.35973 3.0835-3.4047" fill="#3A414A" transform="matrix(1 0 0 1.00503 1822.79 1732.19)"/><path d="M1.54175 0 1.54175-16.7666 3.59742-16.7666 3.59742 0 1.54175 0" fill="#3A414A" transform="matrix(1 0 0 1.00503 1835.64 1732.19)"/><path d="M1.92719 0 1.92719-15.9314 4.0471-15.9314 4.0471-1.73447 12.0771-1.73447 12.0771 0 1.92719 0" fill="#3A414A" transform="matrix(1 0 0 1.00503 1744.87 1760.08)"/><path d="M9.05779-2.31263C8.0942-0.963595 7.06636 0.321198 4.6895 0.256959 2.37687 0.192719 0.963595-1.09207 0.963595-3.4047 0.899355-7.51604 5.01069-7.4518 8.99355-7.4518 9.18627-9.70019 8.41539-10.9207 6.35973-10.9207 4.81797-10.8565 3.7259-10.4711 3.66166-8.92931L1.54175-9.12203C1.86295-11.4989 3.66166-12.4625 6.42397-12.4625 9.31475-12.4625 11.0492-11.1777 11.0492-8.35116L11.0492-3.0835C10.985-1.79871 11.4989-1.02783 12.8479-1.34903L12.8479-0.0642397C10.8565 0.513917 8.92931-0.192719 9.05779-2.31263ZM3.0835-3.4047C3.0835-2.11991 3.85438-1.28479 5.13917-1.28479 7.773-1.47751 9.18627-3.14774 8.99355-6.03853 6.23125-5.91005 3.0835-6.35973 3.0835-3.4047" fill="#3A414A" transform="matrix(1 0 0 1.00503 1757.71 1760.08)"/><path d="M7.51604-12.4625C13.2334-12.7195 10.9207-5.01069 11.3704 0L9.31475 0 9.31475-7.773C9.31475-9.76443 8.80083-10.9207 6.8094-10.8565 2.18415-10.728 3.98286-4.30406 3.66166 0L1.60599 0 1.54175-12.2055 3.46894-12.2055C3.53318-11.5631 3.4047-10.6638 3.59742-10.1499 4.30406-11.5631 5.46037-12.3983 7.51604-12.4625" fill="#3A414A" transform="matrix(1 0 0 1.00503 1770.56 1760.08)"/><path d="M11.3704-12.2055C10.728-4.17558 14.0042 6.61668 4.30406 4.56102 2.82655 4.17558 1.86295 3.27622 1.47751 1.79871L3.53318 1.47751C4.49678 4.49678 9.95715 3.53318 9.25051-0.321198L9.25051-2.24839C8.54387-0.899355 7.38756 0.0642397 5.33189 0.0642397 1.86295 0.0642397 0.963595-2.56959 0.963595-6.10277 0.963595-9.70019 1.99143-12.334 5.52461-12.3983 7.38756-12.4625 8.60811-11.3704 9.31475-10.1499 9.37899-10.7923 9.31475-11.6274 9.44323-12.2055L11.3704-12.2055ZM6.03853-1.41327C8.35116-1.41327 9.25051-3.46894 9.25051-6.10277 9.25051-8.80083 8.35116-10.9207 6.03853-10.9207 3.53318-10.9207 3.0835-8.73659 3.0835-6.10277 3.0835-3.46894 3.46894-1.41327 6.03853-1.41327" fill="#3A414A" transform="matrix(1 0 0 1.00503 1783.41 1760.08)"/><path d="M5.39613 0.256959C-0.321198 0.513917 1.92719-7.19484 1.47751-12.2055L3.53318-12.2055 3.53318-4.49678C3.53318-2.50535 3.98286-1.28479 6.03853-1.34903 10.6638-1.47751 8.92931-7.83724 9.25051-12.2055L11.2419-12.2055 11.3062 0 9.37899 0C9.31475-0.642397 9.44323-1.60599 9.25051-2.11991 8.54387-0.706636 7.4518 0.192719 5.39613 0.256959" fill="#3A414A" transform="matrix(1 0 0 1.00503 1796.26 1760.08)"/><path d="M9.05779-2.31263C8.0942-0.963595 7.06636 0.321198 4.6895 0.256959 2.37687 0.192719 0.963595-1.09207 0.963595-3.4047 0.899355-7.51604 5.01069-7.4518 8.99355-7.4518 9.18627-9.70019 8.41539-10.9207 6.35973-10.9207 4.81797-10.8565 3.7259-10.4711 3.66166-8.92931L1.54175-9.12203C1.86295-11.4989 3.66166-12.4625 6.42397-12.4625 9.31475-12.4625 11.0492-11.1777 11.0492-8.35116L11.0492-3.0835C10.985-1.79871 11.4989-1.02783 12.8479-1.34903L12.8479-0.0642397C10.8565 0.513917 8.92931-0.192719 9.05779-2.31263ZM3.0835-3.4047C3.0835-2.11991 3.85438-1.28479 5.13917-1.28479 7.773-1.47751 9.18627-3.14774 8.99355-6.03853 6.23125-5.91005 3.0835-6.35973 3.0835-3.4047" fill="#3A414A" transform="matrix(1 0 0 1.00503 1809.11 1760.08)"/><path d="M11.3704-12.2055C10.728-4.17558 14.0042 6.61668 4.30406 4.56102 2.82655 4.17558 1.86295 3.27622 1.47751 1.79871L3.53318 1.47751C4.49678 4.49678 9.95715 3.53318 9.25051-0.321198L9.25051-2.24839C8.54387-0.899355 7.38756 0.0642397 5.33189 0.0642397 1.86295 0.0642397 0.963595-2.56959 0.963595-6.10277 0.963595-9.70019 1.99143-12.334 5.52461-12.3983 7.38756-12.4625 8.60811-11.3704 9.31475-10.1499 9.37899-10.7923 9.31475-11.6274 9.44323-12.2055L11.3704-12.2055ZM6.03853-1.41327C8.35116-1.41327 9.25051-3.46894 9.25051-6.10277 9.25051-8.80083 8.35116-10.9207 6.03853-10.9207 3.53318-10.9207 3.0835-8.73659 3.0835-6.10277 3.0835-3.46894 3.46894-1.41327 6.03853-1.41327" fill="#3A414A" transform="matrix(1 0 0 1.00503 1821.95 1760.08)"/><path d="M6.42397-12.4625C10.4711-12.4625 11.9486-9.76443 11.8201-5.65309L3.14774-5.65309C3.14774-3.0835 4.0471-1.34903 6.55244-1.28479 8.22268-1.22055 9.31475-2.05567 9.70019-3.14774L11.4989-2.63383C10.7923-0.835116 9.12203 0.256959 6.55244 0.256959 2.82655 0.256959 0.899355-2.11991 0.963595-6.16701 1.02783-10.0856 2.63383-12.4625 6.42397-12.4625ZM9.76443-7.25908C10.1499-11.1135 4.88221-12.2055 3.53318-9.05779 3.34046-8.60811 3.14774-7.96572 3.14774-7.25908L9.76443-7.25908" fill="#3A414A" transform="matrix(1 0 0 1.00503 1834.8 1760.08)"/><path d="M8.99355-16.1242C14.197-16.1242 16.895-13.1691 16.895-8.02996 16.895-3.4047 14.6466-0.513917 10.4711 0.0642397 10.9207 1.99143 12.3983 3.14774 14.9036 2.63383L14.9036 4.11134C11.3704 5.13917 8.80083 3.14774 8.28692 0.192719 3.59742-0.192719 1.09207-3.0835 1.09207-8.02996 1.09207-13.1691 3.79014-16.1242 8.99355-16.1242ZM8.99355-1.54175C13.0407-1.54175 14.7109-4.17558 14.7109-8.02996 14.7109-11.8843 12.8479-14.3897 8.99355-14.3897 5.07493-14.3897 3.27622-11.8843 3.27622-8.02996 3.27622-4.17558 5.07493-1.60599 8.99355-1.54175" fill="#3A414A" transform="matrix(1 0 0 1.00503 1758.05 1787.97)"/><path d="M5.39613 0.256959C-0.321198 0.513917 1.92719-7.19484 1.47751-12.2055L3.53318-12.2055 3.53318-4.49678C3.53318-2.50535 3.98286-1.28479 6.03853-1.34903 10.6638-1.47751 8.92931-7.83724 9.25051-12.2055L11.2419-12.2055 11.3062 0 9.37899 0C9.31475-0.642397 9.44323-1.60599 9.25051-2.11991 8.54387-0.706636 7.4518 0.192719 5.39613 0.256959" fill="#3A414A" transform="matrix(1 0 0 1.00503 1776.04 1787.97)"/><path d="M6.42397-12.4625C10.4711-12.4625 11.9486-9.76443 11.8201-5.65309L3.14774-5.65309C3.14774-3.0835 4.0471-1.34903 6.55244-1.28479 8.22268-1.22055 9.31475-2.05567 9.70019-3.14774L11.4989-2.63383C10.7923-0.835116 9.12203 0.256959 6.55244 0.256959 2.82655 0.256959 0.899355-2.11991 0.963595-6.16701 1.02783-10.0856 2.63383-12.4625 6.42397-12.4625ZM9.76443-7.25908C10.1499-11.1135 4.88221-12.2055 3.53318-9.05779 3.34046-8.60811 3.14774-7.96572 3.14774-7.25908L9.76443-7.25908" fill="#3A414A" transform="matrix(1 0 0 1.00503 1788.89 1787.97)"/><path d="M7.32332-10.4711C2.31263-11.4989 3.91862-4.62526 3.66166 0L1.60599 0 1.54175-12.2055 3.46894-12.2055C3.53318-11.4347 3.4047-10.3426 3.59742-9.70019 3.98286-11.4347 5.07493-12.8479 7.32332-12.334L7.32332-10.4711" fill="#3A414A" transform="matrix(1 0 0 1.00503 1801.73 1787.97)"/><path d="M11.4989-12.2055 5.97429 1.99143C5.07493 3.79014 3.59742 5.26765 0.770876 4.6895L0.770876 3.14774C3.27622 3.53318 4.17558 1.86295 4.88221-0.0642397L0.0642397-12.2055 2.24839-12.2055 5.91005-2.18415 9.37899-12.2055 11.4989-12.2055" fill="#3A414A" transform="matrix(1 0 0 1.00503 1809.38 1787.97)"/><path d="M-632.631-638.979C-632.631-642.428-629.836-645.223-626.387-645.223L-472.366-645.223C-468.917-645.223-466.122-642.428-466.122-638.979L-466.122-526.585C-466.122-523.136-468.917-520.341-472.366-520.341L-626.387-520.341C-629.836-520.341-632.631-523.136-632.631-526.585Z" stroke="#282C33" stroke-width="2.08136" fill="#FFFFFF" transform="matrix(1 0 0 1.00503 2899.38 2465.12)"/><path d="M1.92719 0 1.92719-15.9314 4.0471-15.9314 4.0471-1.73447 12.0771-1.73447 12.0771 0 1.92719 0" fill="#3A414A" transform="matrix(1 0 0 1.00503 2281.33 1885.45)"/><path d="M1.92719 0 1.92719-15.9314 4.0471-15.9314 4.0471-1.73447 12.0771-1.73447 12.0771 0 1.92719 0" fill="#3A414A" transform="matrix(1 0 0 1.00503 2294.18 1885.45)"/><path d="M15.4175 0 15.546-14.0042C14.0685-9.12203 12.0771-4.6895 10.4068 0L8.92931 0 3.7259-14.0042 3.79014 0 1.92719 0 1.92719-15.9314 4.75373-15.9314 9.70019-2.37687C11.0492-7.19484 12.9764-11.3704 14.5824-15.9314L17.3447-15.9314 17.3447 0 15.4175 0" fill="#3A414A" transform="matrix(1 0 0 1.00503 2307.03 1885.45)"/><path d="M1.92719 0 1.92719-15.9314 13.94-15.9314 13.94-14.1327 4.0471-14.1327 4.0471-9.05779 13.2976-9.05779 13.2976-7.32332 4.0471-7.32332 4.0471-1.73447 14.4539-1.73447 14.4539 0 1.92719 0" fill="#3A414A" transform="matrix(1 0 0 1.00503 2332.66 1885.45)"/><path d="M7.51604-12.4625C13.2334-12.7195 10.9207-5.01069 11.3704 0L9.31475 0 9.31475-7.773C9.31475-9.76443 8.80083-10.9207 6.8094-10.8565 2.18415-10.728 3.98286-4.30406 3.66166 0L1.60599 0 1.54175-12.2055 3.46894-12.2055C3.53318-11.5631 3.4047-10.6638 3.59742-10.1499 4.30406-11.5631 5.46037-12.3983 7.51604-12.4625" fill="#3A414A" transform="matrix(1 0 0 1.00503 2348.08 1885.45)"/><path d="M6.16701-10.8565C3.59742-10.8565 3.0835-8.73659 3.0835-6.16701 3.0835-3.59742 3.66166-1.34903 6.16701-1.34903 7.70876-1.34903 8.80083-2.24839 8.92931-3.79014L10.985-3.66166C10.5995-1.28479 8.99355 0.256959 6.23125 0.256959 2.44111 0.256959 1.34903-2.37687 0.963595-6.10277 0.321198-12.0771 7.4518-14.5182 10.4068-10.2141 10.6638-9.76443 10.728-9.31475 10.8565-8.80083L8.80083-8.60811C8.54387-9.95715 7.773-10.8565 6.16701-10.8565" fill="#3A414A" transform="matrix(1 0 0 1.00503 2360.93 1885.45)"/><path d="M6.42397-12.4625C10.4068-12.5267 11.8843-10.0856 11.8843-6.10277 11.9486-2.05567 10.1499 0.256959 6.35973 0.256959 2.56959 0.256959 1.02783-2.24839 0.963595-6.10277 0.963595-10.3426 2.76231-12.4625 6.42397-12.4625ZM6.35973-1.28479C9.18627-1.22055 9.76443-3.27622 9.76443-6.10277 9.76443-8.86507 9.25051-10.9207 6.48821-10.9207 3.7259-10.9207 3.0835-8.86507 3.0835-6.10277 3.0835-3.34046 3.7259-1.34903 6.35973-1.28479" fill="#3A414A" transform="matrix(1 0 0 1.00503 2372.49 1885.45)"/><path d="M5.46037-12.4625C7.4518-12.4625 8.54387-11.6274 9.31475-10.3426L9.25051-16.7666 11.3062-16.7666 11.3704 0 9.44323 0C9.31475-0.642397 9.44323-1.47751 9.25051-1.99143 8.60811-0.513917 7.4518 0.256959 5.46037 0.256959 2.05567 0.256959 1.02783-2.24839 0.963595-6.03853 0.963595-10.2783 2.44111-12.4625 5.46037-12.4625ZM6.03853-10.9207C3.46894-10.9207 3.0835-8.73659 3.0835-6.10277 3.0835-3.53318 3.46894-1.34903 5.97429-1.34903 8.67235-1.34903 9.25051-3.4047 9.25051-6.23125 9.25051-8.92931 8.67235-10.985 6.03853-10.9207" fill="#3A414A" transform="matrix(1 0 0 1.00503 2385.34 1885.45)"/><path d="M6.42397-12.4625C10.4711-12.4625 11.9486-9.76443 11.8201-5.65309L3.14774-5.65309C3.14774-3.0835 4.0471-1.34903 6.55244-1.28479 8.22268-1.22055 9.31475-2.05567 9.70019-3.14774L11.4989-2.63383C10.7923-0.835116 9.12203 0.256959 6.55244 0.256959 2.82655 0.256959 0.899355-2.11991 0.963595-6.16701 1.02783-10.0856 2.63383-12.4625 6.42397-12.4625ZM9.76443-7.25908C10.1499-11.1135 4.88221-12.2055 3.53318-9.05779 3.34046-8.60811 3.14774-7.96572 3.14774-7.25908L9.76443-7.25908" fill="#3A414A" transform="matrix(1 0 0 1.00503 2398.18 1885.45)"/><path d="M7.32332-10.4711C2.31263-11.4989 3.91862-4.62526 3.66166 0L1.60599 0 1.54175-12.2055 3.46894-12.2055C3.53318-11.4347 3.4047-10.3426 3.59742-9.70019 3.98286-11.4347 5.07493-12.8479 7.32332-12.334L7.32332-10.4711" fill="#3A414A" transform="matrix(1 0 0 1.00503 2411.03 1885.45)"/><path d="M-1035.58-705.166-951.496-705.166C-948.047-705.166-945.252-702.371-945.252-698.922L-945.252-589.026C-945.252-585.577-942.457-582.782-939.008-582.782L-650.718-582.782" stroke="#3A414A" stroke-width="1.04068" fill="none" transform="matrix(1 0 0 1.00503 2899.38 2465.12)"/><path d="M-1035.58-704.677-1036.24-704.677-1035.98-705.666-1035.56-705.666Z" stroke="#3A414A" stroke-width="0.0520341" fill="#3A414A" transform="matrix(1 0 0 1.00503 2899.38 2465.12)"/><path d="M-635.357-582.782-650.198-577.964-650.198-587.601Z" stroke="#3A414A" stroke-width="1.04068" fill="#3A414A" transform="matrix(1 0 0 1.00503 2899.38 2465.12)"/><path d="M-853.256-1096.88C-853.256-1100.32-850.46-1103.12-847.011-1103.12L-692.99-1103.12C-689.542-1103.12-686.746-1100.32-686.746-1096.88L-686.746-984.486C-686.746-981.037-689.542-978.242-692.99-978.242L-847.011-978.242C-850.46-978.242-853.256-981.037-853.256-984.486Z" stroke="#282C33" stroke-width="2.08136" fill="#FFFFFF" transform="matrix(1 0 0 1.00503 2899.38 2465.12)"/><path d="M14.9678-11.3704C14.9036-8.73659 13.4903-7.25908 11.1135-6.87364L15.6102 0 13.1691 0 8.99355-6.61668 4.0471-6.61668 4.0471 0 1.92719 0 1.92719-15.9314C7.58028-15.7387 15.0963-17.2805 14.9678-11.3704ZM4.0471-8.28692C7.90148-8.41539 12.8479-7.4518 12.8479-11.3062 12.8479-15.2248 7.70876-14.0042 4.0471-14.197L4.0471-8.28692" fill="#3A414A" transform="matrix(1 0 0 1.00503 2086.43 1397.01)"/><path d="M6.42397-12.4625C10.4711-12.4625 11.9486-9.76443 11.8201-5.65309L3.14774-5.65309C3.14774-3.0835 4.0471-1.34903 6.55244-1.28479 8.22268-1.22055 9.31475-2.05567 9.70019-3.14774L11.4989-2.63383C10.7923-0.835116 9.12203 0.256959 6.55244 0.256959 2.82655 0.256959 0.899355-2.11991 0.963595-6.16701 1.02783-10.0856 2.63383-12.4625 6.42397-12.4625ZM9.76443-7.25908C10.1499-11.1135 4.88221-12.2055 3.53318-9.05779 3.34046-8.60811 3.14774-7.96572 3.14774-7.25908L9.76443-7.25908" fill="#3A414A" transform="matrix(1 0 0 1.00503 2103.07 1397.01)"/><path d="M3.79014-3.01926C3.66166-1.47751 4.94645-1.15631 6.23125-1.60599L6.23125-0.0642397C4.11134 0.578157 1.73447 0.256959 1.73447-2.56959L1.73447-10.728 0.321198-10.728 0.321198-12.2055 1.86295-12.2055 2.44111-14.9678 3.79014-14.9678 3.79014-12.2055 6.03853-12.2055 6.03853-10.728 3.79014-10.728 3.79014-3.01926" fill="#3A414A" transform="matrix(1 0 0 1.00503 2115.92 1397.01)"/><path d="M7.32332-10.4711C2.31263-11.4989 3.91862-4.62526 3.66166 0L1.60599 0 1.54175-12.2055 3.46894-12.2055C3.53318-11.4347 3.4047-10.3426 3.59742-9.70019 3.98286-11.4347 5.07493-12.8479 7.32332-12.334L7.32332-10.4711" fill="#3A414A" transform="matrix(1 0 0 1.00503 2122.34 1397.01)"/><path d="M1.54175-14.8394 1.54175-16.7666 3.59742-16.7666 3.59742-14.8394 1.54175-14.8394ZM1.54175 0 1.54175-12.2055 3.59742-12.2055 3.59742 0 1.54175 0" fill="#3A414A" transform="matrix(1 0 0 1.00503 2129.99 1397.01)"/><path d="M6.42397-12.4625C10.4711-12.4625 11.9486-9.76443 11.8201-5.65309L3.14774-5.65309C3.14774-3.0835 4.0471-1.34903 6.55244-1.28479 8.22268-1.22055 9.31475-2.05567 9.70019-3.14774L11.4989-2.63383C10.7923-0.835116 9.12203 0.256959 6.55244 0.256959 2.82655 0.256959 0.899355-2.11991 0.963595-6.16701 1.02783-10.0856 2.63383-12.4625 6.42397-12.4625ZM9.76443-7.25908C10.1499-11.1135 4.88221-12.2055 3.53318-9.05779 3.34046-8.60811 3.14774-7.96572 3.14774-7.25908L9.76443-7.25908" fill="#3A414A" transform="matrix(1 0 0 1.00503 2135.06 1397.01)"/><path d="M6.93788 0 4.49678 0 0.0642397-12.2055 2.24839-12.2055 5.71733-1.60599 9.31475-12.2055 11.4989-12.2055" fill="#3A414A" transform="matrix(1 0 0 1.00503 2147.91 1397.01)"/><path d="M6.42397-12.4625C10.4711-12.4625 11.9486-9.76443 11.8201-5.65309L3.14774-5.65309C3.14774-3.0835 4.0471-1.34903 6.55244-1.28479 8.22268-1.22055 9.31475-2.05567 9.70019-3.14774L11.4989-2.63383C10.7923-0.835116 9.12203 0.256959 6.55244 0.256959 2.82655 0.256959 0.899355-2.11991 0.963595-6.16701 1.02783-10.0856 2.63383-12.4625 6.42397-12.4625ZM9.76443-7.25908C10.1499-11.1135 4.88221-12.2055 3.53318-9.05779 3.34046-8.60811 3.14774-7.96572 3.14774-7.25908L9.76443-7.25908" fill="#3A414A" transform="matrix(1 0 0 1.00503 2159.47 1397.01)"/><path d="M11.8843-12.1413C11.5631-15.2248 3.98286-15.6102 3.91862-12.0128 4.81797-7.19484 14.0685-11.1135 14.3897-4.3683 14.5824 0.642397 6.61668 1.22055 3.14774-0.835116 2.05567-1.47751 1.34903-2.50535 1.02783-3.79014L3.14774-4.23982C3.46894-0.642397 12.2055-0.192719 12.2055-4.30406 12.2055-9.31475 2.24839-5.20341 1.79871-11.8843 1.47751-17.152 11.1135-17.2805 13.2976-14.0685 13.6188-13.6188 13.8115-13.0407 14.0042-12.4625" fill="#3A414A" transform="matrix(1 0 0 1.00503 2079.3 1424.9)"/><path d="M5.39613 0.256959C-0.321198 0.513917 1.92719-7.19484 1.47751-12.2055L3.53318-12.2055 3.53318-4.49678C3.53318-2.50535 3.98286-1.28479 6.03853-1.34903 10.6638-1.47751 8.92931-7.83724 9.25051-12.2055L11.2419-12.2055 11.3062 0 9.37899 0C9.31475-0.642397 9.44323-1.60599 9.25051-2.11991 8.54387-0.706636 7.4518 0.192719 5.39613 0.256959" fill="#3A414A" transform="matrix(1 0 0 1.00503 2094.72 1424.9)"/><path d="M7.38756-12.4625C10.7923-12.4625 11.8201-9.95715 11.8843-6.16701 11.8843-1.92719 10.4068 0.256959 7.38756 0.256959 5.39613 0.192719 4.23982-0.449678 3.59742-1.92719L3.46894 0 1.47751 0 1.54175-16.7666 3.59742-16.7666 3.59742-10.2783C4.23982-11.7559 5.39613-12.4625 7.38756-12.4625ZM6.87364-1.28479C9.44323-1.28479 9.76443-3.46894 9.76443-6.10277 9.76443-8.67235 9.44323-10.9207 6.87364-10.8565 4.17558-10.8565 3.59742-8.80083 3.59742-5.97429 3.59742-3.21198 4.23982-1.28479 6.87364-1.28479" fill="#3A414A" transform="matrix(1 0 0 1.00503 2107.57 1424.9)"/><path d="M11.3704-12.2055C10.728-4.17558 14.0042 6.61668 4.30406 4.56102 2.82655 4.17558 1.86295 3.27622 1.47751 1.79871L3.53318 1.47751C4.49678 4.49678 9.95715 3.53318 9.25051-0.321198L9.25051-2.24839C8.54387-0.899355 7.38756 0.0642397 5.33189 0.0642397 1.86295 0.0642397 0.963595-2.56959 0.963595-6.10277 0.963595-9.70019 1.99143-12.334 5.52461-12.3983 7.38756-12.4625 8.60811-11.3704 9.31475-10.1499 9.37899-10.7923 9.31475-11.6274 9.44323-12.2055L11.3704-12.2055ZM6.03853-1.41327C8.35116-1.41327 9.25051-3.46894 9.25051-6.10277 9.25051-8.80083 8.35116-10.9207 6.03853-10.9207 3.53318-10.9207 3.0835-8.73659 3.0835-6.10277 3.0835-3.46894 3.46894-1.41327 6.03853-1.41327" fill="#3A414A" transform="matrix(1 0 0 1.00503 2120.41 1424.9)"/><path d="M7.32332-10.4711C2.31263-11.4989 3.91862-4.62526 3.66166 0L1.60599 0 1.54175-12.2055 3.46894-12.2055C3.53318-11.4347 3.4047-10.3426 3.59742-9.70019 3.98286-11.4347 5.07493-12.8479 7.32332-12.334L7.32332-10.4711" fill="#3A414A" transform="matrix(1 0 0 1.00503 2133.26 1424.9)"/><path d="M9.05779-2.31263C8.0942-0.963595 7.06636 0.321198 4.6895 0.256959 2.37687 0.192719 0.963595-1.09207 0.963595-3.4047 0.899355-7.51604 5.01069-7.4518 8.99355-7.4518 9.18627-9.70019 8.41539-10.9207 6.35973-10.9207 4.81797-10.8565 3.7259-10.4711 3.66166-8.92931L1.54175-9.12203C1.86295-11.4989 3.66166-12.4625 6.42397-12.4625 9.31475-12.4625 11.0492-11.1777 11.0492-8.35116L11.0492-3.0835C10.985-1.79871 11.4989-1.02783 12.8479-1.34903L12.8479-0.0642397C10.8565 0.513917 8.92931-0.192719 9.05779-2.31263ZM3.0835-3.4047C3.0835-2.11991 3.85438-1.28479 5.13917-1.28479 7.773-1.47751 9.18627-3.14774 8.99355-6.03853 6.23125-5.91005 3.0835-6.35973 3.0835-3.4047" fill="#3A414A" transform="matrix(1 0 0 1.00503 2140.91 1424.9)"/><path d="M7.38756-12.4625C10.9207-12.3983 11.8843-9.82867 11.8843-6.16701 11.8843-2.50535 10.8565 0.128479 7.38756 0.256959 5.39613 0.256959 4.23982-0.578157 3.53318-1.92719L3.59742 4.81797 1.54175 4.81797 1.47751-12.2055 3.46894-12.2055 3.59742-10.2783C4.23982-11.6274 5.39613-12.4625 7.38756-12.4625ZM6.87364-1.28479C9.44323-1.28479 9.76443-3.46894 9.76443-6.10277 9.76443-8.73659 9.37899-10.7923 6.87364-10.8565 4.17558-10.8565 3.59742-8.80083 3.59742-5.97429 3.59742-3.21198 4.23982-1.28479 6.87364-1.28479" fill="#3A414A" transform="matrix(1 0 0 1.00503 2153.76 1424.9)"/><path d="M6.8094-10.8565C2.18415-10.8565 3.98286-4.30406 3.66166 0L1.60599 0 1.60599-16.7666 3.66166-16.7666 3.59742-10.1499C4.3683-11.4989 5.39613-12.4625 7.51604-12.4625 13.2334-12.4625 10.9207-5.01069 11.3704 0L9.31475 0 9.31475-7.773C9.44323-9.82867 8.80083-10.9207 6.8094-10.8565" fill="#3A414A" transform="matrix(1 0 0 1.00503 2166.6 1424.9)"/><path d="M13.6188-11.4989C12.9764-13.2976 11.3704-14.3897 8.92931-14.3897 5.13917-14.3897 3.34046-11.8201 3.34046-8.02996 3.34046-4.17558 5.20341-1.54175 9.05779-1.54175 11.8201-1.54175 13.0407-3.0835 14.0685-4.88221L15.803-3.98286C14.6466-1.54175 12.5267 0.256959 8.92931 0.256959 3.79014 0.256959 1.41327-2.95502 1.15631-8.02996 0.770876-14.7109 7.51604-17.8586 13.1691-15.1606 14.3897-14.5824 15.1606-13.4903 15.6745-12.2055" fill="#3A414A" transform="matrix(1 0 0 1.00503 2089.58 1452.79)"/><path d="M6.42397-12.4625C10.4068-12.5267 11.8843-10.0856 11.8843-6.10277 11.9486-2.05567 10.1499 0.256959 6.35973 0.256959 2.56959 0.256959 1.02783-2.24839 0.963595-6.10277 0.963595-10.3426 2.76231-12.4625 6.42397-12.4625ZM6.35973-1.28479C9.18627-1.22055 9.76443-3.27622 9.76443-6.10277 9.76443-8.86507 9.25051-10.9207 6.48821-10.9207 3.7259-10.9207 3.0835-8.86507 3.0835-6.10277 3.0835-3.34046 3.7259-1.34903 6.35973-1.28479" fill="#3A414A" transform="matrix(1 0 0 1.00503 2106.22 1452.79)"/><path d="M7.51604-12.4625C13.2334-12.7195 10.9207-5.01069 11.3704 0L9.31475 0 9.31475-7.773C9.31475-9.76443 8.80083-10.9207 6.8094-10.8565 2.18415-10.728 3.98286-4.30406 3.66166 0L1.60599 0 1.54175-12.2055 3.46894-12.2055C3.53318-11.5631 3.4047-10.6638 3.59742-10.1499 4.30406-11.5631 5.46037-12.3983 7.51604-12.4625" fill="#3A414A" transform="matrix(1 0 0 1.00503 2119.07 1452.79)"/><path d="M3.79014-3.01926C3.66166-1.47751 4.94645-1.15631 6.23125-1.60599L6.23125-0.0642397C4.11134 0.578157 1.73447 0.256959 1.73447-2.56959L1.73447-10.728 0.321198-10.728 0.321198-12.2055 1.86295-12.2055 2.44111-14.9678 3.79014-14.9678 3.79014-12.2055 6.03853-12.2055 6.03853-10.728 3.79014-10.728 3.79014-3.01926" fill="#3A414A" transform="matrix(1 0 0 1.00503 2131.91 1452.79)"/><path d="M6.42397-12.4625C10.4711-12.4625 11.9486-9.76443 11.8201-5.65309L3.14774-5.65309C3.14774-3.0835 4.0471-1.34903 6.55244-1.28479 8.22268-1.22055 9.31475-2.05567 9.70019-3.14774L11.4989-2.63383C10.7923-0.835116 9.12203 0.256959 6.55244 0.256959 2.82655 0.256959 0.899355-2.11991 0.963595-6.16701 1.02783-10.0856 2.63383-12.4625 6.42397-12.4625ZM9.76443-7.25908C10.1499-11.1135 4.88221-12.2055 3.53318-9.05779 3.34046-8.60811 3.14774-7.96572 3.14774-7.25908L9.76443-7.25908" fill="#3A414A" transform="matrix(1 0 0 1.00503 2138.34 1452.79)"/><path d="M9.05779 0 5.78157-5.01069 2.44111 0 0.256959 0 4.62526-6.29549 0.449678-12.2055 2.69807-12.2055 5.78157-7.4518 8.80083-12.2055 11.0492-12.2055 6.93788-6.29549 11.3062 0 9.05779 0" fill="#3A414A" transform="matrix(1 0 0 1.00503 2151.19 1452.79)"/><path d="M3.79014-3.01926C3.66166-1.47751 4.94645-1.15631 6.23125-1.60599L6.23125-0.0642397C4.11134 0.578157 1.73447 0.256959 1.73447-2.56959L1.73447-10.728 0.321198-10.728 0.321198-12.2055 1.86295-12.2055 2.44111-14.9678 3.79014-14.9678 3.79014-12.2055 6.03853-12.2055 6.03853-10.728 3.79014-10.728 3.79014-3.01926" fill="#3A414A" transform="matrix(1 0 0 1.00503 2162.75 1452.79)"/><path d="M-1035.58-705.166-951.444-705.166C-947.995-705.166-945.2-707.962-945.2-711.41L-945.2-1034.44C-945.2-1037.89-942.405-1040.68-938.956-1040.68L-871.343-1040.68" stroke="#3A414A" stroke-width="1.04068" fill="none" transform="matrix(1 0 0 1.00503 2899.38 2465.12)"/><path d="M-1035.58-704.677-1036.24-704.677-1035.98-705.666-1035.56-705.666Z" stroke="#3A414A" stroke-width="0.0520341" fill="#3A414A" transform="matrix(1 0 0 1.00503 2899.38 2465.12)"/><path d="M-855.982-1040.68-870.822-1035.86-870.822-1045.5Z" stroke="#3A414A" stroke-width="1.04068" fill="#3A414A" transform="matrix(1 0 0 1.00503 2899.38 2465.12)"/><path d="M-771.562-1282.95-815.624-1308.14-771.572-1332.45-727.52-1308.64ZM-807.518-1308.09-771.572-1287.69-735.721-1308.64-771.583-1327.89Z" fill="#669DF6" transform="matrix(1 0 0 1.00503 2899.38 2465.12)"/><path d="M-771.51-1236.19-815.781-1264.49-771.5-1287.94-727.926-1264.23ZM-807.871-1264.24-771.5-1241-735.658-1263.92-771.51-1283.43Z" fill="#669DF6" transform="matrix(1 0 0 1.00503 2899.38 2465.12)"/><path d="M-813.626-1307.24-810.015-1309.17-770.074-1239.73-773.685-1237.81-813.626-1307.22Z" fill="#4285F4" transform="matrix(1 0 0 1.00503 2899.38 2465.12)"/><path d="M-773.071-1239.35-734.045-1308.55-730.424-1306.71-769.449-1237.51-773.071-1239.36Z" fill="#4285F4" transform="matrix(1 0 0 1.00503 2899.38 2465.12)"/><path d="M-813.085-1265.57-773.643-1330.79-770.063-1328.85-809.505-1263.63-813.075-1265.57Z" fill="#4285F4" transform="matrix(1 0 0 1.00503 2899.38 2465.12)"/><path d="M-773.071-1329.18-769.501-1331.16-729.955-1264.95-733.546-1262.97-773.071-1329.18Z" fill="#4285F4" transform="matrix(1 0 0 1.00503 2899.38 2465.12)"/><path d="M-773.435-1330.51-769.324-1330.51-769.324-1238.93-773.435-1238.93-773.435-1330.51ZM-813.97-1307.74-809.859-1307.74-809.859-1263.54-813.97-1263.54-813.97-1307.74ZM-733.962-1308.14-729.851-1308.14-729.851-1263.95-733.962-1263.95-733.962-1308.14Z" fill="#4285F4" transform="matrix(1 0 0 1.00503 2899.38 2465.12)"/><path d="M-765.63-1329.95C-765.63-1326.93-768.19-1324.49-771.354-1324.49-774.507-1324.49-777.078-1326.94-777.078-1329.96-777.078-1332.98-774.507-1335.41-771.354-1335.41-768.19-1335.41-765.63-1332.97-765.63-1329.96ZM-726.157-1308.2C-726.157-1305.18-728.717-1302.75-731.881-1302.75-735.034-1302.75-737.604-1305.19-737.604-1308.2-737.604-1311.22-735.034-1313.66-731.881-1313.66-728.717-1313.66-726.157-1311.23-726.157-1308.21ZM-805.488-1308.2C-805.488-1305.18-808.038-1302.75-811.191-1302.75-814.344-1302.75-816.915-1305.19-816.915-1308.2-816.915-1311.22-814.344-1313.66-811.191-1313.66-808.038-1313.66-805.467-1311.23-805.467-1308.21ZM-762.373-1284.77C-762.373-1280.04-766.39-1276.2-771.354-1276.2-776.307-1276.2-780.335-1280.05-780.335-1284.78-780.335-1289.52-776.307-1293.36-771.354-1293.36-766.39-1293.36-762.373-1289.51-762.373-1284.77ZM-726.157-1264.3C-726.157-1261.29-728.717-1258.85-731.881-1258.85-735.034-1258.85-737.604-1261.3-737.604-1264.3-737.604-1267.32-735.034-1269.77-731.881-1269.77-728.717-1269.77-726.157-1267.32-726.157-1264.3ZM-805.488-1264.3C-805.488-1261.29-808.038-1258.85-811.191-1258.85-814.344-1258.85-816.915-1261.3-816.915-1264.3-816.915-1267.32-814.344-1269.77-811.191-1269.77-808.038-1269.77-805.467-1267.32-805.467-1264.3ZM-765.63-1238.79C-765.63-1235.77-768.19-1233.32-771.354-1233.32-774.507-1233.32-777.078-1235.79-777.078-1238.8-777.078-1241.82-774.507-1244.26-771.354-1244.26-768.19-1244.26-765.63-1241.83-765.63-1238.81Z" fill="#AECBFA" transform="matrix(1 0 0 1.00503 2899.38 2465.12)"/><path d="M-771.562-1282.95-815.624-1308.14-771.572-1332.45-727.52-1308.64ZM-807.518-1308.09-771.572-1287.69-735.721-1308.64-771.583-1327.89Z" fill="#AECBFA" transform="matrix(1 0 0 1.00503 2899.38 2465.12)"/><path d="M-771.51-1236.19-815.781-1264.49-771.5-1287.94-727.926-1264.23ZM-807.871-1264.24-771.5-1241-735.658-1263.92-771.51-1283.43Z" fill="#AECBFA" transform="matrix(1 0 0 1.00503 2899.38 2465.12)"/><path d="M-813.626-1307.24-810.015-1309.17-770.074-1239.73-773.685-1237.81-813.626-1307.22Z" fill="#AECBFA" transform="matrix(1 0 0 1.00503 2899.38 2465.12)"/><path d="M-773.071-1239.35-734.045-1308.55-730.424-1306.71-769.449-1237.51-773.071-1239.36Z" fill="#AECBFA" transform="matrix(1 0 0 1.00503 2899.38 2465.12)"/><path d="M-813.085-1265.57-773.643-1330.79-770.063-1328.85-809.505-1263.63-813.075-1265.57Z" fill="#AECBFA" transform="matrix(1 0 0 1.00503 2899.38 2465.12)"/><path d="M-773.071-1329.18-769.501-1331.16-729.955-1264.95-733.546-1262.97-773.071-1329.18Z" fill="#AECBFA" transform="matrix(1 0 0 1.00503 2899.38 2465.12)"/><path d="M-773.435-1330.51-769.324-1330.51-769.324-1238.93-773.435-1238.93-773.435-1330.51ZM-813.97-1307.74-809.859-1307.74-809.859-1263.54-813.97-1263.54-813.97-1307.74ZM-733.962-1308.14-729.851-1308.14-729.851-1263.95-733.962-1263.95-733.962-1308.14Z" fill="#AECBFA" transform="matrix(1 0 0 1.00503 2899.38 2465.12)"/><path d="M-765.63-1329.95C-765.63-1326.93-768.19-1324.49-771.354-1324.49-774.507-1324.49-777.078-1326.94-777.078-1329.96-777.078-1332.98-774.507-1335.41-771.354-1335.41-768.19-1335.41-765.63-1332.97-765.63-1329.96ZM-726.157-1308.2C-726.157-1305.18-728.717-1302.75-731.881-1302.75-735.034-1302.75-737.604-1305.19-737.604-1308.2-737.604-1311.22-735.034-1313.66-731.881-1313.66-728.717-1313.66-726.157-1311.23-726.157-1308.21ZM-805.488-1308.2C-805.488-1305.18-808.038-1302.75-811.191-1302.75-814.344-1302.75-816.915-1305.19-816.915-1308.2-816.915-1311.22-814.344-1313.66-811.191-1313.66-808.038-1313.66-805.467-1311.23-805.467-1308.21ZM-762.373-1284.77C-762.373-1280.04-766.39-1276.2-771.354-1276.2-776.307-1276.2-780.335-1280.05-780.335-1284.78-780.335-1289.52-776.307-1293.36-771.354-1293.36-766.39-1293.36-762.373-1289.51-762.373-1284.77ZM-726.157-1264.3C-726.157-1261.29-728.717-1258.85-731.881-1258.85-735.034-1258.85-737.604-1261.3-737.604-1264.3-737.604-1267.32-735.034-1269.77-731.881-1269.77-728.717-1269.77-726.157-1267.32-726.157-1264.3ZM-805.488-1264.3C-805.488-1261.29-808.038-1258.85-811.191-1258.85-814.344-1258.85-816.915-1261.3-816.915-1264.3-816.915-1267.32-814.344-1269.77-811.191-1269.77-808.038-1269.77-805.467-1267.32-805.467-1264.3ZM-765.63-1238.79C-765.63-1235.77-768.19-1233.32-771.354-1233.32-774.507-1233.32-777.078-1235.79-777.078-1238.8-777.078-1241.82-774.507-1244.26-771.354-1244.26-768.19-1244.26-765.63-1241.83-765.63-1238.81Z" fill="#669DF6" transform="matrix(1 0 0 1.00503 2899.38 2465.12)"/><path d="M12.4625 0 6.10277-7.70876 4.0471-6.10277 4.0471 0 1.92719 0 1.92719-15.9314 4.0471-15.9314 4.0471-7.96572 11.6916-15.9314 14.2612-15.9314 7.51604-8.99355 15.1606 0 12.4625 0" fill="#3A414A" transform="matrix(1 0 0 1.00503 2071.15 1249.41)"/><path d="M7.51604-12.4625C13.2334-12.7195 10.9207-5.01069 11.3704 0L9.31475 0 9.31475-7.773C9.31475-9.76443 8.80083-10.9207 6.8094-10.8565 2.18415-10.728 3.98286-4.30406 3.66166 0L1.60599 0 1.54175-12.2055 3.46894-12.2055C3.53318-11.5631 3.4047-10.6638 3.59742-10.1499 4.30406-11.5631 5.46037-12.3983 7.51604-12.4625" fill="#3A414A" transform="matrix(1 0 0 1.00503 2086.57 1249.41)"/><path d="M6.42397-12.4625C10.4068-12.5267 11.8843-10.0856 11.8843-6.10277 11.9486-2.05567 10.1499 0.256959 6.35973 0.256959 2.56959 0.256959 1.02783-2.24839 0.963595-6.10277 0.963595-10.3426 2.76231-12.4625 6.42397-12.4625ZM6.35973-1.28479C9.18627-1.22055 9.76443-3.27622 9.76443-6.10277 9.76443-8.86507 9.25051-10.9207 6.48821-10.9207 3.7259-10.9207 3.0835-8.86507 3.0835-6.10277 3.0835-3.34046 3.7259-1.34903 6.35973-1.28479" fill="#3A414A" transform="matrix(1 0 0 1.00503 2099.42 1249.41)"/><path d="M13.2334 0 10.9207 0 8.35116-10.5353 5.71733 0 3.4047 0-0.0642397-12.2055 1.99143-12.2055 4.49678-1.67023 7.25908-12.2055 9.44323-12.2055 12.0771-1.67023 14.7751-12.2055 16.7666-12.2055" fill="#3A414A" transform="matrix(1 0 0 1.00503 2112.27 1249.41)"/><path d="M1.54175 0 1.54175-16.7666 3.59742-16.7666 3.59742 0 1.54175 0" fill="#3A414A" transform="matrix(1 0 0 1.00503 2128.9 1249.41)"/><path d="M6.42397-12.4625C10.4711-12.4625 11.9486-9.76443 11.8201-5.65309L3.14774-5.65309C3.14774-3.0835 4.0471-1.34903 6.55244-1.28479 8.22268-1.22055 9.31475-2.05567 9.70019-3.14774L11.4989-2.63383C10.7923-0.835116 9.12203 0.256959 6.55244 0.256959 2.82655 0.256959 0.899355-2.11991 0.963595-6.16701 1.02783-10.0856 2.63383-12.4625 6.42397-12.4625ZM9.76443-7.25908C10.1499-11.1135 4.88221-12.2055 3.53318-9.05779 3.34046-8.60811 3.14774-7.96572 3.14774-7.25908L9.76443-7.25908" fill="#3A414A" transform="matrix(1 0 0 1.00503 2133.98 1249.41)"/><path d="M5.46037-12.4625C7.4518-12.4625 8.54387-11.6274 9.31475-10.3426L9.25051-16.7666 11.3062-16.7666 11.3704 0 9.44323 0C9.31475-0.642397 9.44323-1.47751 9.25051-1.99143 8.60811-0.513917 7.4518 0.256959 5.46037 0.256959 2.05567 0.256959 1.02783-2.24839 0.963595-6.03853 0.963595-10.2783 2.44111-12.4625 5.46037-12.4625ZM6.03853-10.9207C3.46894-10.9207 3.0835-8.73659 3.0835-6.10277 3.0835-3.53318 3.46894-1.34903 5.97429-1.34903 8.67235-1.34903 9.25051-3.4047 9.25051-6.23125 9.25051-8.92931 8.67235-10.985 6.03853-10.9207" fill="#3A414A" transform="matrix(1 0 0 1.00503 2146.83 1249.41)"/><path d="M11.3704-12.2055C10.728-4.17558 14.0042 6.61668 4.30406 4.56102 2.82655 4.17558 1.86295 3.27622 1.47751 1.79871L3.53318 1.47751C4.49678 4.49678 9.95715 3.53318 9.25051-0.321198L9.25051-2.24839C8.54387-0.899355 7.38756 0.0642397 5.33189 0.0642397 1.86295 0.0642397 0.963595-2.56959 0.963595-6.10277 0.963595-9.70019 1.99143-12.334 5.52461-12.3983 7.38756-12.4625 8.60811-11.3704 9.31475-10.1499 9.37899-10.7923 9.31475-11.6274 9.44323-12.2055L11.3704-12.2055ZM6.03853-1.41327C8.35116-1.41327 9.25051-3.46894 9.25051-6.10277 9.25051-8.80083 8.35116-10.9207 6.03853-10.9207 3.53318-10.9207 3.0835-8.73659 3.0835-6.10277 3.0835-3.46894 3.46894-1.41327 6.03853-1.41327" fill="#3A414A" transform="matrix(1 0 0 1.00503 2159.67 1249.41)"/><path d="M6.42397-12.4625C10.4711-12.4625 11.9486-9.76443 11.8201-5.65309L3.14774-5.65309C3.14774-3.0835 4.0471-1.34903 6.55244-1.28479 8.22268-1.22055 9.31475-2.05567 9.70019-3.14774L11.4989-2.63383C10.7923-0.835116 9.12203 0.256959 6.55244 0.256959 2.82655 0.256959 0.899355-2.11991 0.963595-6.16701 1.02783-10.0856 2.63383-12.4625 6.42397-12.4625ZM9.76443-7.25908C10.1499-11.1135 4.88221-12.2055 3.53318-9.05779 3.34046-8.60811 3.14774-7.96572 3.14774-7.25908L9.76443-7.25908" fill="#3A414A" transform="matrix(1 0 0 1.00503 2172.52 1249.41)"/><path d="M9.18627 0.256959C3.91862 0.256959 1.41327-2.82655 1.15631-8.02996 0.835116-14.9036 7.58028-17.9229 13.5546-15.1606 14.6466-14.6466 15.4175-13.5546 15.9314-12.3983L13.8758-11.8201C13.0407-13.4261 11.4989-14.3897 8.99355-14.3897 5.07493-14.3897 3.34046-11.8843 3.34046-8.02996 3.34046-4.11134 5.20341-1.60599 9.18627-1.54175 11.4347-1.54175 13.1691-2.24839 14.2612-3.27622L14.2612-6.16701 9.50747-6.16701 9.50747-7.96572 16.2526-7.96572 16.2526-2.44111C14.6466-0.835116 12.334 0.256959 9.18627 0.256959" fill="#3A414A" transform="matrix(1 0 0 1.00503 2096.17 1277.3)"/><path d="M7.32332-10.4711C2.31263-11.4989 3.91862-4.62526 3.66166 0L1.60599 0 1.54175-12.2055 3.46894-12.2055C3.53318-11.4347 3.4047-10.3426 3.59742-9.70019 3.98286-11.4347 5.07493-12.8479 7.32332-12.334L7.32332-10.4711" fill="#3A414A" transform="matrix(1 0 0 1.00503 2114.16 1277.3)"/><path d="M9.05779-2.31263C8.0942-0.963595 7.06636 0.321198 4.6895 0.256959 2.37687 0.192719 0.963595-1.09207 0.963595-3.4047 0.899355-7.51604 5.01069-7.4518 8.99355-7.4518 9.18627-9.70019 8.41539-10.9207 6.35973-10.9207 4.81797-10.8565 3.7259-10.4711 3.66166-8.92931L1.54175-9.12203C1.86295-11.4989 3.66166-12.4625 6.42397-12.4625 9.31475-12.4625 11.0492-11.1777 11.0492-8.35116L11.0492-3.0835C10.985-1.79871 11.4989-1.02783 12.8479-1.34903L12.8479-0.0642397C10.8565 0.513917 8.92931-0.192719 9.05779-2.31263ZM3.0835-3.4047C3.0835-2.11991 3.85438-1.28479 5.13917-1.28479 7.773-1.47751 9.18627-3.14774 8.99355-6.03853 6.23125-5.91005 3.0835-6.35973 3.0835-3.4047" fill="#3A414A" transform="matrix(1 0 0 1.00503 2121.8 1277.3)"/><path d="M7.38756-12.4625C10.9207-12.3983 11.8843-9.82867 11.8843-6.16701 11.8843-2.50535 10.8565 0.128479 7.38756 0.256959 5.39613 0.256959 4.23982-0.578157 3.53318-1.92719L3.59742 4.81797 1.54175 4.81797 1.47751-12.2055 3.46894-12.2055 3.59742-10.2783C4.23982-11.6274 5.39613-12.4625 7.38756-12.4625ZM6.87364-1.28479C9.44323-1.28479 9.76443-3.46894 9.76443-6.10277 9.76443-8.73659 9.37899-10.7923 6.87364-10.8565 4.17558-10.8565 3.59742-8.80083 3.59742-5.97429 3.59742-3.21198 4.23982-1.28479 6.87364-1.28479" fill="#3A414A" transform="matrix(1 0 0 1.00503 2134.65 1277.3)"/><path d="M6.8094-10.8565C2.18415-10.8565 3.98286-4.30406 3.66166 0L1.60599 0 1.60599-16.7666 3.66166-16.7666 3.59742-10.1499C4.3683-11.4989 5.39613-12.4625 7.51604-12.4625 13.2334-12.4625 10.9207-5.01069 11.3704 0L9.31475 0 9.31475-7.773C9.44323-9.82867 8.80083-10.9207 6.8094-10.8565" fill="#3A414A" transform="matrix(1 0 0 1.00503 2147.5 1277.3)"/><path d="M-632.631-873.476C-632.631-876.925-629.836-879.72-626.387-879.72L-472.366-879.72C-468.917-879.72-466.122-876.925-466.122-873.476L-466.122-749.989C-466.122-746.54-468.917-743.745-472.366-743.745L-626.387-743.745C-629.836-743.745-632.631-746.54-632.631-749.989Z" stroke="#282C33" stroke-width="2.08136" fill="#FFFFFF" transform="matrix(1 0 0 1.00503 2899.38 2465.12)"/><path d="M9.18627 0.256959C3.91862 0.256959 1.41327-2.82655 1.15631-8.02996 0.835116-14.9036 7.58028-17.9229 13.5546-15.1606 14.6466-14.6466 15.4175-13.5546 15.9314-12.3983L13.8758-11.8201C13.0407-13.4261 11.4989-14.3897 8.99355-14.3897 5.07493-14.3897 3.34046-11.8843 3.34046-8.02996 3.34046-4.11134 5.20341-1.60599 9.18627-1.54175 11.4347-1.54175 13.1691-2.24839 14.2612-3.27622L14.2612-6.16701 9.50747-6.16701 9.50747-7.96572 16.2526-7.96572 16.2526-2.44111C14.6466-0.835116 12.334 0.256959 9.18627 0.256959" fill="#3A414A" transform="matrix(1 0 0 1.00503 2324.37 1640.1)"/><path d="M12.2055 0 3.7259-13.5546 3.79014 0 1.92719 0 1.92719-15.9314 4.43254-15.9314 12.9764-2.24839 12.8479-15.9314 14.8394-15.9314 14.8394 0 12.2055 0" fill="#3A414A" transform="matrix(1 0 0 1.00503 2342.36 1640.1)"/><path d="M12.2055 0 3.7259-13.5546 3.79014 0 1.92719 0 1.92719-15.9314 4.43254-15.9314 12.9764-2.24839 12.8479-15.9314 14.8394-15.9314 14.8394 0 12.2055 0" fill="#3A414A" transform="matrix(1 0 0 1.00503 2359 1640.1)"/><path d="M1.92719 0 1.92719-15.9314 13.94-15.9314 13.94-14.1327 4.0471-14.1327 4.0471-9.05779 13.2976-9.05779 13.2976-7.32332 4.0471-7.32332 4.0471-1.73447 14.4539-1.73447 14.4539 0 1.92719 0" fill="#3A414A" transform="matrix(1 0 0 1.00503 2307 1667.99)"/><path d="M7.51604-12.4625C13.2334-12.7195 10.9207-5.01069 11.3704 0L9.31475 0 9.31475-7.773C9.31475-9.76443 8.80083-10.9207 6.8094-10.8565 2.18415-10.728 3.98286-4.30406 3.66166 0L1.60599 0 1.54175-12.2055 3.46894-12.2055C3.53318-11.5631 3.4047-10.6638 3.59742-10.1499 4.30406-11.5631 5.46037-12.3983 7.51604-12.4625" fill="#3A414A" transform="matrix(1 0 0 1.00503 2322.41 1667.99)"/><path d="M6.16701-10.8565C3.59742-10.8565 3.0835-8.73659 3.0835-6.16701 3.0835-3.59742 3.66166-1.34903 6.16701-1.34903 7.70876-1.34903 8.80083-2.24839 8.92931-3.79014L10.985-3.66166C10.5995-1.28479 8.99355 0.256959 6.23125 0.256959 2.44111 0.256959 1.34903-2.37687 0.963595-6.10277 0.321198-12.0771 7.4518-14.5182 10.4068-10.2141 10.6638-9.76443 10.728-9.31475 10.8565-8.80083L8.80083-8.60811C8.54387-9.95715 7.773-10.8565 6.16701-10.8565" fill="#3A414A" transform="matrix(1 0 0 1.00503 2335.26 1667.99)"/><path d="M6.42397-12.4625C10.4068-12.5267 11.8843-10.0856 11.8843-6.10277 11.9486-2.05567 10.1499 0.256959 6.35973 0.256959 2.56959 0.256959 1.02783-2.24839 0.963595-6.10277 0.963595-10.3426 2.76231-12.4625 6.42397-12.4625ZM6.35973-1.28479C9.18627-1.22055 9.76443-3.27622 9.76443-6.10277 9.76443-8.86507 9.25051-10.9207 6.48821-10.9207 3.7259-10.9207 3.0835-8.86507 3.0835-6.10277 3.0835-3.34046 3.7259-1.34903 6.35973-1.28479" fill="#3A414A" transform="matrix(1 0 0 1.00503 2346.82 1667.99)"/><path d="M5.46037-12.4625C7.4518-12.4625 8.54387-11.6274 9.31475-10.3426L9.25051-16.7666 11.3062-16.7666 11.3704 0 9.44323 0C9.31475-0.642397 9.44323-1.47751 9.25051-1.99143 8.60811-0.513917 7.4518 0.256959 5.46037 0.256959 2.05567 0.256959 1.02783-2.24839 0.963595-6.03853 0.963595-10.2783 2.44111-12.4625 5.46037-12.4625ZM6.03853-10.9207C3.46894-10.9207 3.0835-8.73659 3.0835-6.10277 3.0835-3.53318 3.46894-1.34903 5.97429-1.34903 8.67235-1.34903 9.25051-3.4047 9.25051-6.23125 9.25051-8.92931 8.67235-10.985 6.03853-10.9207" fill="#3A414A" transform="matrix(1 0 0 1.00503 2359.67 1667.99)"/><path d="M6.42397-12.4625C10.4711-12.4625 11.9486-9.76443 11.8201-5.65309L3.14774-5.65309C3.14774-3.0835 4.0471-1.34903 6.55244-1.28479 8.22268-1.22055 9.31475-2.05567 9.70019-3.14774L11.4989-2.63383C10.7923-0.835116 9.12203 0.256959 6.55244 0.256959 2.82655 0.256959 0.899355-2.11991 0.963595-6.16701 1.02783-10.0856 2.63383-12.4625 6.42397-12.4625ZM9.76443-7.25908C10.1499-11.1135 4.88221-12.2055 3.53318-9.05779 3.34046-8.60811 3.14774-7.96572 3.14774-7.25908L9.76443-7.25908" fill="#3A414A" transform="matrix(1 0 0 1.00503 2372.52 1667.99)"/><path d="M7.32332-10.4711C2.31263-11.4989 3.91862-4.62526 3.66166 0L1.60599 0 1.54175-12.2055 3.46894-12.2055C3.53318-11.4347 3.4047-10.3426 3.59742-9.70019 3.98286-11.4347 5.07493-12.8479 7.32332-12.334L7.32332-10.4711" fill="#3A414A" transform="matrix(1 0 0 1.00503 2385.37 1667.99)"/><path d="M-412.006-874.173-380.786-874.173-380.786-842.953-412.006-842.953Z" fill="#F2F3F5" transform="matrix(1 0 0 1.00503 2899.38 2465.12)"/><path d="M-412.006-842.953-380.786-842.953-380.786-811.732-412.006-811.732Z" fill="#FFFFFF" transform="matrix(1 0 0 1.00503 2899.38 2465.12)"/><path d="M-412.006-811.732-380.786-811.732-380.786-780.512-412.006-780.512Z" fill="#F2F3F5" transform="matrix(1 0 0 1.00503 2899.38 2465.12)"/><path d="M-412.006-780.512-380.786-780.512-380.786-749.291-412.006-749.291Z" fill="#FFFFFF" transform="matrix(1 0 0 1.00503 2899.38 2465.12)"/><path d="M-412.006-874.173-412.006-842.953M-380.786-874.173-380.786-842.953M-412.006-874.173-380.786-874.173M-412.006-842.953-412.006-811.732M-380.786-842.953-380.786-811.732M-412.006-842.953-380.786-842.953M-412.006-811.732-412.006-780.512M-380.786-811.732-380.786-780.512M-412.006-811.732-380.786-811.732M-412.006-780.512-412.006-749.291M-380.786-780.512-380.786-749.291M-412.006-780.512-380.786-780.512M-412.006-749.291-380.786-749.291" stroke="#000000" stroke-width="1.04068" fill="none" transform="matrix(1 0 0 1.00503 2899.38 2465.12)"/><path d="M-464.561-811.732-429.573-811.732" stroke="#3A414A" stroke-width="1.04068" fill="none" transform="matrix(1 0 0 1.00503 2899.38 2465.12)"/><path d="M-464.561-811.233-465.081-811.233-465.081-812.232-464.561-812.232Z" stroke="#3A414A" stroke-width="0.0520341" fill="#3A414A" transform="matrix(1 0 0 1.00503 2899.38 2465.12)"/><path d="M-414.192-811.732-429.053-806.914-429.053-816.551Z" stroke="#3A414A" stroke-width="1.04068" fill="#3A414A" transform="matrix(1 0 0 1.00503 2899.38 2465.12)"/><path d="M-412.006-645.223-380.786-645.223-380.786-614.003-412.006-614.003Z" fill="#F2F3F5" transform="matrix(1 0 0 1.00503 2899.38 2465.12)"/><path d="M-412.006-614.003-380.786-614.003-380.786-582.782-412.006-582.782Z" fill="#FFFFFF" transform="matrix(1 0 0 1.00503 2899.38 2465.12)"/><path d="M-412.006-582.782-380.786-582.782-380.786-551.562-412.006-551.562Z" fill="#F2F3F5" transform="matrix(1 0 0 1.00503 2899.38 2465.12)"/><path d="M-412.006-551.562-380.786-551.562-380.786-520.341-412.006-520.341Z" fill="#FFFFFF" transform="matrix(1 0 0 1.00503 2899.38 2465.12)"/><path d="M-412.006-645.223-412.006-614.003M-380.786-645.223-380.786-614.003M-412.006-645.223-380.786-645.223M-412.006-614.003-412.006-582.782M-380.786-614.003-380.786-582.782M-412.006-614.003-380.786-614.003M-412.006-582.782-412.006-551.562M-380.786-582.782-380.786-551.562M-412.006-582.782-380.786-582.782M-412.006-551.562-412.006-520.341M-380.786-551.562-380.786-520.341M-412.006-551.562-380.786-551.562M-412.006-520.341-380.786-520.341" stroke="#000000" stroke-width="1.04068" fill="none" transform="matrix(1 0 0 1.00503 2899.38 2465.12)"/><path d="M-464.561-582.782-429.573-582.782" stroke="#3A414A" stroke-width="1.04068" fill="none" transform="matrix(1 0 0 1.00503 2899.38 2465.12)"/><path d="M-464.561-582.283-465.081-582.283-465.081-583.282-464.561-583.282Z" stroke="#3A414A" stroke-width="0.0520341" fill="#3A414A" transform="matrix(1 0 0 1.00503 2899.38 2465.12)"/><path d="M-414.192-582.782-429.053-577.964-429.053-587.601Z" stroke="#3A414A" stroke-width="1.04068" fill="#3A414A" transform="matrix(1 0 0 1.00503 2899.38 2465.12)"/><path d="M-284.086-743.828C-285.074-745.599-284.439-747.838-282.667-748.826-282.115-749.134-281.492-749.294-280.859-749.291L-85.2111-749.291C-83.1822-749.284-81.5434-747.634-81.5506-745.604-81.5529-744.983-81.713-744.371-82.0162-743.828L-180.038-567.432C-180.963-565.757-183.072-565.149-184.747-566.074-185.318-566.389-185.79-566.861-186.105-567.432Z" stroke="#282C33" stroke-width="2.08136" fill="#FFFFFF" transform="matrix(1 0 0 1.00503 2899.38 2465.12)"/><path d="M13.6188-11.4989C12.9764-13.2976 11.3704-14.3897 8.92931-14.3897 5.13917-14.3897 3.34046-11.8201 3.34046-8.02996 3.34046-4.17558 5.20341-1.54175 9.05779-1.54175 11.8201-1.54175 13.0407-3.0835 14.0685-4.88221L15.803-3.98286C14.6466-1.54175 12.5267 0.256959 8.92931 0.256959 3.79014 0.256959 1.41327-2.95502 1.15631-8.02996 0.770876-14.7109 7.51604-17.8586 13.1691-15.1606 14.3897-14.5824 15.1606-13.4903 15.6745-12.2055" fill="#3A414A" transform="matrix(1 0 0 1.00503 2650.84 1743.21)"/><path d="M6.42397-12.4625C10.4068-12.5267 11.8843-10.0856 11.8843-6.10277 11.9486-2.05567 10.1499 0.256959 6.35973 0.256959 2.56959 0.256959 1.02783-2.24839 0.963595-6.10277 0.963595-10.3426 2.76231-12.4625 6.42397-12.4625ZM6.35973-1.28479C9.18627-1.22055 9.76443-3.27622 9.76443-6.10277 9.76443-8.86507 9.25051-10.9207 6.48821-10.9207 3.7259-10.9207 3.0835-8.86507 3.0835-6.10277 3.0835-3.34046 3.7259-1.34903 6.35973-1.28479" fill="#3A414A" transform="matrix(1 0 0 1.00503 2667.48 1743.21)"/><path d="M7.51604-12.4625C13.2334-12.7195 10.9207-5.01069 11.3704 0L9.31475 0 9.31475-7.773C9.31475-9.76443 8.80083-10.9207 6.8094-10.8565 2.18415-10.728 3.98286-4.30406 3.66166 0L1.60599 0 1.54175-12.2055 3.46894-12.2055C3.53318-11.5631 3.4047-10.6638 3.59742-10.1499 4.30406-11.5631 5.46037-12.3983 7.51604-12.4625" fill="#3A414A" transform="matrix(1 0 0 1.00503 2680.33 1743.21)"/><path d="M6.16701-10.8565C3.59742-10.8565 3.0835-8.73659 3.0835-6.16701 3.0835-3.59742 3.66166-1.34903 6.16701-1.34903 7.70876-1.34903 8.80083-2.24839 8.92931-3.79014L10.985-3.66166C10.5995-1.28479 8.99355 0.256959 6.23125 0.256959 2.44111 0.256959 1.34903-2.37687 0.963595-6.10277 0.321198-12.0771 7.4518-14.5182 10.4068-10.2141 10.6638-9.76443 10.728-9.31475 10.8565-8.80083L8.80083-8.60811C8.54387-9.95715 7.773-10.8565 6.16701-10.8565" fill="#3A414A" transform="matrix(1 0 0 1.00503 2693.18 1743.21)"/><path d="M9.05779-2.31263C8.0942-0.963595 7.06636 0.321198 4.6895 0.256959 2.37687 0.192719 0.963595-1.09207 0.963595-3.4047 0.899355-7.51604 5.01069-7.4518 8.99355-7.4518 9.18627-9.70019 8.41539-10.9207 6.35973-10.9207 4.81797-10.8565 3.7259-10.4711 3.66166-8.92931L1.54175-9.12203C1.86295-11.4989 3.66166-12.4625 6.42397-12.4625 9.31475-12.4625 11.0492-11.1777 11.0492-8.35116L11.0492-3.0835C10.985-1.79871 11.4989-1.02783 12.8479-1.34903L12.8479-0.0642397C10.8565 0.513917 8.92931-0.192719 9.05779-2.31263ZM3.0835-3.4047C3.0835-2.11991 3.85438-1.28479 5.13917-1.28479 7.773-1.47751 9.18627-3.14774 8.99355-6.03853 6.23125-5.91005 3.0835-6.35973 3.0835-3.4047" fill="#3A414A" transform="matrix(1 0 0 1.00503 2704.74 1743.21)"/><path d="M3.79014-3.01926C3.66166-1.47751 4.94645-1.15631 6.23125-1.60599L6.23125-0.0642397C4.11134 0.578157 1.73447 0.256959 1.73447-2.56959L1.73447-10.728 0.321198-10.728 0.321198-12.2055 1.86295-12.2055 2.44111-14.9678 3.79014-14.9678 3.79014-12.2055 6.03853-12.2055 6.03853-10.728 3.79014-10.728 3.79014-3.01926" fill="#3A414A" transform="matrix(1 0 0 1.00503 2717.59 1743.21)"/><path d="M6.42397-12.4625C10.4711-12.4625 11.9486-9.76443 11.8201-5.65309L3.14774-5.65309C3.14774-3.0835 4.0471-1.34903 6.55244-1.28479 8.22268-1.22055 9.31475-2.05567 9.70019-3.14774L11.4989-2.63383C10.7923-0.835116 9.12203 0.256959 6.55244 0.256959 2.82655 0.256959 0.899355-2.11991 0.963595-6.16701 1.02783-10.0856 2.63383-12.4625 6.42397-12.4625ZM9.76443-7.25908C10.1499-11.1135 4.88221-12.2055 3.53318-9.05779 3.34046-8.60811 3.14774-7.96572 3.14774-7.25908L9.76443-7.25908" fill="#3A414A" transform="matrix(1 0 0 1.00503 2724.01 1743.21)"/><path d="M7.51604-12.4625C13.2334-12.7195 10.9207-5.01069 11.3704 0L9.31475 0 9.31475-7.773C9.31475-9.76443 8.80083-10.9207 6.8094-10.8565 2.18415-10.728 3.98286-4.30406 3.66166 0L1.60599 0 1.54175-12.2055 3.46894-12.2055C3.53318-11.5631 3.4047-10.6638 3.59742-10.1499 4.30406-11.5631 5.46037-12.3983 7.51604-12.4625" fill="#3A414A" transform="matrix(1 0 0 1.00503 2736.86 1743.21)"/><path d="M9.05779-2.31263C8.0942-0.963595 7.06636 0.321198 4.6895 0.256959 2.37687 0.192719 0.963595-1.09207 0.963595-3.4047 0.899355-7.51604 5.01069-7.4518 8.99355-7.4518 9.18627-9.70019 8.41539-10.9207 6.35973-10.9207 4.81797-10.8565 3.7259-10.4711 3.66166-8.92931L1.54175-9.12203C1.86295-11.4989 3.66166-12.4625 6.42397-12.4625 9.31475-12.4625 11.0492-11.1777 11.0492-8.35116L11.0492-3.0835C10.985-1.79871 11.4989-1.02783 12.8479-1.34903L12.8479-0.0642397C10.8565 0.513917 8.92931-0.192719 9.05779-2.31263ZM3.0835-3.4047C3.0835-2.11991 3.85438-1.28479 5.13917-1.28479 7.773-1.47751 9.18627-3.14774 8.99355-6.03853 6.23125-5.91005 3.0835-6.35973 3.0835-3.4047" fill="#3A414A" transform="matrix(1 0 0 1.00503 2749.71 1743.21)"/><path d="M3.79014-3.01926C3.66166-1.47751 4.94645-1.15631 6.23125-1.60599L6.23125-0.0642397C4.11134 0.578157 1.73447 0.256959 1.73447-2.56959L1.73447-10.728 0.321198-10.728 0.321198-12.2055 1.86295-12.2055 2.44111-14.9678 3.79014-14.9678 3.79014-12.2055 6.03853-12.2055 6.03853-10.728 3.79014-10.728 3.79014-3.01926" fill="#3A414A" transform="matrix(1 0 0 1.00503 2762.55 1743.21)"/><path d="M6.42397-12.4625C10.4711-12.4625 11.9486-9.76443 11.8201-5.65309L3.14774-5.65309C3.14774-3.0835 4.0471-1.34903 6.55244-1.28479 8.22268-1.22055 9.31475-2.05567 9.70019-3.14774L11.4989-2.63383C10.7923-0.835116 9.12203 0.256959 6.55244 0.256959 2.82655 0.256959 0.899355-2.11991 0.963595-6.16701 1.02783-10.0856 2.63383-12.4625 6.42397-12.4625ZM9.76443-7.25908C10.1499-11.1135 4.88221-12.2055 3.53318-9.05779 3.34046-8.60811 3.14774-7.96572 3.14774-7.25908L9.76443-7.25908" fill="#3A414A" transform="matrix(1 0 0 1.00503 2768.98 1743.21)"/><path d="M1.92719 0 1.92719-15.9314 13.94-15.9314 13.94-14.1327 4.0471-14.1327 4.0471-9.05779 13.2976-9.05779 13.2976-7.32332 4.0471-7.32332 4.0471-1.73447 14.4539-1.73447 14.4539 0 1.92719 0" fill="#3A414A" transform="matrix(1 0 0 1.00503 2652.16 1771.1)"/><path d="M13.4903-10.8565C9.18627-10.6638 11.0492-4.11134 10.6638 0L8.67235 0 8.67235-7.773C8.67235-9.63595 8.35116-10.985 6.42397-10.8565 2.18415-10.5995 3.98286-4.17558 3.59742 0L1.60599 0 1.54175-12.2055 3.46894-12.2055C3.53318-11.5631 3.4047-10.6638 3.59742-10.1499 4.23982-12.9764 9.95715-13.3618 10.4711-10.1499 11.1777-11.4989 12.2055-12.3983 14.197-12.4625 19.6573-12.591 17.2162-4.81797 17.7301 0L15.7387 0 15.7387-7.773C15.7387-9.63595 15.4175-10.9207 13.4903-10.8565" fill="#3A414A" transform="matrix(1 0 0 1.00503 2667.58 1771.1)"/><path d="M7.38756-12.4625C10.7923-12.4625 11.8201-9.95715 11.8843-6.16701 11.8843-1.92719 10.4068 0.256959 7.38756 0.256959 5.39613 0.192719 4.23982-0.449678 3.59742-1.92719L3.46894 0 1.47751 0 1.54175-16.7666 3.59742-16.7666 3.59742-10.2783C4.23982-11.7559 5.39613-12.4625 7.38756-12.4625ZM6.87364-1.28479C9.44323-1.28479 9.76443-3.46894 9.76443-6.10277 9.76443-8.67235 9.44323-10.9207 6.87364-10.8565 4.17558-10.8565 3.59742-8.80083 3.59742-5.97429 3.59742-3.21198 4.23982-1.28479 6.87364-1.28479" fill="#3A414A" transform="matrix(1 0 0 1.00503 2686.78 1771.1)"/><path d="M6.42397-12.4625C10.4711-12.4625 11.9486-9.76443 11.8201-5.65309L3.14774-5.65309C3.14774-3.0835 4.0471-1.34903 6.55244-1.28479 8.22268-1.22055 9.31475-2.05567 9.70019-3.14774L11.4989-2.63383C10.7923-0.835116 9.12203 0.256959 6.55244 0.256959 2.82655 0.256959 0.899355-2.11991 0.963595-6.16701 1.02783-10.0856 2.63383-12.4625 6.42397-12.4625ZM9.76443-7.25908C10.1499-11.1135 4.88221-12.2055 3.53318-9.05779 3.34046-8.60811 3.14774-7.96572 3.14774-7.25908L9.76443-7.25908" fill="#3A414A" transform="matrix(1 0 0 1.00503 2699.63 1771.1)"/><path d="M5.46037-12.4625C7.4518-12.4625 8.54387-11.6274 9.31475-10.3426L9.25051-16.7666 11.3062-16.7666 11.3704 0 9.44323 0C9.31475-0.642397 9.44323-1.47751 9.25051-1.99143 8.60811-0.513917 7.4518 0.256959 5.46037 0.256959 2.05567 0.256959 1.02783-2.24839 0.963595-6.03853 0.963595-10.2783 2.44111-12.4625 5.46037-12.4625ZM6.03853-10.9207C3.46894-10.9207 3.0835-8.73659 3.0835-6.10277 3.0835-3.53318 3.46894-1.34903 5.97429-1.34903 8.67235-1.34903 9.25051-3.4047 9.25051-6.23125 9.25051-8.92931 8.67235-10.985 6.03853-10.9207" fill="#3A414A" transform="matrix(1 0 0 1.00503 2712.48 1771.1)"/><path d="M5.46037-12.4625C7.4518-12.4625 8.54387-11.6274 9.31475-10.3426L9.25051-16.7666 11.3062-16.7666 11.3704 0 9.44323 0C9.31475-0.642397 9.44323-1.47751 9.25051-1.99143 8.60811-0.513917 7.4518 0.256959 5.46037 0.256959 2.05567 0.256959 1.02783-2.24839 0.963595-6.03853 0.963595-10.2783 2.44111-12.4625 5.46037-12.4625ZM6.03853-10.9207C3.46894-10.9207 3.0835-8.73659 3.0835-6.10277 3.0835-3.53318 3.46894-1.34903 5.97429-1.34903 8.67235-1.34903 9.25051-3.4047 9.25051-6.23125 9.25051-8.92931 8.67235-10.985 6.03853-10.9207" fill="#3A414A" transform="matrix(1 0 0 1.00503 2725.33 1771.1)"/><path d="M1.54175-14.8394 1.54175-16.7666 3.59742-16.7666 3.59742-14.8394 1.54175-14.8394ZM1.54175 0 1.54175-12.2055 3.59742-12.2055 3.59742 0 1.54175 0" fill="#3A414A" transform="matrix(1 0 0 1.00503 2738.17 1771.1)"/><path d="M7.51604-12.4625C13.2334-12.7195 10.9207-5.01069 11.3704 0L9.31475 0 9.31475-7.773C9.31475-9.76443 8.80083-10.9207 6.8094-10.8565 2.18415-10.728 3.98286-4.30406 3.66166 0L1.60599 0 1.54175-12.2055 3.46894-12.2055C3.53318-11.5631 3.4047-10.6638 3.59742-10.1499 4.30406-11.5631 5.46037-12.3983 7.51604-12.4625" fill="#3A414A" transform="matrix(1 0 0 1.00503 2743.25 1771.1)"/><path d="M11.3704-12.2055C10.728-4.17558 14.0042 6.61668 4.30406 4.56102 2.82655 4.17558 1.86295 3.27622 1.47751 1.79871L3.53318 1.47751C4.49678 4.49678 9.95715 3.53318 9.25051-0.321198L9.25051-2.24839C8.54387-0.899355 7.38756 0.0642397 5.33189 0.0642397 1.86295 0.0642397 0.963595-2.56959 0.963595-6.10277 0.963595-9.70019 1.99143-12.334 5.52461-12.3983 7.38756-12.4625 8.60811-11.3704 9.31475-10.1499 9.37899-10.7923 9.31475-11.6274 9.44323-12.2055L11.3704-12.2055ZM6.03853-1.41327C8.35116-1.41327 9.25051-3.46894 9.25051-6.10277 9.25051-8.80083 8.35116-10.9207 6.03853-10.9207 3.53318-10.9207 3.0835-8.73659 3.0835-6.10277 3.0835-3.46894 3.46894-1.41327 6.03853-1.41327" fill="#3A414A" transform="matrix(1 0 0 1.00503 2756.1 1771.1)"/><path d="M8.67235-9.18627C8.47964-11.3704 3.14774-11.6274 3.0835-9.18627 4.0471-5.78157 10.4711-8.41539 10.728-3.4047 10.985 1.60599 1.09207 1.34903 0.642397-2.89078L2.44111-3.21198C2.69807-0.899355 8.67235-0.321198 8.73659-3.21198 8.0942-6.8094 1.47751-4.17558 1.15631-8.99355 0.899355-12.6552 6.42397-13.0407 8.99355-11.6916 9.76443-11.2419 10.3426-10.4711 10.5353-9.44323" fill="#3A414A" transform="matrix(1 0 0 1.00503 2768.95 1771.1)"/><path d="M-379.745-799.931-314.515-799.931C-311.066-799.931-308.271-797.136-308.271-793.687L-308.271-661.874C-308.271-658.425-305.476-655.63-302.027-655.63L-253.323-655.63" stroke="#3A414A" stroke-width="1.04068" fill="none" transform="matrix(1 0 0 1.00503 2899.38 2465.12)"/><path d="M-379.724-799.431-380.245-799.431-380.245-800.42-379.724-800.42Z" stroke="#3A414A" stroke-width="0.0520341" fill="#3A414A" transform="matrix(1 0 0 1.00503 2899.38 2465.12)"/><path d="M-237.962-655.63-252.803-650.812-252.803-660.448Z" stroke="#3A414A" stroke-width="1.04068" fill="#3A414A" transform="matrix(1 0 0 1.00503 2899.38 2465.12)"/><path d="M-379.745-588.298-314.515-588.298C-311.066-588.298-308.271-591.093-308.271-594.542L-308.271-649.386C-308.271-652.835-305.476-655.63-302.027-655.63L-253.323-655.63" stroke="#3A414A" stroke-width="1.04068" fill="none" transform="matrix(1 0 0 1.00503 2899.38 2465.12)"/><path d="M-379.724-587.798-380.245-587.798-380.245-588.787-379.724-588.787Z" stroke="#3A414A" stroke-width="0.0520341" fill="#3A414A" transform="matrix(1 0 0 1.00503 2899.38 2465.12)"/><path d="M-237.962-655.63-252.803-650.812-252.803-660.448Z" stroke="#3A414A" stroke-width="1.04068" fill="#3A414A" transform="matrix(1 0 0 1.00503 2899.38 2465.12)"/><path d="M-129.305-655.63-55.4476-655.63" stroke="#3A414A" stroke-width="1.04068" fill="none" transform="matrix(1 0 0 1.00503 2899.38 2465.12)"/><path d="M-129.294-655.13-130.096-655.13-129.575-656.129-129.305-656.129Z" stroke="#3A414A" stroke-width="0.0520341" fill="#3A414A" transform="matrix(1 0 0 1.00503 2899.38 2465.12)"/><path d="M-40.0663-655.63-54.9272-650.812-54.9272-660.448Z" stroke="#3A414A" stroke-width="1.04068" fill="#3A414A" transform="matrix(1 0 0 1.00503 2899.38 2465.12)"/><path d="M-37.3605-711.827C-37.3605-715.276-34.5649-718.071-31.1164-718.071L122.905-718.071C126.353-718.071 129.149-715.276 129.149-711.827L129.149-599.433C129.149-595.984 126.353-593.189 122.905-593.189L-31.1164-593.189C-34.5649-593.189-37.3605-595.984-37.3605-599.433Z" stroke="#282C33" stroke-width="2.08136" fill="#FFFFFF" transform="matrix(1 0 0 1.00503 2899.38 2465.12)"/><path d="M1.92719 0 1.92719-15.9314 4.0471-15.9314 4.0471-1.73447 12.0771-1.73447 12.0771 0 1.92719 0" fill="#3A414A" transform="matrix(1 0 0 1.00503 2876 1812.24)"/><path d="M1.92719 0 1.92719-15.9314 4.0471-15.9314 4.0471-1.73447 12.0771-1.73447 12.0771 0 1.92719 0" fill="#3A414A" transform="matrix(1 0 0 1.00503 2888.84 1812.24)"/><path d="M15.4175 0 15.546-14.0042C14.0685-9.12203 12.0771-4.6895 10.4068 0L8.92931 0 3.7259-14.0042 3.79014 0 1.92719 0 1.92719-15.9314 4.75373-15.9314 9.70019-2.37687C11.0492-7.19484 12.9764-11.3704 14.5824-15.9314L17.3447-15.9314 17.3447 0 15.4175 0" fill="#3A414A" transform="matrix(1 0 0 1.00503 2901.69 1812.24)"/><path d="M1.92719-15.9314C9.50747-16.3811 15.803-15.4175 15.6102-8.0942 15.4175-3.0835 12.8479 0 7.83724 0L1.92719 0 1.92719-15.9314ZM4.0471-1.73447C9.76443-1.22055 13.4261-2.76231 13.4261-8.0942 13.4261-13.4261 9.57171-14.5824 4.0471-14.197L4.0471-1.73447" fill="#3A414A" transform="matrix(1 0 0 1.00503 2927.32 1812.24)"/><path d="M6.42397-12.4625C10.4711-12.4625 11.9486-9.76443 11.8201-5.65309L3.14774-5.65309C3.14774-3.0835 4.0471-1.34903 6.55244-1.28479 8.22268-1.22055 9.31475-2.05567 9.70019-3.14774L11.4989-2.63383C10.7923-0.835116 9.12203 0.256959 6.55244 0.256959 2.82655 0.256959 0.899355-2.11991 0.963595-6.16701 1.02783-10.0856 2.63383-12.4625 6.42397-12.4625ZM9.76443-7.25908C10.1499-11.1135 4.88221-12.2055 3.53318-9.05779 3.34046-8.60811 3.14774-7.96572 3.14774-7.25908L9.76443-7.25908" fill="#3A414A" transform="matrix(1 0 0 1.00503 2943.96 1812.24)"/><path d="M6.16701-10.8565C3.59742-10.8565 3.0835-8.73659 3.0835-6.16701 3.0835-3.59742 3.66166-1.34903 6.16701-1.34903 7.70876-1.34903 8.80083-2.24839 8.92931-3.79014L10.985-3.66166C10.5995-1.28479 8.99355 0.256959 6.23125 0.256959 2.44111 0.256959 1.34903-2.37687 0.963595-6.10277 0.321198-12.0771 7.4518-14.5182 10.4068-10.2141 10.6638-9.76443 10.728-9.31475 10.8565-8.80083L8.80083-8.60811C8.54387-9.95715 7.773-10.8565 6.16701-10.8565" fill="#3A414A" transform="matrix(1 0 0 1.00503 2956.81 1812.24)"/><path d="M6.42397-12.4625C10.4068-12.5267 11.8843-10.0856 11.8843-6.10277 11.9486-2.05567 10.1499 0.256959 6.35973 0.256959 2.56959 0.256959 1.02783-2.24839 0.963595-6.10277 0.963595-10.3426 2.76231-12.4625 6.42397-12.4625ZM6.35973-1.28479C9.18627-1.22055 9.76443-3.27622 9.76443-6.10277 9.76443-8.86507 9.25051-10.9207 6.48821-10.9207 3.7259-10.9207 3.0835-8.86507 3.0835-6.10277 3.0835-3.34046 3.7259-1.34903 6.35973-1.28479" fill="#3A414A" transform="matrix(1 0 0 1.00503 2968.37 1812.24)"/><path d="M5.46037-12.4625C7.4518-12.4625 8.54387-11.6274 9.31475-10.3426L9.25051-16.7666 11.3062-16.7666 11.3704 0 9.44323 0C9.31475-0.642397 9.44323-1.47751 9.25051-1.99143 8.60811-0.513917 7.4518 0.256959 5.46037 0.256959 2.05567 0.256959 1.02783-2.24839 0.963595-6.03853 0.963595-10.2783 2.44111-12.4625 5.46037-12.4625ZM6.03853-10.9207C3.46894-10.9207 3.0835-8.73659 3.0835-6.10277 3.0835-3.53318 3.46894-1.34903 5.97429-1.34903 8.67235-1.34903 9.25051-3.4047 9.25051-6.23125 9.25051-8.92931 8.67235-10.985 6.03853-10.9207" fill="#3A414A" transform="matrix(1 0 0 1.00503 2981.22 1812.24)"/><path d="M6.42397-12.4625C10.4711-12.4625 11.9486-9.76443 11.8201-5.65309L3.14774-5.65309C3.14774-3.0835 4.0471-1.34903 6.55244-1.28479 8.22268-1.22055 9.31475-2.05567 9.70019-3.14774L11.4989-2.63383C10.7923-0.835116 9.12203 0.256959 6.55244 0.256959 2.82655 0.256959 0.899355-2.11991 0.963595-6.16701 1.02783-10.0856 2.63383-12.4625 6.42397-12.4625ZM9.76443-7.25908C10.1499-11.1135 4.88221-12.2055 3.53318-9.05779 3.34046-8.60811 3.14774-7.96572 3.14774-7.25908L9.76443-7.25908" fill="#3A414A" transform="matrix(1 0 0 1.00503 2994.07 1812.24)"/><path d="M7.32332-10.4711C2.31263-11.4989 3.91862-4.62526 3.66166 0L1.60599 0 1.54175-12.2055 3.46894-12.2055C3.53318-11.4347 3.4047-10.3426 3.59742-9.70019 3.98286-11.4347 5.07493-12.8479 7.32332-12.334L7.32332-10.4711" fill="#3A414A" transform="matrix(1 0 0 1.00503 3006.92 1812.24)"/><path d="M130.71-655.63 231.76-655.63" stroke="#3A414A" stroke-width="1.04068" fill="none" transform="matrix(1 0 0 1.00503 2899.38 2465.12)"/><path d="M130.731-655.13 130.21-655.13 130.21-656.129 130.731-656.129Z" stroke="#3A414A" stroke-width="0.0520341" fill="#3A414A" transform="matrix(1 0 0 1.00503 2899.38 2465.12)"/><path d="M247.11-655.63 232.27-650.812 232.27-660.448Z" stroke="#3A414A" stroke-width="1.04068" fill="#3A414A" transform="matrix(1 0 0 1.00503 2899.38 2465.12)"/><path d="M264.916-712.035C265.861-715.597 269.087-718.076 272.773-718.071L393.492-718.071C396.136-718.082 398.289-715.948 398.299-713.304 398.301-712.876 398.245-712.448 398.134-712.035L368.058-599.225C367.113-595.663 363.887-593.184 360.201-593.189L239.482-593.189C236.837-593.184 234.691-595.322 234.685-597.967 234.684-598.391 234.739-598.815 234.851-599.225Z" stroke="#282C33" stroke-width="2.08136" fill="#FFFFFF" transform="matrix(1 0 0 1.00503 2899.38 2465.12)"/><path d="M12.2055 0 3.7259-13.5546 3.79014 0 1.92719 0 1.92719-15.9314 4.43254-15.9314 12.9764-2.24839 12.8479-15.9314 14.8394-15.9314 14.8394 0 12.2055 0" fill="#3A414A" transform="matrix(1 0 0 1.00503 3185.46 1784)"/><path d="M9.05779-2.31263C8.0942-0.963595 7.06636 0.321198 4.6895 0.256959 2.37687 0.192719 0.963595-1.09207 0.963595-3.4047 0.899355-7.51604 5.01069-7.4518 8.99355-7.4518 9.18627-9.70019 8.41539-10.9207 6.35973-10.9207 4.81797-10.8565 3.7259-10.4711 3.66166-8.92931L1.54175-9.12203C1.86295-11.4989 3.66166-12.4625 6.42397-12.4625 9.31475-12.4625 11.0492-11.1777 11.0492-8.35116L11.0492-3.0835C10.985-1.79871 11.4989-1.02783 12.8479-1.34903L12.8479-0.0642397C10.8565 0.513917 8.92931-0.192719 9.05779-2.31263ZM3.0835-3.4047C3.0835-2.11991 3.85438-1.28479 5.13917-1.28479 7.773-1.47751 9.18627-3.14774 8.99355-6.03853 6.23125-5.91005 3.0835-6.35973 3.0835-3.4047" fill="#3A414A" transform="matrix(1 0 0 1.00503 3202.1 1784)"/><path d="M3.79014-3.01926C3.66166-1.47751 4.94645-1.15631 6.23125-1.60599L6.23125-0.0642397C4.11134 0.578157 1.73447 0.256959 1.73447-2.56959L1.73447-10.728 0.321198-10.728 0.321198-12.2055 1.86295-12.2055 2.44111-14.9678 3.79014-14.9678 3.79014-12.2055 6.03853-12.2055 6.03853-10.728 3.79014-10.728 3.79014-3.01926" fill="#3A414A" transform="matrix(1 0 0 1.00503 3214.95 1784)"/><path d="M5.39613 0.256959C-0.321198 0.513917 1.92719-7.19484 1.47751-12.2055L3.53318-12.2055 3.53318-4.49678C3.53318-2.50535 3.98286-1.28479 6.03853-1.34903 10.6638-1.47751 8.92931-7.83724 9.25051-12.2055L11.2419-12.2055 11.3062 0 9.37899 0C9.31475-0.642397 9.44323-1.60599 9.25051-2.11991 8.54387-0.706636 7.4518 0.192719 5.39613 0.256959" fill="#3A414A" transform="matrix(1 0 0 1.00503 3221.37 1784)"/><path d="M7.32332-10.4711C2.31263-11.4989 3.91862-4.62526 3.66166 0L1.60599 0 1.54175-12.2055 3.46894-12.2055C3.53318-11.4347 3.4047-10.3426 3.59742-9.70019 3.98286-11.4347 5.07493-12.8479 7.32332-12.334L7.32332-10.4711" fill="#3A414A" transform="matrix(1 0 0 1.00503 3234.22 1784)"/><path d="M9.05779-2.31263C8.0942-0.963595 7.06636 0.321198 4.6895 0.256959 2.37687 0.192719 0.963595-1.09207 0.963595-3.4047 0.899355-7.51604 5.01069-7.4518 8.99355-7.4518 9.18627-9.70019 8.41539-10.9207 6.35973-10.9207 4.81797-10.8565 3.7259-10.4711 3.66166-8.92931L1.54175-9.12203C1.86295-11.4989 3.66166-12.4625 6.42397-12.4625 9.31475-12.4625 11.0492-11.1777 11.0492-8.35116L11.0492-3.0835C10.985-1.79871 11.4989-1.02783 12.8479-1.34903L12.8479-0.0642397C10.8565 0.513917 8.92931-0.192719 9.05779-2.31263ZM3.0835-3.4047C3.0835-2.11991 3.85438-1.28479 5.13917-1.28479 7.773-1.47751 9.18627-3.14774 8.99355-6.03853 6.23125-5.91005 3.0835-6.35973 3.0835-3.4047" fill="#3A414A" transform="matrix(1 0 0 1.00503 3241.86 1784)"/><path d="M1.54175 0 1.54175-16.7666 3.59742-16.7666 3.59742 0 1.54175 0" fill="#3A414A" transform="matrix(1 0 0 1.00503 3254.71 1784)"/><path d="M1.92719 0 1.92719-15.9314 4.0471-15.9314 4.0471-1.73447 12.0771-1.73447 12.0771 0 1.92719 0" fill="#3A414A" transform="matrix(1 0 0 1.00503 3163.95 1811.89)"/><path d="M9.05779-2.31263C8.0942-0.963595 7.06636 0.321198 4.6895 0.256959 2.37687 0.192719 0.963595-1.09207 0.963595-3.4047 0.899355-7.51604 5.01069-7.4518 8.99355-7.4518 9.18627-9.70019 8.41539-10.9207 6.35973-10.9207 4.81797-10.8565 3.7259-10.4711 3.66166-8.92931L1.54175-9.12203C1.86295-11.4989 3.66166-12.4625 6.42397-12.4625 9.31475-12.4625 11.0492-11.1777 11.0492-8.35116L11.0492-3.0835C10.985-1.79871 11.4989-1.02783 12.8479-1.34903L12.8479-0.0642397C10.8565 0.513917 8.92931-0.192719 9.05779-2.31263ZM3.0835-3.4047C3.0835-2.11991 3.85438-1.28479 5.13917-1.28479 7.773-1.47751 9.18627-3.14774 8.99355-6.03853 6.23125-5.91005 3.0835-6.35973 3.0835-3.4047" fill="#3A414A" transform="matrix(1 0 0 1.00503 3176.8 1811.89)"/><path d="M7.51604-12.4625C13.2334-12.7195 10.9207-5.01069 11.3704 0L9.31475 0 9.31475-7.773C9.31475-9.76443 8.80083-10.9207 6.8094-10.8565 2.18415-10.728 3.98286-4.30406 3.66166 0L1.60599 0 1.54175-12.2055 3.46894-12.2055C3.53318-11.5631 3.4047-10.6638 3.59742-10.1499 4.30406-11.5631 5.46037-12.3983 7.51604-12.4625" fill="#3A414A" transform="matrix(1 0 0 1.00503 3189.64 1811.89)"/><path d="M11.3704-12.2055C10.728-4.17558 14.0042 6.61668 4.30406 4.56102 2.82655 4.17558 1.86295 3.27622 1.47751 1.79871L3.53318 1.47751C4.49678 4.49678 9.95715 3.53318 9.25051-0.321198L9.25051-2.24839C8.54387-0.899355 7.38756 0.0642397 5.33189 0.0642397 1.86295 0.0642397 0.963595-2.56959 0.963595-6.10277 0.963595-9.70019 1.99143-12.334 5.52461-12.3983 7.38756-12.4625 8.60811-11.3704 9.31475-10.1499 9.37899-10.7923 9.31475-11.6274 9.44323-12.2055L11.3704-12.2055ZM6.03853-1.41327C8.35116-1.41327 9.25051-3.46894 9.25051-6.10277 9.25051-8.80083 8.35116-10.9207 6.03853-10.9207 3.53318-10.9207 3.0835-8.73659 3.0835-6.10277 3.0835-3.46894 3.46894-1.41327 6.03853-1.41327" fill="#3A414A" transform="matrix(1 0 0 1.00503 3202.49 1811.89)"/><path d="M5.39613 0.256959C-0.321198 0.513917 1.92719-7.19484 1.47751-12.2055L3.53318-12.2055 3.53318-4.49678C3.53318-2.50535 3.98286-1.28479 6.03853-1.34903 10.6638-1.47751 8.92931-7.83724 9.25051-12.2055L11.2419-12.2055 11.3062 0 9.37899 0C9.31475-0.642397 9.44323-1.60599 9.25051-2.11991 8.54387-0.706636 7.4518 0.192719 5.39613 0.256959" fill="#3A414A" transform="matrix(1 0 0 1.00503 3215.34 1811.89)"/><path d="M9.05779-2.31263C8.0942-0.963595 7.06636 0.321198 4.6895 0.256959 2.37687 0.192719 0.963595-1.09207 0.963595-3.4047 0.899355-7.51604 5.01069-7.4518 8.99355-7.4518 9.18627-9.70019 8.41539-10.9207 6.35973-10.9207 4.81797-10.8565 3.7259-10.4711 3.66166-8.92931L1.54175-9.12203C1.86295-11.4989 3.66166-12.4625 6.42397-12.4625 9.31475-12.4625 11.0492-11.1777 11.0492-8.35116L11.0492-3.0835C10.985-1.79871 11.4989-1.02783 12.8479-1.34903L12.8479-0.0642397C10.8565 0.513917 8.92931-0.192719 9.05779-2.31263ZM3.0835-3.4047C3.0835-2.11991 3.85438-1.28479 5.13917-1.28479 7.773-1.47751 9.18627-3.14774 8.99355-6.03853 6.23125-5.91005 3.0835-6.35973 3.0835-3.4047" fill="#3A414A" transform="matrix(1 0 0 1.00503 3228.19 1811.89)"/><path d="M11.3704-12.2055C10.728-4.17558 14.0042 6.61668 4.30406 4.56102 2.82655 4.17558 1.86295 3.27622 1.47751 1.79871L3.53318 1.47751C4.49678 4.49678 9.95715 3.53318 9.25051-0.321198L9.25051-2.24839C8.54387-0.899355 7.38756 0.0642397 5.33189 0.0642397 1.86295 0.0642397 0.963595-2.56959 0.963595-6.10277 0.963595-9.70019 1.99143-12.334 5.52461-12.3983 7.38756-12.4625 8.60811-11.3704 9.31475-10.1499 9.37899-10.7923 9.31475-11.6274 9.44323-12.2055L11.3704-12.2055ZM6.03853-1.41327C8.35116-1.41327 9.25051-3.46894 9.25051-6.10277 9.25051-8.80083 8.35116-10.9207 6.03853-10.9207 3.53318-10.9207 3.0835-8.73659 3.0835-6.10277 3.0835-3.46894 3.46894-1.41327 6.03853-1.41327" fill="#3A414A" transform="matrix(1 0 0 1.00503 3241.04 1811.89)"/><path d="M6.42397-12.4625C10.4711-12.4625 11.9486-9.76443 11.8201-5.65309L3.14774-5.65309C3.14774-3.0835 4.0471-1.34903 6.55244-1.28479 8.22268-1.22055 9.31475-2.05567 9.70019-3.14774L11.4989-2.63383C10.7923-0.835116 9.12203 0.256959 6.55244 0.256959 2.82655 0.256959 0.899355-2.11991 0.963595-6.16701 1.02783-10.0856 2.63383-12.4625 6.42397-12.4625ZM9.76443-7.25908C10.1499-11.1135 4.88221-12.2055 3.53318-9.05779 3.34046-8.60811 3.14774-7.96572 3.14774-7.25908L9.76443-7.25908" fill="#3A414A" transform="matrix(1 0 0 1.00503 3253.88 1811.89)"/><path d="M14.9678-11.3704C14.9036-8.73659 13.4903-7.25908 11.1135-6.87364L15.6102 0 13.1691 0 8.99355-6.61668 4.0471-6.61668 4.0471 0 1.92719 0 1.92719-15.9314C7.58028-15.7387 15.0963-17.2805 14.9678-11.3704ZM4.0471-8.28692C7.90148-8.41539 12.8479-7.4518 12.8479-11.3062 12.8479-15.2248 7.70876-14.0042 4.0471-14.197L4.0471-8.28692" fill="#3A414A" transform="matrix(1 0 0 1.00503 3156.05 1839.78)"/><path d="M6.42397-12.4625C10.4711-12.4625 11.9486-9.76443 11.8201-5.65309L3.14774-5.65309C3.14774-3.0835 4.0471-1.34903 6.55244-1.28479 8.22268-1.22055 9.31475-2.05567 9.70019-3.14774L11.4989-2.63383C10.7923-0.835116 9.12203 0.256959 6.55244 0.256959 2.82655 0.256959 0.899355-2.11991 0.963595-6.16701 1.02783-10.0856 2.63383-12.4625 6.42397-12.4625ZM9.76443-7.25908C10.1499-11.1135 4.88221-12.2055 3.53318-9.05779 3.34046-8.60811 3.14774-7.96572 3.14774-7.25908L9.76443-7.25908" fill="#3A414A" transform="matrix(1 0 0 1.00503 3172.69 1839.78)"/><path d="M8.67235-9.18627C8.47964-11.3704 3.14774-11.6274 3.0835-9.18627 4.0471-5.78157 10.4711-8.41539 10.728-3.4047 10.985 1.60599 1.09207 1.34903 0.642397-2.89078L2.44111-3.21198C2.69807-0.899355 8.67235-0.321198 8.73659-3.21198 8.0942-6.8094 1.47751-4.17558 1.15631-8.99355 0.899355-12.6552 6.42397-13.0407 8.99355-11.6916 9.76443-11.2419 10.3426-10.4711 10.5353-9.44323" fill="#3A414A" transform="matrix(1 0 0 1.00503 3185.53 1839.78)"/><path d="M7.38756-12.4625C10.9207-12.3983 11.8843-9.82867 11.8843-6.16701 11.8843-2.50535 10.8565 0.128479 7.38756 0.256959 5.39613 0.256959 4.23982-0.578157 3.53318-1.92719L3.59742 4.81797 1.54175 4.81797 1.47751-12.2055 3.46894-12.2055 3.59742-10.2783C4.23982-11.6274 5.39613-12.4625 7.38756-12.4625ZM6.87364-1.28479C9.44323-1.28479 9.76443-3.46894 9.76443-6.10277 9.76443-8.73659 9.37899-10.7923 6.87364-10.8565 4.17558-10.8565 3.59742-8.80083 3.59742-5.97429 3.59742-3.21198 4.23982-1.28479 6.87364-1.28479" fill="#3A414A" transform="matrix(1 0 0 1.00503 3197.1 1839.78)"/><path d="M6.42397-12.4625C10.4068-12.5267 11.8843-10.0856 11.8843-6.10277 11.9486-2.05567 10.1499 0.256959 6.35973 0.256959 2.56959 0.256959 1.02783-2.24839 0.963595-6.10277 0.963595-10.3426 2.76231-12.4625 6.42397-12.4625ZM6.35973-1.28479C9.18627-1.22055 9.76443-3.27622 9.76443-6.10277 9.76443-8.86507 9.25051-10.9207 6.48821-10.9207 3.7259-10.9207 3.0835-8.86507 3.0835-6.10277 3.0835-3.34046 3.7259-1.34903 6.35973-1.28479" fill="#3A414A" transform="matrix(1 0 0 1.00503 3209.95 1839.78)"/><path d="M7.51604-12.4625C13.2334-12.7195 10.9207-5.01069 11.3704 0L9.31475 0 9.31475-7.773C9.31475-9.76443 8.80083-10.9207 6.8094-10.8565 2.18415-10.728 3.98286-4.30406 3.66166 0L1.60599 0 1.54175-12.2055 3.46894-12.2055C3.53318-11.5631 3.4047-10.6638 3.59742-10.1499 4.30406-11.5631 5.46037-12.3983 7.51604-12.4625" fill="#3A414A" transform="matrix(1 0 0 1.00503 3222.79 1839.78)"/><path d="M8.67235-9.18627C8.47964-11.3704 3.14774-11.6274 3.0835-9.18627 4.0471-5.78157 10.4711-8.41539 10.728-3.4047 10.985 1.60599 1.09207 1.34903 0.642397-2.89078L2.44111-3.21198C2.69807-0.899355 8.67235-0.321198 8.73659-3.21198 8.0942-6.8094 1.47751-4.17558 1.15631-8.99355 0.899355-12.6552 6.42397-13.0407 8.99355-11.6916 9.76443-11.2419 10.3426-10.4711 10.5353-9.44323" fill="#3A414A" transform="matrix(1 0 0 1.00503 3235.64 1839.78)"/><path d="M6.42397-12.4625C10.4711-12.4625 11.9486-9.76443 11.8201-5.65309L3.14774-5.65309C3.14774-3.0835 4.0471-1.34903 6.55244-1.28479 8.22268-1.22055 9.31475-2.05567 9.70019-3.14774L11.4989-2.63383C10.7923-0.835116 9.12203 0.256959 6.55244 0.256959 2.82655 0.256959 0.899355-2.11991 0.963595-6.16701 1.02783-10.0856 2.63383-12.4625 6.42397-12.4625ZM9.76443-7.25908C10.1499-11.1135 4.88221-12.2055 3.53318-9.05779 3.34046-8.60811 3.14774-7.96572 3.14774-7.25908L9.76443-7.25908" fill="#3A414A" transform="matrix(1 0 0 1.00503 3247.2 1839.78)"/><path d="M-707.477-1104.68-707.477-1172.88C-707.477-1172.9-707.49-1172.91-707.508-1172.91-707.524-1172.9-707.542-1172.91-707.55-1172.92-707.554-1172.93-707.554-1172.94-707.55-1172.95L-707.55-1224.61" stroke="#3A414A" stroke-width="1.04068" fill="none" transform="matrix(1 0 0 1.00503 2899.38 2465.12)"/><path d="M-706.988-1104.16-707.976-1104.16-707.976-1104.68-706.988-1104.68Z" stroke="#3A414A" stroke-width="0.0520341" fill="#3A414A" transform="matrix(1 0 0 1.00503 2899.38 2465.12)"/><path d="M-707.56-1239.97-702.721-1225.13-712.368-1225.13Z" stroke="#3A414A" stroke-width="1.04068" fill="#3A414A" transform="matrix(1 0 0 1.00503 2899.38 2465.12)"/><path d="M-832.546-1225.51-832.546-1165.11-832.525-1165.09-832.525-1121.21M-832.546-1225.51-832.546-1226.03" stroke="#3A414A" stroke-width="1.04068" fill="none" transform="matrix(1 0 0 1.00503 2899.38 2465.12)"/><path d="M-832.525-1105.85-837.354-1120.69-827.707-1120.69Z" stroke="#3A414A" stroke-width="1.04068" fill="#3A414A" transform="matrix(1 0 0 1.00503 2899.38 2465.12)"/><path d="M-770.001-976.68-770.001-892.26" stroke="#3A414A" stroke-width="1.04068" fill="none" transform="matrix(1 0 0 1.00503 2899.38 2465.12)"/><path d="M-769.512-976.68-770.5-976.68-770.5-977.201-769.512-977.201Z" stroke="#3A414A" stroke-width="0.0520341" fill="#3A414A" transform="matrix(1 0 0 1.00503 2899.38 2465.12)"/><path d="M-770.001-876.9-774.83-891.74-765.183-891.74Z" stroke="#3A414A" stroke-width="1.04068" fill="#3A414A" transform="matrix(1 0 0 1.00503 2899.38 2465.12)"/><path d="M-821.567-868.137C-820.622-871.7-817.396-874.178-813.71-874.173L-692.99-874.173C-690.346-874.178-688.199-872.04-688.194-869.395-688.193-868.971-688.249-868.547-688.359-868.137L-718.435-755.327C-719.38-751.765-722.606-749.286-726.292-749.291L-847.011-749.291C-849.655-749.28-851.808-751.414-851.818-754.059-851.82-754.486-851.764-754.914-851.653-755.327Z" stroke="#282C33" stroke-width="2.08136" fill="#FFFFFF" transform="matrix(1 0 0 1.00503 2899.38 2465.12)"/><path d="M14.9678-11.3704C14.9036-8.73659 13.4903-7.25908 11.1135-6.87364L15.6102 0 13.1691 0 8.99355-6.61668 4.0471-6.61668 4.0471 0 1.92719 0 1.92719-15.9314C7.58028-15.7387 15.0963-17.2805 14.9678-11.3704ZM4.0471-8.28692C7.90148-8.41539 12.8479-7.4518 12.8479-11.3062 12.8479-15.2248 7.70876-14.0042 4.0471-14.197L4.0471-8.28692" fill="#3A414A" transform="matrix(1 0 0 1.00503 2086.78 1627.11)"/><path d="M6.42397-12.4625C10.4711-12.4625 11.9486-9.76443 11.8201-5.65309L3.14774-5.65309C3.14774-3.0835 4.0471-1.34903 6.55244-1.28479 8.22268-1.22055 9.31475-2.05567 9.70019-3.14774L11.4989-2.63383C10.7923-0.835116 9.12203 0.256959 6.55244 0.256959 2.82655 0.256959 0.899355-2.11991 0.963595-6.16701 1.02783-10.0856 2.63383-12.4625 6.42397-12.4625ZM9.76443-7.25908C10.1499-11.1135 4.88221-12.2055 3.53318-9.05779 3.34046-8.60811 3.14774-7.96572 3.14774-7.25908L9.76443-7.25908" fill="#3A414A" transform="matrix(1 0 0 1.00503 2103.42 1627.11)"/><path d="M3.79014-3.01926C3.66166-1.47751 4.94645-1.15631 6.23125-1.60599L6.23125-0.0642397C4.11134 0.578157 1.73447 0.256959 1.73447-2.56959L1.73447-10.728 0.321198-10.728 0.321198-12.2055 1.86295-12.2055 2.44111-14.9678 3.79014-14.9678 3.79014-12.2055 6.03853-12.2055 6.03853-10.728 3.79014-10.728 3.79014-3.01926" fill="#3A414A" transform="matrix(1 0 0 1.00503 2116.26 1627.11)"/><path d="M7.32332-10.4711C2.31263-11.4989 3.91862-4.62526 3.66166 0L1.60599 0 1.54175-12.2055 3.46894-12.2055C3.53318-11.4347 3.4047-10.3426 3.59742-9.70019 3.98286-11.4347 5.07493-12.8479 7.32332-12.334L7.32332-10.4711" fill="#3A414A" transform="matrix(1 0 0 1.00503 2122.69 1627.11)"/><path d="M1.54175-14.8394 1.54175-16.7666 3.59742-16.7666 3.59742-14.8394 1.54175-14.8394ZM1.54175 0 1.54175-12.2055 3.59742-12.2055 3.59742 0 1.54175 0" fill="#3A414A" transform="matrix(1 0 0 1.00503 2130.33 1627.11)"/><path d="M6.42397-12.4625C10.4711-12.4625 11.9486-9.76443 11.8201-5.65309L3.14774-5.65309C3.14774-3.0835 4.0471-1.34903 6.55244-1.28479 8.22268-1.22055 9.31475-2.05567 9.70019-3.14774L11.4989-2.63383C10.7923-0.835116 9.12203 0.256959 6.55244 0.256959 2.82655 0.256959 0.899355-2.11991 0.963595-6.16701 1.02783-10.0856 2.63383-12.4625 6.42397-12.4625ZM9.76443-7.25908C10.1499-11.1135 4.88221-12.2055 3.53318-9.05779 3.34046-8.60811 3.14774-7.96572 3.14774-7.25908L9.76443-7.25908" fill="#3A414A" transform="matrix(1 0 0 1.00503 2135.41 1627.11)"/><path d="M6.93788 0 4.49678 0 0.0642397-12.2055 2.24839-12.2055 5.71733-1.60599 9.31475-12.2055 11.4989-12.2055" fill="#3A414A" transform="matrix(1 0 0 1.00503 2148.26 1627.11)"/><path d="M6.42397-12.4625C10.4711-12.4625 11.9486-9.76443 11.8201-5.65309L3.14774-5.65309C3.14774-3.0835 4.0471-1.34903 6.55244-1.28479 8.22268-1.22055 9.31475-2.05567 9.70019-3.14774L11.4989-2.63383C10.7923-0.835116 9.12203 0.256959 6.55244 0.256959 2.82655 0.256959 0.899355-2.11991 0.963595-6.16701 1.02783-10.0856 2.63383-12.4625 6.42397-12.4625ZM9.76443-7.25908C10.1499-11.1135 4.88221-12.2055 3.53318-9.05779 3.34046-8.60811 3.14774-7.96572 3.14774-7.25908L9.76443-7.25908" fill="#3A414A" transform="matrix(1 0 0 1.00503 2159.82 1627.11)"/><path d="M5.46037-12.4625C7.4518-12.4625 8.54387-11.6274 9.31475-10.3426L9.25051-16.7666 11.3062-16.7666 11.3704 0 9.44323 0C9.31475-0.642397 9.44323-1.47751 9.25051-1.99143 8.60811-0.513917 7.4518 0.256959 5.46037 0.256959 2.05567 0.256959 1.02783-2.24839 0.963595-6.03853 0.963595-10.2783 2.44111-12.4625 5.46037-12.4625ZM6.03853-10.9207C3.46894-10.9207 3.0835-8.73659 3.0835-6.10277 3.0835-3.53318 3.46894-1.34903 5.97429-1.34903 8.67235-1.34903 9.25051-3.4047 9.25051-6.23125 9.25051-8.92931 8.67235-10.985 6.03853-10.9207" fill="#3A414A" transform="matrix(1 0 0 1.00503 2172.67 1627.11)"/><path d="M12.2055 0 3.7259-13.5546 3.79014 0 1.92719 0 1.92719-15.9314 4.43254-15.9314 12.9764-2.24839 12.8479-15.9314 14.8394-15.9314 14.8394 0 12.2055 0" fill="#3A414A" transform="matrix(1 0 0 1.00503 2071.08 1655)"/><path d="M6.42397-12.4625C10.4068-12.5267 11.8843-10.0856 11.8843-6.10277 11.9486-2.05567 10.1499 0.256959 6.35973 0.256959 2.56959 0.256959 1.02783-2.24839 0.963595-6.10277 0.963595-10.3426 2.76231-12.4625 6.42397-12.4625ZM6.35973-1.28479C9.18627-1.22055 9.76443-3.27622 9.76443-6.10277 9.76443-8.86507 9.25051-10.9207 6.48821-10.9207 3.7259-10.9207 3.0835-8.86507 3.0835-6.10277 3.0835-3.34046 3.7259-1.34903 6.35973-1.28479" fill="#3A414A" transform="matrix(1 0 0 1.00503 2087.72 1655)"/><path d="M5.46037-12.4625C7.4518-12.4625 8.54387-11.6274 9.31475-10.3426L9.25051-16.7666 11.3062-16.7666 11.3704 0 9.44323 0C9.31475-0.642397 9.44323-1.47751 9.25051-1.99143 8.60811-0.513917 7.4518 0.256959 5.46037 0.256959 2.05567 0.256959 1.02783-2.24839 0.963595-6.03853 0.963595-10.2783 2.44111-12.4625 5.46037-12.4625ZM6.03853-10.9207C3.46894-10.9207 3.0835-8.73659 3.0835-6.10277 3.0835-3.53318 3.46894-1.34903 5.97429-1.34903 8.67235-1.34903 9.25051-3.4047 9.25051-6.23125 9.25051-8.92931 8.67235-10.985 6.03853-10.9207" fill="#3A414A" transform="matrix(1 0 0 1.00503 2100.56 1655)"/><path d="M6.42397-12.4625C10.4711-12.4625 11.9486-9.76443 11.8201-5.65309L3.14774-5.65309C3.14774-3.0835 4.0471-1.34903 6.55244-1.28479 8.22268-1.22055 9.31475-2.05567 9.70019-3.14774L11.4989-2.63383C10.7923-0.835116 9.12203 0.256959 6.55244 0.256959 2.82655 0.256959 0.899355-2.11991 0.963595-6.16701 1.02783-10.0856 2.63383-12.4625 6.42397-12.4625ZM9.76443-7.25908C10.1499-11.1135 4.88221-12.2055 3.53318-9.05779 3.34046-8.60811 3.14774-7.96572 3.14774-7.25908L9.76443-7.25908" fill="#3A414A" transform="matrix(1 0 0 1.00503 2113.41 1655)"/><path d="M0 0.256959 4.62526-16.7666 6.42397-16.7666 1.79871 0.256959 0 0.256959" fill="#3A414A" transform="matrix(1 0 0 1.00503 2126.26 1655)"/><path d="M1.92719 0 1.92719-15.9314 13.94-15.9314 13.94-14.1327 4.0471-14.1327 4.0471-9.05779 13.2976-9.05779 13.2976-7.32332 4.0471-7.32332 4.0471-1.73447 14.4539-1.73447 14.4539 0 1.92719 0" fill="#3A414A" transform="matrix(1 0 0 1.00503 2132.68 1655)"/><path d="M5.46037-12.4625C7.4518-12.4625 8.54387-11.6274 9.31475-10.3426L9.25051-16.7666 11.3062-16.7666 11.3704 0 9.44323 0C9.31475-0.642397 9.44323-1.47751 9.25051-1.99143 8.60811-0.513917 7.4518 0.256959 5.46037 0.256959 2.05567 0.256959 1.02783-2.24839 0.963595-6.03853 0.963595-10.2783 2.44111-12.4625 5.46037-12.4625ZM6.03853-10.9207C3.46894-10.9207 3.0835-8.73659 3.0835-6.10277 3.0835-3.53318 3.46894-1.34903 5.97429-1.34903 8.67235-1.34903 9.25051-3.4047 9.25051-6.23125 9.25051-8.92931 8.67235-10.985 6.03853-10.9207" fill="#3A414A" transform="matrix(1 0 0 1.00503 2148.1 1655)"/><path d="M11.3704-12.2055C10.728-4.17558 14.0042 6.61668 4.30406 4.56102 2.82655 4.17558 1.86295 3.27622 1.47751 1.79871L3.53318 1.47751C4.49678 4.49678 9.95715 3.53318 9.25051-0.321198L9.25051-2.24839C8.54387-0.899355 7.38756 0.0642397 5.33189 0.0642397 1.86295 0.0642397 0.963595-2.56959 0.963595-6.10277 0.963595-9.70019 1.99143-12.334 5.52461-12.3983 7.38756-12.4625 8.60811-11.3704 9.31475-10.1499 9.37899-10.7923 9.31475-11.6274 9.44323-12.2055L11.3704-12.2055ZM6.03853-1.41327C8.35116-1.41327 9.25051-3.46894 9.25051-6.10277 9.25051-8.80083 8.35116-10.9207 6.03853-10.9207 3.53318-10.9207 3.0835-8.73659 3.0835-6.10277 3.0835-3.46894 3.46894-1.41327 6.03853-1.41327" fill="#3A414A" transform="matrix(1 0 0 1.00503 2160.95 1655)"/><path d="M6.42397-12.4625C10.4711-12.4625 11.9486-9.76443 11.8201-5.65309L3.14774-5.65309C3.14774-3.0835 4.0471-1.34903 6.55244-1.28479 8.22268-1.22055 9.31475-2.05567 9.70019-3.14774L11.4989-2.63383C10.7923-0.835116 9.12203 0.256959 6.55244 0.256959 2.82655 0.256959 0.899355-2.11991 0.963595-6.16701 1.02783-10.0856 2.63383-12.4625 6.42397-12.4625ZM9.76443-7.25908C10.1499-11.1135 4.88221-12.2055 3.53318-9.05779 3.34046-8.60811 3.14774-7.96572 3.14774-7.25908L9.76443-7.25908" fill="#3A414A" transform="matrix(1 0 0 1.00503 2173.8 1655)"/><path d="M4.0471-14.1327 4.0471-8.22268 12.9122-8.22268 12.9122-6.42397 4.0471-6.42397 4.0471 0 1.92719 0 1.92719-15.9314 13.1691-15.9314 13.1691-14.1327 4.0471-14.1327" fill="#3A414A" transform="matrix(1 0 0 1.00503 2076.03 1682.89)"/><path d="M6.42397-12.4625C10.4711-12.4625 11.9486-9.76443 11.8201-5.65309L3.14774-5.65309C3.14774-3.0835 4.0471-1.34903 6.55244-1.28479 8.22268-1.22055 9.31475-2.05567 9.70019-3.14774L11.4989-2.63383C10.7923-0.835116 9.12203 0.256959 6.55244 0.256959 2.82655 0.256959 0.899355-2.11991 0.963595-6.16701 1.02783-10.0856 2.63383-12.4625 6.42397-12.4625ZM9.76443-7.25908C10.1499-11.1135 4.88221-12.2055 3.53318-9.05779 3.34046-8.60811 3.14774-7.96572 3.14774-7.25908L9.76443-7.25908" fill="#3A414A" transform="matrix(1 0 0 1.00503 2090.09 1682.89)"/><path d="M9.05779-2.31263C8.0942-0.963595 7.06636 0.321198 4.6895 0.256959 2.37687 0.192719 0.963595-1.09207 0.963595-3.4047 0.899355-7.51604 5.01069-7.4518 8.99355-7.4518 9.18627-9.70019 8.41539-10.9207 6.35973-10.9207 4.81797-10.8565 3.7259-10.4711 3.66166-8.92931L1.54175-9.12203C1.86295-11.4989 3.66166-12.4625 6.42397-12.4625 9.31475-12.4625 11.0492-11.1777 11.0492-8.35116L11.0492-3.0835C10.985-1.79871 11.4989-1.02783 12.8479-1.34903L12.8479-0.0642397C10.8565 0.513917 8.92931-0.192719 9.05779-2.31263ZM3.0835-3.4047C3.0835-2.11991 3.85438-1.28479 5.13917-1.28479 7.773-1.47751 9.18627-3.14774 8.99355-6.03853 6.23125-5.91005 3.0835-6.35973 3.0835-3.4047" fill="#3A414A" transform="matrix(1 0 0 1.00503 2102.94 1682.89)"/><path d="M3.79014-3.01926C3.66166-1.47751 4.94645-1.15631 6.23125-1.60599L6.23125-0.0642397C4.11134 0.578157 1.73447 0.256959 1.73447-2.56959L1.73447-10.728 0.321198-10.728 0.321198-12.2055 1.86295-12.2055 2.44111-14.9678 3.79014-14.9678 3.79014-12.2055 6.03853-12.2055 6.03853-10.728 3.79014-10.728 3.79014-3.01926" fill="#3A414A" transform="matrix(1 0 0 1.00503 2115.79 1682.89)"/><path d="M5.39613 0.256959C-0.321198 0.513917 1.92719-7.19484 1.47751-12.2055L3.53318-12.2055 3.53318-4.49678C3.53318-2.50535 3.98286-1.28479 6.03853-1.34903 10.6638-1.47751 8.92931-7.83724 9.25051-12.2055L11.2419-12.2055 11.3062 0 9.37899 0C9.31475-0.642397 9.44323-1.60599 9.25051-2.11991 8.54387-0.706636 7.4518 0.192719 5.39613 0.256959" fill="#3A414A" transform="matrix(1 0 0 1.00503 2122.21 1682.89)"/><path d="M7.32332-10.4711C2.31263-11.4989 3.91862-4.62526 3.66166 0L1.60599 0 1.54175-12.2055 3.46894-12.2055C3.53318-11.4347 3.4047-10.3426 3.59742-9.70019 3.98286-11.4347 5.07493-12.8479 7.32332-12.334L7.32332-10.4711" fill="#3A414A" transform="matrix(1 0 0 1.00503 2135.06 1682.89)"/><path d="M6.42397-12.4625C10.4711-12.4625 11.9486-9.76443 11.8201-5.65309L3.14774-5.65309C3.14774-3.0835 4.0471-1.34903 6.55244-1.28479 8.22268-1.22055 9.31475-2.05567 9.70019-3.14774L11.4989-2.63383C10.7923-0.835116 9.12203 0.256959 6.55244 0.256959 2.82655 0.256959 0.899355-2.11991 0.963595-6.16701 1.02783-10.0856 2.63383-12.4625 6.42397-12.4625ZM9.76443-7.25908C10.1499-11.1135 4.88221-12.2055 3.53318-9.05779 3.34046-8.60811 3.14774-7.96572 3.14774-7.25908L9.76443-7.25908" fill="#3A414A" transform="matrix(1 0 0 1.00503 2142.71 1682.89)"/><path d="M8.67235-9.18627C8.47964-11.3704 3.14774-11.6274 3.0835-9.18627 4.0471-5.78157 10.4711-8.41539 10.728-3.4047 10.985 1.60599 1.09207 1.34903 0.642397-2.89078L2.44111-3.21198C2.69807-0.899355 8.67235-0.321198 8.73659-3.21198 8.0942-6.8094 1.47751-4.17558 1.15631-8.99355 0.899355-12.6552 6.42397-13.0407 8.99355-11.6916 9.76443-11.2419 10.3426-10.4711 10.5353-9.44323" fill="#3A414A" transform="matrix(1 0 0 1.00503 2155.55 1682.89)"/><path d="M-701.805-811.732-650.708-811.732" stroke="#3A414A" stroke-width="1.04068" fill="none" transform="matrix(1 0 0 1.00503 2899.38 2465.12)"/><path d="M-701.784-811.233-702.45-811.233-702.18-812.232-701.763-812.232Z" stroke="#3A414A" stroke-width="0.0520341" fill="#3A414A" transform="matrix(1 0 0 1.00503 2899.38 2465.12)"/><path d="M-635.357-811.732-650.198-806.914-650.198-816.551Z" stroke="#3A414A" stroke-width="1.04068" fill="#3A414A" transform="matrix(1 0 0 1.00503 2899.38 2465.12)"/></g></svg>
