<svg xmlns="http://www.w3.org/2000/svg" xmlns:xlink="http://www.w3.org/1999/xlink" version="1.1" width="110.642pt" height="61.584pt" viewBox="0 0 110.642 61.584">
<path transform="matrix(1,0,0,-1,16.619,22.287999)" d="M32.33191 17.00826C32.33191 19.2092 30.54774 20.99336 28.3468 20.99336 26.14586 20.99336 24.3617 19.2092 24.3617 17.00826 24.3617 14.80731 26.14586 13.02315 28.3468 13.02315 30.54774 13.02315 32.33191 14.80731 32.33191 17.00826ZM28.3468 17.00826" fill="#0a99c9"/>
<path transform="matrix(1,0,0,-1,16.619,22.287999)" stroke-width=".59776" stroke-linecap="butt" stroke-miterlimit="10" stroke-linejoin="miter" fill="none" stroke="#000000" d="M32.33191 17.00826C32.33191 19.2092 30.54774 20.99336 28.3468 20.99336 26.14586 20.99336 24.3617 19.2092 24.3617 17.00826 24.3617 14.80731 26.14586 13.02315 28.3468 13.02315 30.54774 13.02315 32.33191 14.80731 32.33191 17.00826ZM28.3468 17.00826"/>
<path transform="matrix(1,0,0,-1,16.619,22.287999)" d="M83.3563 0C83.3563 2.20093 81.57213 3.9851 79.37119 3.9851 77.17024 3.9851 75.38608 2.20093 75.38608 0 75.38608-2.20093 77.17024-3.9851 79.37119-3.9851 81.57213-3.9851 83.3563-2.20093 83.3563 0ZM79.37119 0" fill="#0a99c9"/>
<path transform="matrix(1,0,0,-1,16.619,22.287999)" stroke-width=".59776" stroke-linecap="butt" stroke-miterlimit="10" stroke-linejoin="miter" fill="none" stroke="#000000" d="M83.3563 0C83.3563 2.20093 81.57213 3.9851 79.37119 3.9851 77.17024 3.9851 75.38608 2.20093 75.38608 0 75.38608-2.20093 77.17024-3.9851 79.37119-3.9851 81.57213-3.9851 83.3563-2.20093 83.3563 0ZM79.37119 0"/>
<path transform="matrix(1,0,0,-1,16.619,22.287999)" d="M9.65437-34.0161C9.65437-31.81516 7.87021-30.03099 5.66927-30.03099 3.46832-30.03099 1.68416-31.81516 1.68416-34.0161 1.68416-36.21704 3.46832-38.0012 5.66927-38.0012 7.87021-38.0012 9.65437-36.21704 9.65437-34.0161ZM5.66927-34.0161" fill="#0a99c9"/>
<path transform="matrix(1,0,0,-1,16.619,22.287999)" stroke-width=".59776" stroke-linecap="butt" stroke-miterlimit="10" stroke-linejoin="miter" fill="none" stroke="#000000" d="M9.65437-34.0161C9.65437-31.81516 7.87021-30.03099 5.66927-30.03099 3.46832-30.03099 1.68416-31.81516 1.68416-34.0161 1.68416-36.21704 3.46832-38.0012 5.66927-38.0012 7.87021-38.0012 9.65437-36.21704 9.65437-34.0161ZM5.66927-34.0161"/>
<path transform="matrix(1,0,0,-1,16.619,22.287999)" d="M49.3402-17.00826C49.3402-14.80731 47.55602-13.02315 45.35509-13.02315 43.15414-13.02315 41.36998-14.80731 41.36998-17.00826 41.36998-19.2092 43.15414-20.99336 45.35509-20.99336 47.55602-20.99336 49.3402-19.2092 49.3402-17.00826ZM45.35509-17.00826" fill="#9fd5b3"/>
<path transform="matrix(1,0,0,-1,16.619,22.287999)" stroke-width=".59776" stroke-linecap="butt" stroke-miterlimit="10" stroke-linejoin="miter" fill="none" stroke="#000000" d="M49.3402-17.00826C49.3402-14.80731 47.55602-13.02315 45.35509-13.02315 43.15414-13.02315 41.36998-14.80731 41.36998-17.00826 41.36998-19.2092 43.15414-20.99336 45.35509-20.99336 47.55602-20.99336 49.3402-19.2092 49.3402-17.00826ZM45.35509-17.00826"/>
<path transform="matrix(1,0,0,-1,16.619,22.287999)" stroke-width=".59776" stroke-linecap="butt" stroke-miterlimit="10" stroke-linejoin="miter" fill="none" stroke="#000000" d="M41.36998-17.00826H49.3402"/>
<path transform="matrix(1,0,0,-1,16.619,22.287999)" stroke-width=".59776" stroke-linecap="butt" stroke-miterlimit="10" stroke-linejoin="miter" fill="none" stroke="#000000" d="M45.35509-13.02315V-20.99336"/>
<path transform="matrix(1,0,0,-1,16.619,22.287999)" d="M35.5286 14.21867H37.023019V15.56364H35.5286Z" fill="#d52a2d"/>
<path transform="matrix(1,0,0,-1,16.619,22.287999)" d="M37.52115 14.21867H39.015569V16.460289H37.52115Z" fill="#9fd5b3"/>
<path transform="matrix(1,0,0,-1,16.619,22.287999)" d="M39.5137 14.21867H41.008119V17.80527H39.5137Z" fill="#fe8029"/>
<path transform="matrix(1,0,0,-1,16.619,22.287999)" stroke-width=".49814" stroke-linecap="butt" stroke-miterlimit="10" stroke-linejoin="miter" fill="none" stroke="#000000" d="M41.75533 14.01942H34.78139V19.99709"/>
<path transform="matrix(1,0,0,-1,16.619,22.287999)" d="M33.98436 19.2997 34.78139 20.49522 35.57841 19.2997"/>
<path transform="matrix(1,0,0,-1,16.619,22.287999)" d="M86.55298-2.78957H88.0474V1.69368H86.55298Z" fill="#d52a2d"/>
<path transform="matrix(1,0,0,-1,16.619,22.287999)" d="M88.54553-2.78957H90.039958V-1.8929701H88.54553Z" fill="#9fd5b3"/>
<path transform="matrix(1,0,0,-1,16.619,22.287999)" d="M90.53809-2.78957H92.03252V-.09961009H90.53809Z" fill="#fe8029"/>
<path transform="matrix(1,0,0,-1,16.619,22.287999)" stroke-width=".49814" stroke-linecap="butt" stroke-miterlimit="10" stroke-linejoin="miter" fill="none" stroke="#000000" d="M92.77971-2.98883H85.80577V2.98883"/>
<path transform="matrix(1,0,0,-1,16.619,22.287999)" d="M85.00874 2.29143 85.80577 3.48697 86.60278 2.29143"/>
<path transform="matrix(1,0,0,-1,16.619,22.287999)" d="M-6.99203-36.80566H-5.49761V-33.66743H-6.99203Z" fill="#d52a2d"/>
<path transform="matrix(1,0,0,-1,16.619,22.287999)" d="M-4.99948-36.80566H-3.5050598V-35.46069H-4.99948Z" fill="#9fd5b3"/>
<path transform="matrix(1,0,0,-1,16.619,22.287999)" d="M-3.00693-36.80566H-1.5125101V-34.56404H-3.00693Z" fill="#fe8029"/>
<path transform="matrix(1,0,0,-1,16.619,22.287999)" stroke-width=".49814" stroke-linecap="butt" stroke-miterlimit="10" stroke-linejoin="miter" fill="none" stroke="#000000" d="M-.7653-37.00493H-7.73924V-31.02727"/>
<path transform="matrix(1,0,0,-1,16.619,22.287999)" d="M-8.53627-31.72466-7.73924-30.52913-6.94221-31.72466"/>
<path transform="matrix(1,0,0,-1,16.619,22.287999)" d="M42.61533-28.30196H44.10975V-26.06034H42.61533Z" fill="#d52a2d"/>
<path transform="matrix(1,0,0,-1,16.619,22.287999)" d="M44.60788-28.30196H46.1023V-26.06034H44.60788Z" fill="#9fd5b3"/>
<path transform="matrix(1,0,0,-1,16.619,22.287999)" d="M46.60043-28.30196H48.09485V-24.26709H46.60043Z" fill="#fe8029"/>
<path transform="matrix(1,0,0,-1,16.619,22.287999)" stroke-width=".49814" stroke-linecap="butt" stroke-miterlimit="10" stroke-linejoin="miter" fill="none" stroke="#000000" d="M48.84206-28.5012H41.86812V-22.52354"/>
<path transform="matrix(1,0,0,-1,16.619,22.287999)" d="M41.07109-23.22093 41.86812-22.0254 42.66513-23.22093"/>
<path transform="matrix(1,0,0,-1,16.619,22.287999)" stroke-width=".79701" stroke-linecap="butt" stroke-miterlimit="10" stroke-linejoin="miter" fill="none" stroke="#9307cc" d="M31.18889 13.80312V13.80312C31.43674 13.5236 31.93335 13.71434 32.1812 13.43481 32.3588 13.23083 32.32857 12.8954 32.29619 12.5442 32.2638 12.19305 32.23355 11.85759 32.41118 11.6536 32.58545 11.44676 32.92154 11.42511 33.27351 11.40315 33.62547 11.3812 33.9616 11.35953 34.13586 11.1527 34.30624 10.94264 34.2643 10.60846 34.21968 10.25862 34.17505 9.90881 34.1331 9.57462 34.30348 9.36455 34.46936 9.15091 34.80432 9.11586 35.15514 9.07985 35.50594 9.04387 35.84091 9.00879 36.00677 8.79514 36.16747 8.57759 36.11046 8.24567 36.05002 7.89821 35.9896 7.55078 35.93257 7.21886 36.09328 7.00128 36.24811 6.77951 36.58086 6.72751 36.92943 6.67378 37.27797 6.62006 37.61073 6.56807 37.76558 6.34628 37.91383 6.12007 37.83829 5.79187 37.75851 5.44833 37.67873 5.10484 37.6032 4.77661 37.75145 4.55038 37.89246 4.3196 38.22142 4.2474 38.56606 4.17253 38.91066 4.09766 39.23964 4.02548 39.38068 3.79466 39.51389 3.55928 39.41716 3.2367 39.31517 2.89908 39.21318 2.56152 39.11644 2.2389 39.24966 2.00351 39.37463 1.76366 39.69792 1.66924 40.03665 1.57108 40.37535 1.47293 40.69865 1.37851 40.82364 1.13864 40.94014 .89453 40.82118 .57948 40.69594 .24979 40.57068-.07985 40.4517-.39494 40.56822-.63904 40.6762-.88701 40.99213-1.00371 41.3232-1.1252 41.65424-1.24669 41.9702-1.36339 42.07817-1.61136 42.17781-1.8628 42.0377-2.16905 41.89035-2.48947 41.74298-2.80984 41.60287-3.11612 41.70253-3.36758 41.79419-3.62204 42.10188-3.75899 42.42436-3.90173 42.74683-4.04446 43.05455-4.1814 43.1462-4.43588 43.2304-4.69292 43.07195-4.99011 42.9054-5.30098 42.73886-5.61183 42.5804-5.90904 42.6646-6.16608 42.7419-6.42526 43.04146-6.57916 43.3555-6.73969 43.6695-6.90019 43.96909-7.0541 44.0464-7.31328 43.8497-7.83868 43.41821-8.14984 43.51642-8.51028L43.85158-9.88867 43.93835-10.28217"/>
<path transform="matrix(.21541,.97647,.97647,-.21541,60.55735,32.57015)" d="M2.59026 0-1.55415 2.0722 0 0-1.55415-2.0722" fill="#9307cc"/>
<path transform="matrix(1,0,0,-1,16.619,22.287999)" stroke-width=".79701" stroke-linecap="butt" stroke-miterlimit="10" stroke-linejoin="miter" fill="none" stroke="#9307cc" d="M75.1744-.8588V-.8588C74.8084-.93369 74.72523-1.45912 74.35924-1.53401 74.09476-1.59062 73.81593-1.4017 73.52437-1.20331 73.23282-1.0049 72.95396-.816 72.68948-.8726 72.42596-.9335 72.25356-1.22282 72.07365-1.52617 71.89375-1.82947 71.72136-2.11882 71.45782-2.17973 71.19548-2.24554 70.91023-2.06648 70.6119-1.87837 70.3136-1.69028 70.02832-1.51122 69.76596-1.57703 69.50508-1.6484 69.34439-1.94438 69.17674-2.25465 69.00911-2.56491 68.84842-2.8609 68.58754-2.93228 68.32845-3.0099 68.0354-2.84395 67.72887-2.66957 67.42238-2.49516 67.1293-2.32922 66.8702-2.40685 66.61327-2.49136 66.4678-2.79514 66.31612-3.11351 66.16446-3.43188 66.01897-3.73566 65.76204-3.82018 65.50769-3.91219 65.20578-3.76292 64.88995-3.60597 64.57417-3.44904 64.27222-3.29976 64.01788-3.39178 63.76659-3.4918 63.6399-3.80386 63.5079-4.1309 63.37592-4.45792 63.24922-4.76997 62.99792-4.87003 62.75012-4.9784 62.43915-4.84912 62.11377-4.71306 61.78844-4.57701 61.47743-4.44771 61.22963-4.5561 60.98572-4.67299 60.88057-4.99295 60.77115-5.32822 60.66173-5.66344 60.55658-5.98341 60.31267-6.10031 60.07303-6.2257 59.7538-6.11836 59.41975-6.0053 59.08574-5.89221 58.7665-5.7849 58.52684-5.91026 58.29166-6.04385 58.20903-6.37035 58.12321-6.71243 58.0374-7.05447 57.9548-7.381 57.7196-7.51459 57.48904-7.65594 57.16325-7.57059 56.82228-7.48048 56.48135-7.3904 56.15553-7.30501 55.92496-7.4464 55.69894-7.59496 55.63768-7.92613 55.57425-8.27304 55.5108-8.61993 55.44954-8.95111 55.22354-9.0997 55.00197-9.25482 54.6716-9.18938 54.32576-9.12015 53.97998-9.05092 53.64958-8.98547 53.428-9.1406 53.21065-9.30153 53.16794-9.63562 53.12396-9.98553 53.07999-10.33542 53.0373-10.66951 52.81992-10.83047 52.6732-11.36176 52.2199-11.08334 51.92505-11.31277L50.83035-12.21407 50.52406-12.47737"/>
<path transform="matrix(-.75818,.65196,.65196,.75818,67.14306,34.765359)" d="M2.59026 0-1.55415 2.0722 0 0-1.55415-2.0722" fill="#9307cc"/>
<path transform="matrix(1,0,0,-1,16.619,22.287999)" stroke-width=".79701" stroke-linecap="butt" stroke-miterlimit="10" stroke-linejoin="miter" fill="none" stroke="#9307cc" d="M9.90933-33.40529V-33.40529C10.2791-33.35204 10.39297-32.83238 10.76276-32.77913 11.03015-32.73848 11.29713-32.94377 11.57626-33.15932 11.85538-33.37486 12.12239-33.58015 12.38979-33.53952 12.6566-33.49522 12.84677-33.21725 13.0453-32.92578 13.2438-32.63431 13.43398-32.35632 13.7008-32.31203 13.9669-32.26364 14.23975-32.46107 14.52504-32.66841 14.81029-32.87575 15.08316-33.07318 15.34927-33.02478 15.6145-32.97182 15.79549-32.68779 15.9844-32.38998 16.1733-32.0922 16.35428-31.80815 16.61952-31.75517 16.88368-31.69714 17.16353-31.88454 17.45616-32.08136 17.74876-32.27818 18.02863-32.46559 18.2928-32.40756 18.5557-32.34398 18.72511-32.05289 18.90193-31.74774 19.07872-31.44263 19.24815-31.15152 19.51106-31.08794 19.77242-31.01831 20.06026-31.19319 20.36128-31.37692 20.66228-31.56065 20.95015-31.73553 21.2115-31.66591 21.47102-31.58981 21.62633-31.29099 21.78831-30.9777 21.95029-30.66444 22.1056-30.3656 22.36514-30.28949 22.62257-30.20654 22.919-30.36638 23.22908-30.5344 23.53912-30.70241 23.83559-30.86227 24.09303-30.7793 24.34804-30.68918 24.48682-30.38232 24.63152-30.0607 24.77618-29.7391 24.915-29.43222 25.17-29.3421 25.42229-29.24463 25.72734-29.38736 26.04648-29.53748 26.36559-29.6876 26.67067-29.83034 26.92297-29.73286 27.17227-29.62796 27.29286-29.3135 27.41849-28.98396 27.5441-28.65445 27.6647-28.33997 27.91402-28.23506 28.1601-28.12283 28.47305-28.24722 28.8005-28.37817 29.12794-28.50912 29.44092-28.63354 29.687-28.52129 29.92967-28.4019 30.03151-28.08087 30.1375-27.7445 30.24347-27.40816 30.34532-27.08713 30.58801-26.96771 30.82721-26.84146 31.14682-26.9476 31.48131-27.05942 31.81575-27.17126 32.1354-27.2774 32.37462-27.15114 32.61028-27.01842 32.69412-26.69223 32.78122-26.3505 32.8683-26.00877 32.95215-25.68257 33.18782-25.54985 33.42003-25.41113 33.74481-25.50024 34.08472-25.59425 34.4246-25.68826 34.7494-25.77739 34.9816-25.63866 35.2104-25.49445 35.278-25.1645 35.34808-24.81888 35.41815-24.47327 35.48576-24.14333 35.71458-23.9991 35.94016-23.8499 36.26868-23.92403 36.61253-24.00238 36.95634-24.08073 37.28488-24.15488 37.51048-24.00566 37.73303-23.85199 37.78674-23.5195 37.84225-23.17125 37.89778-22.823 37.95149-22.49051 38.17404-22.33682 38.33897-21.7953 38.78113-22.09111 39.08466-21.8733L39.61005-21.47914 39.93227-21.23225"/>
<path transform="matrix(.79384,-.60805,-.60805,-.79384,56.55127,43.52025)" d="M2.59026 0-1.55415 2.0722 0 0-1.55415-2.0722" fill="#9307cc"/>
<path transform="matrix(1,0,0,-1,16.619,22.287999)" stroke-width=".59776" stroke-linecap="butt" stroke-miterlimit="10" stroke-linejoin="miter" fill="none" stroke="#000000" stroke-opacity=".35" d="M-7.35344 0C-7.35344 2.20093-9.1376 3.9851-11.33855 3.9851-13.53949 3.9851-15.32365 2.20093-15.32365 0-15.32365-2.20093-13.53949-3.9851-11.33855-3.9851-9.1376-3.9851-7.35344-2.20093-7.35344 0ZM-11.33855 0"/>
<path transform="matrix(1,0,0,-1,16.619,22.287999)" stroke-width=".59776" stroke-linecap="butt" stroke-miterlimit="10" stroke-linejoin="miter" fill="none" stroke="#000000" stroke-opacity=".35" d="M42.513-13.80312C34.78563-5.08871 31.54047 1.40091 29.66483 10.5667"/>
<path transform="matrix(-.20044,-.97966,-.97966,.20044,46.28383,11.721298)" d="M2.29138 0-1.37483 1.83311 0 0-1.37483-1.83311" fill-opacity=".35"/>
<path transform="matrix(1,0,0,-1,16.619,22.287999)" stroke-width=".59776" stroke-linecap="butt" stroke-miterlimit="10" stroke-linejoin="miter" fill="none" stroke="#000000" stroke-opacity=".35" d="M49.55186-16.14944C60.96233-13.81454 67.4518-10.56946 74.45175-4.36229"/>
<path transform="matrix(.74817,-.66342,-.66342,-.74817,91.07074,26.6503)" d="M2.29138 0-1.37483 1.83311 0 0-1.37483-1.83311" fill-opacity=".35"/>
<path transform="matrix(1,0,0,-1,16.619,22.287999)" stroke-width=".59776" stroke-linecap="butt" stroke-miterlimit="10" stroke-linejoin="miter" fill="none" stroke="#000000" stroke-opacity=".35" d="M41.11502-17.61905C27.63168-19.56151 19.7415-22.94322 10.83649-29.95023"/>
<path transform="matrix(-.78584,.61835,.61835,.78584,27.45549,52.238229)" d="M2.29138 0-1.37483 1.83311 0 0-1.37483-1.83311" fill-opacity=".35"/>
<path transform="matrix(1,0,0,-1,16.619,22.287999)" stroke-width=".59776" stroke-linecap="butt" stroke-miterlimit="10" stroke-linejoin="miter" fill="none" stroke="#000000" stroke-opacity=".35" d="M24.10674 16.39734C10.6236 14.4549 2.73349 11.07288-6.17139 4.06598"/>
<path transform="matrix(-.78584,.61835,.61835,.78584,10.447609,18.22202)" d="M2.29138 0-1.37483 1.83311 0 0-1.37483-1.83311" fill-opacity=".35"/>
<path transform="matrix(1,0,0,-1,16.619,22.287999)" stroke-width=".59776" stroke-linecap="butt" stroke-miterlimit="10" stroke-linejoin="miter" fill="none" stroke="#000000" stroke-opacity=".35" d="M4.81052-29.8193C2.47562-18.40884-.76913-11.91943-6.9763-4.91948"/>
<path transform="matrix(-.66342,-.74817,-.74817,.66342,9.64271,27.207499)" d="M2.29138 0-1.37483 1.83311 0 0-1.37483-1.83311" fill-opacity=".35"/>
<path transform="matrix(1,0,0,-1,16.619,22.287999)" stroke-width=".59776" stroke-linecap="butt" stroke-miterlimit="10" stroke-linejoin="miter" fill="none" stroke="#000000" stroke-opacity=".35" d="M-7.09848 .61092C6.38466 2.55334 14.27475 5.93538 23.17966 12.94228"/>
<path transform="matrix(.78584,-.61835,-.61835,-.78584,39.79866,9.345718)" d="M2.29138 0-1.37483 1.83311 0 0-1.37483-1.83311" fill-opacity=".35"/>
<path transform="matrix(1,0,0,-1,16.619,22.287999)" stroke-width=".59776" stroke-linecap="butt" stroke-miterlimit="10" stroke-linejoin="miter" fill="none" stroke="#000000" stroke-opacity=".35" d="M-10.4798-4.19678C-8.1449-15.60724-4.90012-22.09665 1.30702-29.0966"/>
<path transform="matrix(.66342,.74817,.74817,-.66342,17.925999,51.38459)" d="M2.29138 0-1.37483 1.83311 0 0-1.37483-1.83311" fill-opacity=".35"/>
</svg>
