<?xml version="1.0" standalone="no"?><!-- Generator: Gravit.io --><svg xmlns="http://www.w3.org/2000/svg" xmlns:xlink="http://www.w3.org/1999/xlink" style="isolation:isolate" viewBox="0 0 965.086 192.5" width="965.086" height="192.5"><defs><clipPath id="_clipPath_DfHBhjQmP2DtYrNY0tM29ZwsPHhcLfHp"><rect width="965.1" height="192.5"/></clipPath></defs><g clip-path="url(#_clipPath_DfHBhjQmP2DtYrNY0tM29ZwsPHhcLfHp)"><g id="Group"><path d=" M 0.9 167.6 L 0.9 167.6 L 0.9 167.6 Q 0.9 160.3 4.4 154.5 L 4.4 154.5 L 4.4 154.5 Q 7.8 148.8 13.6 145.8 L 13.6 145.8 L 13.6 145.8 Q 19.4 142.8 26.5 142.8 L 26.5 142.8 L 26.5 142.8 Q 30.1 142.8 33.3 143.7 L 33.3 143.7 L 33.3 143.7 Q 36.4 144.5 38.8 146.1 L 38.8 146.1 L 38.8 146.1 Q 41.2 147.6 43.1 149.5 L 43.1 149.5 L 43.1 149.5 Q 44.9 151.3 46.3 153.5 L 46.3 153.5 L 37.9 158.2 L 37.9 158.2 Q 36.1 155.4 33.1 153.7 L 33.1 153.7 L 33.1 153.7 Q 30.1 151.9 26.5 151.9 L 26.5 151.9 L 26.5 151.9 Q 19.9 151.9 15.7 156.4 L 15.7 156.4 L 15.7 156.4 Q 11.4 160.8 11.4 167.6 L 11.4 167.6 L 11.4 167.6 Q 11.4 174.5 15.7 178.9 L 15.7 178.9 L 15.7 178.9 Q 19.9 183.4 26.5 183.4 L 26.5 183.4 L 26.5 183.4 Q 31.4 183.4 34.5 180.8 L 34.5 180.8 L 34.5 180.8 Q 37.7 178.1 39 174 L 39 174 L 24 174 L 24 165 L 50.2 165 L 50.2 165 Q 50.2 177.8 43.6 185.2 L 43.6 185.2 L 43.6 185.2 Q 37.1 192.5 25.6 192.5 L 25.6 192.5 L 25.6 192.5 Q 20.6 192.5 16.2 190.7 L 16.2 190.7 L 16.2 190.7 Q 11.7 188.9 8.3 185.8 L 8.3 185.8 L 8.3 185.8 Q 4.9 182.6 2.9 177.9 L 2.9 177.9 L 2.9 177.9 Q 0.9 173.2 0.9 167.6 Z  M 158.8 191.6 L 124.8 191.6 L 124.8 143.6 L 158.8 143.6 L 158.8 152.6 L 135 152.6 L 135 162.7 L 158.3 162.7 L 158.3 171.7 L 135 171.7 L 135 182.6 L 158.8 182.6 L 158.8 191.6 Z  M 236.1 177.6 L 236.1 177.6 L 236.1 177.6 Q 234.2 173 234.2 167.6 L 234.2 167.6 L 234.2 167.6 Q 234.2 162.3 236.1 157.7 L 236.1 157.7 L 236.1 157.7 Q 238 153 241.3 149.8 L 241.3 149.8 L 241.3 149.8 Q 244.6 146.5 249.3 144.7 L 249.3 144.7 L 249.3 144.7 Q 254 142.8 259.3 142.8 L 259.3 142.8 L 259.3 142.8 Q 266.5 142.8 272.2 146 L 272.2 146 L 272.2 146 Q 277.9 149.1 281.2 154.8 L 281.2 154.8 L 281.2 154.8 Q 284.4 160.5 284.4 167.6 L 284.4 167.6 L 284.4 167.6 Q 284.4 174.8 281.2 180.5 L 281.2 180.5 L 281.2 180.5 Q 277.9 186.2 272.2 189.3 L 272.2 189.3 L 272.2 189.3 Q 266.5 192.5 259.3 192.5 L 259.3 192.5 L 259.3 192.5 Q 254 192.5 249.3 190.6 L 249.3 190.6 L 249.3 190.6 Q 244.6 188.8 241.3 185.5 L 241.3 185.5 L 241.3 185.5 Q 238 182.3 236.1 177.6 Z  M 244.8 167.6 L 244.8 167.6 L 244.8 167.6 Q 244.8 174.5 248.8 178.9 L 248.8 178.9 L 248.8 178.9 Q 252.8 183.4 259.3 183.4 L 259.3 183.4 L 259.3 183.4 Q 265.9 183.4 269.9 178.9 L 269.9 178.9 L 269.9 178.9 Q 273.9 174.5 273.9 167.6 L 273.9 167.6 L 273.9 167.6 Q 273.9 160.8 269.9 156.3 L 269.9 156.3 L 269.9 156.3 Q 265.9 151.9 259.3 151.9 L 259.3 151.9 L 259.3 151.9 Q 252.7 151.9 248.7 156.3 L 248.7 156.3 L 248.7 156.3 Q 244.8 160.8 244.8 167.6 Z  M 371.6 191.6 L 361.4 191.6 L 361.4 143.6 L 375.7 143.6 L 387.4 173.6 L 399 143.6 L 413.4 143.6 L 413.4 191.6 L 403.1 191.6 L 403.1 157 L 389.6 191.6 L 385.1 191.6 L 371.6 157 L 371.6 191.6 Z  M 526.7 191.6 L 492.7 191.6 L 492.7 143.6 L 526.7 143.6 L 526.7 152.6 L 503 152.6 L 503 162.7 L 526.2 162.7 L 526.2 171.7 L 503 171.7 L 503 182.6 L 526.7 182.6 L 526.7 191.6 Z  M 615.6 152.6 L 601.5 152.6 L 601.5 143.6 L 639.8 143.6 L 639.8 152.6 L 625.9 152.6 L 625.9 191.6 L 615.6 191.6 L 615.6 152.6 Z  M 726.4 191.6 L 716.1 191.6 L 716.1 143.6 L 738.6 143.6 L 738.6 143.6 Q 746 143.6 750.4 147.9 L 750.4 147.9 L 750.4 147.9 Q 754.8 152.2 754.8 159.1 L 754.8 159.1 L 754.8 159.1 Q 754.8 162.1 753.9 164.7 L 753.9 164.7 L 753.9 164.7 Q 753 167.2 751.4 168.9 L 751.4 168.9 L 751.4 168.9 Q 749.9 170.6 748.1 171.7 L 748.1 171.7 L 748.1 171.7 Q 746.3 172.8 744.2 173.3 L 744.2 173.3 L 755.1 191.6 L 743.3 191.6 L 733.9 174.6 L 726.4 174.6 L 726.4 191.6 Z  M 726.4 152.6 L 726.4 165.6 L 737.2 165.6 L 737.2 165.6 Q 740.3 165.6 742.3 163.8 L 742.3 163.8 L 742.3 163.8 Q 744.3 162 744.3 159 L 744.3 159 L 744.3 159 Q 744.3 156.1 742.3 154.3 L 742.3 154.3 L 742.3 154.3 Q 740.3 152.6 737.2 152.6 L 737.2 152.6 L 726.4 152.6 Z  M 842.4 191.6 L 832.2 191.6 L 832.2 143.6 L 842.4 143.6 L 842.4 191.6 Z  M 919.5 167.6 L 919.5 167.6 L 919.5 167.6 Q 919.5 160.4 922.8 154.7 L 922.8 154.7 L 922.8 154.7 Q 926.2 149 932 145.9 L 932 145.9 L 932 145.9 Q 937.9 142.8 945.1 142.8 L 945.1 142.8 L 945.1 142.8 Q 948.9 142.8 952.1 143.8 L 952.1 143.8 L 952.1 143.8 Q 955.4 144.7 957.8 146.4 L 957.8 146.4 L 957.8 146.4 Q 960.2 148.1 962 150.1 L 962 150.1 L 962 150.1 Q 963.8 152.1 965.1 154.5 L 965.1 154.5 L 956.3 158.9 L 956.3 158.9 Q 954.8 155.8 951.7 153.9 L 951.7 153.9 L 951.7 153.9 Q 948.6 151.9 945.1 151.9 L 945.1 151.9 L 945.1 151.9 Q 938.5 151.9 934.2 156.4 L 934.2 156.4 L 934.2 156.4 Q 930 160.8 930 167.6 L 930 167.6 L 930 167.6 Q 930 174.5 934.2 178.9 L 934.2 178.9 L 934.2 178.9 Q 938.5 183.4 945.1 183.4 L 945.1 183.4 L 945.1 183.4 Q 948.6 183.4 951.7 181.4 L 951.7 181.4 L 951.7 181.4 Q 954.8 179.5 956.3 176.4 L 956.3 176.4 L 965.1 180.7 L 965.1 180.7 Q 963.7 183.1 962 185.1 L 962 185.1 L 962 185.1 Q 960.2 187.1 957.8 188.8 L 957.8 188.8 L 957.8 188.8 Q 955.4 190.5 952.1 191.5 L 952.1 191.5 L 952.1 191.5 Q 948.9 192.5 945.1 192.5 L 945.1 192.5 L 945.1 192.5 Q 939.7 192.5 935 190.7 L 935 190.7 L 935 190.7 Q 930.2 188.8 926.8 185.6 L 926.8 185.6 L 926.8 185.6 Q 923.4 182.4 921.4 177.8 L 921.4 177.8 L 921.4 177.8 Q 919.5 173.1 919.5 167.6 Z " fill-rule="evenodd" fill="rgb(51,51,51)"/><path d=" M 594.4 123.1 L 568.8 123.1 L 568.8 3.1 L 625 3.1 L 625 3.1 Q 643.4 3.1 654.5 13.9 L 654.5 13.9 L 654.5 13.9 Q 665.5 24.7 665.5 41.7 L 665.5 41.7 L 665.5 41.7 Q 665.5 49.3 663.2 55.7 L 663.2 55.7 L 663.2 55.7 Q 660.9 62.1 657.1 66.4 L 657.1 66.4 L 657.1 66.4 Q 653.2 70.7 648.7 73.4 L 648.7 73.4 L 648.7 73.4 Q 644.2 76.2 639.1 77.4 L 639.1 77.4 L 666.2 123.1 L 636.7 123.1 L 613.1 80.5 L 594.4 80.5 L 594.4 123.1 Z  M 594.4 25.6 L 594.4 58 L 621.4 58 L 621.4 58 Q 629.1 58 634.2 53.6 L 634.2 53.6 L 634.2 53.6 Q 639.2 49.1 639.2 41.6 L 639.2 41.6 L 639.2 41.6 Q 639.2 34.3 634.2 29.9 L 634.2 29.9 L 634.2 29.9 Q 629.1 25.6 621.4 25.6 L 621.4 25.6 L 594.4 25.6 Z  M 703.3 63.2 L 703.3 63.2 L 703.3 63.2 Q 703.3 45 711.7 30.8 L 711.7 30.8 L 711.7 30.8 Q 720.2 16.5 734.7 8.8 L 734.7 8.8 L 734.7 8.8 Q 749.3 1 767.4 1 L 767.4 1 L 767.4 1 Q 776.8 1 785 3.5 L 785 3.5 L 785 3.5 Q 793.1 5.9 799.1 10.1 L 799.1 10.1 L 799.1 10.1 Q 805.1 14.4 809.6 19.4 L 809.6 19.4 L 809.6 19.4 Q 814 24.3 817.4 30.4 L 817.4 30.4 L 795.4 41.2 L 795.4 41.2 Q 791.5 33.7 783.9 28.7 L 783.9 28.7 L 783.9 28.7 Q 776.2 23.8 767.4 23.8 L 767.4 23.8 L 767.4 23.8 Q 750.9 23.8 740.2 35 L 740.2 35 L 740.2 35 Q 729.6 46.1 729.6 63.2 L 729.6 63.2 L 729.6 63.2 Q 729.6 80.2 740.2 91.4 L 740.2 91.4 L 740.2 91.4 Q 750.9 102.6 767.4 102.6 L 767.4 102.6 L 767.4 102.6 Q 776.2 102.6 783.9 97.7 L 783.9 97.7 L 783.9 97.7 Q 791.5 92.7 795.4 85.2 L 795.4 85.2 L 817.4 95.8 L 817.4 95.8 Q 813.9 101.9 809.6 106.8 L 809.6 106.8 L 809.6 106.8 Q 805.2 111.8 799.2 116.1 L 799.2 116.1 L 799.2 116.1 Q 793.1 120.4 785 122.9 L 785 122.9 L 785 122.9 Q 776.8 125.3 767.4 125.3 L 767.4 125.3 L 767.4 125.3 Q 753.9 125.3 742.1 120.8 L 742.1 120.8 L 742.1 120.8 Q 730.3 116.2 721.7 108.1 L 721.7 108.1 L 721.7 108.1 Q 713.1 100.1 708.2 88.5 L 708.2 88.5 L 708.2 88.5 Q 703.3 76.8 703.3 63.2 Z  M 882.6 123.1 L 857.1 123.1 L 857.1 3.1 L 882.6 3.1 L 882.6 50.3 L 939.3 50.3 L 939.3 3.1 L 965.1 3.1 L 965.1 123.1 L 939.3 123.1 L 939.3 72.6 L 882.6 72.6 L 882.6 123.1 Z " fill-rule="evenodd" fill="rgb(51,51,51)"/><path d=" M 25.6 123.1 L 0 123.1 L 0 3.1 L 56.2 3.1 L 56.2 3.1 Q 65.7 3.1 73.4 6.1 L 73.4 6.1 L 73.4 6.1 Q 81.2 9.2 86.2 14.5 L 86.2 14.5 L 86.2 14.5 Q 91.1 19.8 93.8 26.8 L 93.8 26.8 L 93.8 26.8 Q 96.5 33.7 96.5 41.7 L 96.5 41.7 L 96.5 41.7 Q 96.5 49.6 93.8 56.6 L 93.8 56.6 L 93.8 56.6 Q 91.1 63.5 86.1 68.9 L 86.1 68.9 L 86.1 68.9 Q 81.1 74.2 73.4 77.2 L 73.4 77.2 L 73.4 77.2 Q 65.7 80.3 56.2 80.3 L 56.2 80.3 L 25.6 80.3 L 25.6 123.1 Z  M 25.6 25.6 L 25.6 57.8 L 52.6 57.8 L 52.6 57.8 Q 60.3 57.8 65.3 53.4 L 65.3 53.4 L 65.3 53.4 Q 70.4 49 70.4 41.7 L 70.4 41.7 L 70.4 41.7 Q 70.4 34.4 65.3 30 L 65.3 30 L 65.3 30 Q 60.3 25.6 52.6 25.6 L 52.6 25.6 L 25.6 25.6 Z  M 170.5 74 L 124.4 3.1 L 153.6 3.1 L 183.3 51.1 L 212.9 3.1 L 241.9 3.1 L 196.1 74 L 196.1 123.1 L 170.5 123.1 L 170.5 74 Z  M 305.3 25.6 L 270.1 25.6 L 270.1 3.1 L 365.9 3.1 L 365.9 25.6 L 331 25.6 L 331 123.1 L 305.3 123.1 L 305.3 25.6 Z " fill-rule="evenodd" fill="rgb(51,51,51)"/><g id="Group"><path d=" M 497.6 2.5 L 455.1 0 L 425.1 7.5 L 395.1 52.5 L 407.6 102.5 L 432.6 122.5 L 452.6 125 L 492.6 115 L 522.6 92.5 L 527.6 82.5 L 530.1 40 L 497.6 2.5 Z " fill="rgb(239,88,24)"/><path d=" M 452.6 37.5 L 500.1 22.5 L 492.6 70 L 452.6 37.5 Z " fill="rgb(239,84,18)"/><path d=" M 522.6 92.5 L 500.1 122.5 L 452.6 127.5 L 432.6 122.5 L 482.6 117.5 L 522.6 92.5 Z " fill="rgb(140,49,10)"/><path d=" M 500.1 22.5 L 455.1 0 L 452.6 37.5 L 500.1 22.5 Z " fill="rgb(240,101,42)"/><path d=" M 455.1 0 L 497.6 2.5 L 500.1 22.5 L 455.1 0 Z " fill="rgb(239,84,18)"/><path d=" M 497.6 2.5 L 530.1 40 L 500.1 22.5 L 497.6 2.5 Z " fill="rgb(236,82,17)"/><path d=" M 500.1 22.5 L 492.6 70 L 522.6 92.5 L 530.1 40 L 500.1 22.5 Z " fill="rgb(232,81,17)"/><path d=" M 530.1 40 L 527.6 82.5 L 522.6 92.5 L 530.1 40 Z " fill="rgb(127,44,9)"/><path d=" M 445.1 87.5 L 492.6 70 L 482.6 117.5 L 445.1 87.5 Z " fill="rgb(236,82,17)"/><path d=" M 482.6 117.5 L 522.6 92.5 L 492.6 70 L 482.6 117.5 Z " fill="rgb(193,67,14)"/><path d=" M 522.6 92.5 L 500.1 122.5 L 482.6 117.5 L 522.6 92.5 Z " fill="rgb(127,44,9)"/><path d=" M 445.1 87.5 L 405.1 80 L 415.1 30 L 452.6 37.5 L 445.1 87.5 Z " fill="rgb(240,101,42)"/><path d=" M 415.1 30 L 455.1 0 L 452.6 37.5 L 415.1 30 Z " fill="rgb(240,98,37)"/><path d=" M 455.1 0 L 425.1 7.5 L 415.1 30 L 455.1 0 Z " fill="rgb(242,116,63)"/><path d=" M 432.6 122.5 L 407.6 102.5 L 405.1 80 L 432.6 122.5 Z " fill="rgb(230,80,16)"/><path d=" M 482.6 117.5 L 445.1 87.5 L 432.6 122.5 L 482.6 117.5 Z " fill="rgb(217,76,16)"/><path d=" M 432.6 122.5 L 405.1 80 L 445.1 87.5 L 432.6 122.5 Z " fill="rgb(236,82,17)"/><path d=" M 425.1 7.5 L 395.1 52.5 L 415.1 30 L 425.1 7.5 Z " fill="rgb(241,106,48)"/><path d=" M 407.6 102.5 L 395.1 52.5 L 405.1 80 L 407.6 102.5 Z " fill="rgb(193,67,14)"/><path d=" M 405.1 80 L 395.1 52.5 L 415.1 30 L 405.1 80 Z " fill="rgb(239,92,30)"/></g></g></g></svg>