<?xml version="1.0" encoding="UTF-8" standalone="no"?>
<!-- Generator: Gravit.io -->

<svg
   xmlns:dc="http://purl.org/dc/elements/1.1/"
   xmlns:cc="http://creativecommons.org/ns#"
   xmlns:rdf="http://www.w3.org/1999/02/22-rdf-syntax-ns#"
   xmlns:svg="http://www.w3.org/2000/svg"
   xmlns="http://www.w3.org/2000/svg"
   xmlns:xlink="http://www.w3.org/1999/xlink"
   xmlns:sodipodi="http://sodipodi.sourceforge.net/DTD/sodipodi-0.dtd"
   xmlns:inkscape="http://www.inkscape.org/namespaces/inkscape"
   style="isolation:isolate"
   viewBox="0 0 965.09998 194.07254"
   width="965.09998"
   height="194.07254"
   id="svg2"
   version="1.1"
   inkscape:version="0.91 r13725"
   sodipodi:docname="logo_Inkscape.svg">
  <metadata
     id="metadata62">
    <rdf:RDF>
      <cc:Work
         rdf:about="">
        <dc:format>image/svg+xml</dc:format>
        <dc:type
           rdf:resource="http://purl.org/dc/dcmitype/StillImage" />
        <dc:title />
      </cc:Work>
    </rdf:RDF>
  </metadata>
  <sodipodi:namedview
     pagecolor="#ffffff"
     bordercolor="#666666"
     borderopacity="1"
     objecttolerance="10"
     gridtolerance="10"
     guidetolerance="10"
     inkscape:pageopacity="0"
     inkscape:pageshadow="2"
     inkscape:window-width="1680"
     inkscape:window-height="987"
     id="namedview60"
     showgrid="false"
     inkscape:zoom="2.8284271"
     inkscape:cx="309.91813"
     inkscape:cy="127.44815"
     inkscape:window-x="-8"
     inkscape:window-y="-8"
     inkscape:window-maximized="1"
     inkscape:current-layer="svg2"
     fit-margin-top="0"
     fit-margin-left="0"
     fit-margin-right="0"
     fit-margin-bottom="0"
     showguides="true">
    <inkscape:grid
       type="xygrid"
       id="grid4300" />
  </sodipodi:namedview>
  <defs
     id="defs4">
    <linearGradient
       id="linearGradient4347"
       inkscape:collect="always">
      <stop
         id="stop4349"
         offset="0"
         style="stop-color:#ffffff;stop-opacity:0.263" />
      <stop
         id="stop4351"
         offset="1"
         style="stop-color:#ffffff;stop-opacity:0" />
    </linearGradient>
    <linearGradient
       inkscape:collect="always"
       id="linearGradient4311">
      <stop
         style="stop-color:#ffffff;stop-opacity:0.283"
         offset="0"
         id="stop4313" />
      <stop
         style="stop-color:#ffffff;stop-opacity:0"
         offset="1"
         id="stop4315" />
    </linearGradient>
    <linearGradient
       id="linearGradient4305"
       inkscape:collect="always">
      <stop
         id="stop4307"
         offset="0"
         style="stop-color:#ffffff;stop-opacity:0.323" />
      <stop
         id="stop4309"
         offset="1"
         style="stop-color:#ffffff;stop-opacity:0;" />
    </linearGradient>
    <linearGradient
       id="linearGradient4348"
       inkscape:collect="always">
      <stop
         id="stop4350"
         offset="0"
         style="stop-color:#d2490f;stop-opacity:1;" />
      <stop
         id="stop4352"
         offset="1"
         style="stop-color:#351204;stop-opacity:0" />
    </linearGradient>
    <linearGradient
       id="linearGradient4478"
       inkscape:collect="always">
      <stop
         id="stop4480"
         offset="0"
         style="stop-color:#8d300a;stop-opacity:1" />
      <stop
         id="stop4482"
         offset="1"
         style="stop-color:#4a1905;stop-opacity:0" />
    </linearGradient>
    <linearGradient
       id="linearGradient4448"
       inkscape:collect="always">
      <stop
         id="stop4450"
         offset="0"
         style="stop-color:#ffffff;stop-opacity:0.39" />
      <stop
         id="stop4452"
         offset="1"
         style="stop-color:#ffffff;stop-opacity:0" />
    </linearGradient>
    <linearGradient
       inkscape:collect="always"
       id="linearGradient4381">
      <stop
         style="stop-color:#872f0a;stop-opacity:1"
         offset="0"
         id="stop4383" />
      <stop
         style="stop-color:#cc470f;stop-opacity:0;"
         offset="1"
         id="stop4385" />
    </linearGradient>
    <linearGradient
       inkscape:collect="always"
       id="linearGradient4357">
      <stop
         style="stop-color:#9f370a;stop-opacity:1;"
         offset="0"
         id="stop4359" />
      <stop
         style="stop-color:#9f370a;stop-opacity:0;"
         offset="1"
         id="stop4361" />
    </linearGradient>
    <linearGradient
       inkscape:collect="always"
       id="linearGradient4301">
      <stop
         style="stop-color:#93340c;stop-opacity:1;"
         offset="0"
         id="stop4303" />
      <stop
         style="stop-color:#93340c;stop-opacity:0;"
         offset="1"
         id="stop4305" />
    </linearGradient>
    <linearGradient
       inkscape:collect="always"
       id="linearGradient4269">
      <stop
         style="stop-color:#d2490f;stop-opacity:1;"
         offset="0"
         id="stop4271" />
      <stop
         style="stop-color:#d2490f;stop-opacity:0;"
         offset="1"
         id="stop4273" />
    </linearGradient>
    <linearGradient
       inkscape:collect="always"
       id="linearGradient4245">
      <stop
         style="stop-color:#8d300a;stop-opacity:1"
         offset="0"
         id="stop4247" />
      <stop
         style="stop-color:#4a1905;stop-opacity:0"
         offset="1"
         id="stop4249" />
    </linearGradient>
    <linearGradient
       inkscape:collect="always"
       id="linearGradient4237">
      <stop
         style="stop-color:#aa3b0b;stop-opacity:1;"
         offset="0"
         id="stop4239" />
      <stop
         style="stop-color:#aa3b0b;stop-opacity:0;"
         offset="1"
         id="stop4241" />
    </linearGradient>
    <linearGradient
       inkscape:collect="always"
       id="linearGradient5995">
      <stop
         style="stop-color:#ffffff;stop-opacity:0.272"
         offset="0"
         id="stop5997" />
      <stop
         style="stop-color:#ffffff;stop-opacity:0"
         offset="1"
         id="stop5999" />
    </linearGradient>
    <linearGradient
       id="linearGradient5941"
       inkscape:collect="always">
      <stop
         id="stop5943"
         offset="0"
         style="stop-color:#ffffff;stop-opacity:0.272" />
      <stop
         id="stop5945"
         offset="1"
         style="stop-color:#ffffff;stop-opacity:0" />
    </linearGradient>
    <linearGradient
       inkscape:collect="always"
       id="linearGradient5887">
      <stop
         style="stop-color:#ffffff;stop-opacity:1"
         offset="0"
         id="stop5889" />
      <stop
         style="stop-color:#ffffff;stop-opacity:0"
         offset="1"
         id="stop5891" />
    </linearGradient>
    <linearGradient
       id="linearGradient5857"
       inkscape:collect="always">
      <stop
         id="stop5859"
         offset="0"
         style="stop-color:#ffffff;stop-opacity:1" />
      <stop
         id="stop5861"
         offset="1"
         style="stop-color:#ffffff;stop-opacity:0" />
    </linearGradient>
    <linearGradient
       inkscape:collect="always"
       id="linearGradient5803">
      <stop
         style="stop-color:#ffffff;stop-opacity:1"
         offset="0"
         id="stop5805" />
      <stop
         style="stop-color:#ffffff;stop-opacity:0;"
         offset="1"
         id="stop5807" />
    </linearGradient>
    <linearGradient
       id="linearGradient5704"
       inkscape:collect="always">
      <stop
         id="stop5706"
         offset="0"
         style="stop-color:#ffffff;stop-opacity:1" />
      <stop
         id="stop5708"
         offset="1"
         style="stop-color:#ffffff;stop-opacity:0;" />
    </linearGradient>
    <linearGradient
       inkscape:collect="always"
       id="linearGradient5646">
      <stop
         style="stop-color:#ffffff;stop-opacity:1;"
         offset="0"
         id="stop5648" />
      <stop
         style="stop-color:#ffffff;stop-opacity:0;"
         offset="1"
         id="stop5650" />
    </linearGradient>
    <clipPath
       id="_clipPath_DfHBhjQmP2DtYrNY0tM29ZwsPHhcLfHp">
      <rect
         width="965.09998"
         height="192.5"
         id="rect7"
         x="0"
         y="0" />
    </clipPath>
    <radialGradient
       inkscape:collect="always"
       xlink:href="#linearGradient5704"
       id="radialGradient5654"
       cx="509.08801"
       cy="19.466793"
       fx="509.08801"
       fy="19.466793"
       r="34.68214"
       gradientTransform="matrix(0.66549464,-0.20751255,0.00270823,0.00868534,136.51627,137.24102)"
       gradientUnits="userSpaceOnUse" />
    <radialGradient
       inkscape:collect="always"
       xlink:href="#linearGradient5646"
       id="radialGradient5654-7"
       cx="530.9978"
       cy="-84.473587"
       fx="530.9978"
       fy="-84.473587"
       r="34.68214"
       gradientTransform="matrix(0.33793667,-0.27143153,0.00627398,0.00781122,257.36158,161.23052)"
       gradientUnits="userSpaceOnUse" />
    <radialGradient
       inkscape:collect="always"
       xlink:href="#linearGradient5803"
       id="radialGradient5654-4"
       cx="509.01578"
       cy="63.604469"
       fx="509.01578"
       fy="63.604469"
       r="34.68214"
       gradientTransform="matrix(0.62214923,0.31097444,-0.00406762,0.00813783,160.80967,-146.12932)"
       gradientUnits="userSpaceOnUse" />
    <radialGradient
       inkscape:collect="always"
       xlink:href="#linearGradient5803"
       id="radialGradient5654-4-1"
       cx="478.4223"
       cy="501.38785"
       fx="478.4223"
       fy="501.38785"
       r="34.68214"
       gradientTransform="matrix(-0.0330831,0.49980705,-0.01878847,-0.00124369,479.12186,-217.92079)"
       gradientUnits="userSpaceOnUse" />
    <radialGradient
       inkscape:collect="always"
       xlink:href="#linearGradient5857"
       id="radialGradient5654-4-1-9"
       cx="460.80399"
       cy="2145.6882"
       fx="460.80399"
       fy="2145.6882"
       r="34.68214"
       gradientTransform="matrix(0.35030399,0.0714918,-0.00181923,0.00891405,277.17006,-16.654624)"
       gradientUnits="userSpaceOnUse" />
    <radialGradient
       inkscape:collect="always"
       xlink:href="#linearGradient5887"
       id="radialGradient5654-4-1-2"
       cx="486.57544"
       cy="646.61609"
       fx="486.57544"
       fy="646.61609"
       r="34.68214"
       gradientTransform="matrix(-0.04797749,0.18731469,-0.0088133,-0.00225738,449.06373,-69.786546)"
       gradientUnits="userSpaceOnUse" />
    <radialGradient
       inkscape:collect="always"
       xlink:href="#linearGradient5887"
       id="radialGradient5654-4-1-2-9"
       cx="474.7471"
       cy="635.96613"
       fx="474.7471"
       fy="635.96613"
       r="34.68214"
       gradientTransform="matrix(0.0278289,0.22987684,-0.00903181,0.00109339,491.15926,-96.228541)"
       gradientUnits="userSpaceOnUse" />
    <radialGradient
       inkscape:collect="always"
       xlink:href="#linearGradient5941"
       id="radialGradient5654-4-1-2-0"
       cx="495.68185"
       cy="433.90814"
       fx="495.68185"
       fy="433.90814"
       r="34.68214"
       gradientTransform="matrix(-0.19125263,0.18869517,-0.00638967,-0.00647627,505.97151,-50.033406)"
       gradientUnits="userSpaceOnUse" />
    <radialGradient
       inkscape:collect="always"
       xlink:href="#linearGradient4448"
       id="radialGradient5654-4-1-2-7-7"
       cx="506.30853"
       cy="144.87387"
       fx="506.30853"
       fy="144.87387"
       r="34.68214"
       gradientTransform="matrix(0.36659484,0.70916984,-0.00808184,0.00417778,244.49825,-304.65395)"
       gradientUnits="userSpaceOnUse" />
    <linearGradient
       inkscape:collect="always"
       xlink:href="#linearGradient5887"
       id="linearGradient4234"
       x1="459.08591"
       y1="-5.4911261"
       x2="476.42279"
       y2="12.465222"
       gradientUnits="userSpaceOnUse"
       gradientTransform="translate(15.264632,45.570599)" />
    <linearGradient
       inkscape:collect="always"
       xlink:href="#linearGradient5857"
       id="linearGradient4416"
       x1="431.80042"
       y1="-50.675728"
       x2="479.97336"
       y2="-27.95742"
       gradientUnits="userSpaceOnUse"
       gradientTransform="translate(15.264632,45.570599)" />
    <linearGradient
       inkscape:collect="always"
       xlink:href="#linearGradient5704"
       id="linearGradient4424"
       x1="415.88794"
       y1="-56.5825"
       x2="478.91797"
       y2="-15.977266"
       gradientUnits="userSpaceOnUse"
       gradientTransform="translate(15.264632,45.570599)" />
    <linearGradient
       inkscape:collect="always"
       xlink:href="#linearGradient5803"
       id="linearGradient4426"
       x1="410.31824"
       y1="-35.121304"
       x2="447.09009"
       y2="-0.16150354"
       gradientUnits="userSpaceOnUse"
       gradientTransform="translate(15.264632,45.570599)" />
    <linearGradient
       gradientTransform="translate(26.779927,49.153202)"
       inkscape:collect="always"
       xlink:href="#linearGradient5803"
       id="linearGradient4426-1"
       x1="397.96054"
       y1="-41.116512"
       x2="422.64145"
       y2="-13.337173"
       gradientUnits="userSpaceOnUse" />
    <linearGradient
       inkscape:collect="always"
       xlink:href="#linearGradient5887"
       id="linearGradient4458"
       x1="395.41043"
       y1="-26.469309"
       x2="403.03156"
       y2="32.278309"
       gradientUnits="userSpaceOnUse"
       gradientTransform="translate(15.264632,45.570599)" />
    <linearGradient
       inkscape:collect="always"
       xlink:href="#linearGradient5646"
       id="linearGradient4466"
       x1="385.4855"
       y1="-29.946039"
       x2="389.63611"
       y2="27.464067"
       gradientUnits="userSpaceOnUse"
       gradientTransform="translate(15.264632,45.570599)" />
    <linearGradient
       inkscape:collect="always"
       xlink:href="#linearGradient5646"
       id="linearGradient4474"
       x1="391.9783"
       y1="-20.267942"
       x2="413.80365"
       y2="-7.8075395"
       gradientUnits="userSpaceOnUse"
       gradientTransform="translate(15.264632,45.570599)" />
    <linearGradient
       gradientTransform="translate(29.942824,50.590537)"
       inkscape:collect="always"
       xlink:href="#linearGradient5887"
       id="linearGradient4458-1"
       x1="386.13373"
       y1="-35.029587"
       x2="410.89804"
       y2="19.894812"
       gradientUnits="userSpaceOnUse" />
    <linearGradient
       gradientTransform="translate(43.833148,50.431046)"
       inkscape:collect="always"
       xlink:href="#linearGradient5704"
       id="linearGradient4458-1-4"
       x1="408.97278"
       y1="-10.507494"
       x2="422.0127"
       y2="16.351822"
       gradientUnits="userSpaceOnUse" />
    <radialGradient
       inkscape:collect="always"
       xlink:href="#linearGradient5995"
       id="radialGradient5654-4-18"
       cx="503.28854"
       cy="86.297577"
       fx="503.28854"
       fy="86.297577"
       r="34.68214"
       gradientTransform="matrix(0.4543455,0.37403573,-0.00578233,0.00702385,242.98798,-134.63556)"
       gradientUnits="userSpaceOnUse" />
    <linearGradient
       inkscape:collect="always"
       xlink:href="#linearGradient4237"
       id="linearGradient4243"
       x1="519.25787"
       y1="84.895065"
       x2="505.11557"
       y2="41.55928"
       gradientUnits="userSpaceOnUse" />
    <linearGradient
       inkscape:collect="always"
       xlink:href="#linearGradient4245"
       id="linearGradient4251"
       x1="505.61041"
       y1="109.49411"
       x2="492.85428"
       y2="76.647919"
       gradientUnits="userSpaceOnUse" />
    <linearGradient
       inkscape:collect="always"
       xlink:href="#linearGradient4348"
       id="linearGradient4275"
       x1="432.7547"
       y1="125.59335"
       x2="409.53198"
       y2="77.571274"
       gradientUnits="userSpaceOnUse" />
    <linearGradient
       inkscape:collect="always"
       xlink:href="#linearGradient4269"
       id="linearGradient4283"
       x1="403.10001"
       y1="86.57254"
       x2="396.85001"
       y2="46.82254"
       gradientUnits="userSpaceOnUse" />
    <linearGradient
       inkscape:collect="always"
       xlink:href="#linearGradient4311"
       id="linearGradient4291"
       x1="504.26849"
       y1="32.965042"
       x2="512.30273"
       y2="42.31823"
       gradientUnits="userSpaceOnUse" />
    <linearGradient
       inkscape:collect="always"
       xlink:href="#linearGradient4305"
       id="linearGradient4299"
       x1="499.19528"
       y1="12.119744"
       x2="523.92194"
       y2="38.76582"
       gradientUnits="userSpaceOnUse" />
    <linearGradient
       inkscape:collect="always"
       xlink:href="#linearGradient4301"
       id="linearGradient4307"
       x1="526.09998"
       y1="83.57254"
       x2="529.34998"
       y2="49.07254"
       gradientUnits="userSpaceOnUse" />
    <linearGradient
       inkscape:collect="always"
       xlink:href="#linearGradient4357"
       id="linearGradient4379"
       x1="455.90591"
       y1="115.65833"
       x2="447.52203"
       y2="61.361492"
       gradientUnits="userSpaceOnUse" />
    <linearGradient
       inkscape:collect="always"
       xlink:href="#linearGradient4381"
       id="linearGradient4387"
       x1="482.83401"
       y1="117.48028"
       x2="469.10126"
       y2="67.402229"
       gradientUnits="userSpaceOnUse" />
    <linearGradient
       inkscape:collect="always"
       xlink:href="#linearGradient4357"
       id="linearGradient4403"
       x1="430.37909"
       y1="130.04614"
       x2="417.16928"
       y2="73.654388"
       gradientUnits="userSpaceOnUse" />
    <radialGradient
       inkscape:collect="always"
       xlink:href="#linearGradient5995"
       id="radialGradient5654-4-18-0"
       cx="477.55878"
       cy="-65.777802"
       fx="477.55878"
       fy="-65.777802"
       r="34.68214"
       gradientTransform="matrix(-0.06682786,0.41353786,-0.00898128,-0.00145139,528.76747,-157.01135)"
       gradientUnits="userSpaceOnUse" />
    <radialGradient
       inkscape:collect="always"
       xlink:href="#linearGradient4478"
       id="radialGradient5654-4-1-8"
       cx="470.99442"
       cy="495.35748"
       fx="470.99442"
       fy="495.35748"
       r="34.68214"
       gradientTransform="matrix(-0.10156204,0.51422302,-0.01847273,-0.00364852,544.3945,-143.48898)"
       gradientUnits="userSpaceOnUse" />
    <radialGradient
       inkscape:collect="always"
       xlink:href="#linearGradient4478"
       id="radialGradient5654-4-1-8-7"
       cx="467.19489"
       cy="529.15308"
       fx="467.19489"
       fy="529.15308"
       r="34.68214"
       gradientTransform="matrix(-0.14648579,0.44596199,-0.01788923,-0.00587615,517.29084,-100.77887)"
       gradientUnits="userSpaceOnUse" />
    <radialGradient
       inkscape:collect="always"
       xlink:href="#linearGradient4478"
       id="radialGradient5654-4-1-8-7-1"
       cx="435.61447"
       cy="285.03665"
       fx="435.61447"
       fy="285.03665"
       r="34.68214"
       gradientTransform="matrix(0.3237287,0.28716033,-0.01249517,0.01408631,327.82443,-25.081429)"
       gradientUnits="userSpaceOnUse" />
    <radialGradient
       inkscape:collect="always"
       xlink:href="#linearGradient4478"
       id="radialGradient5654-4-1-8-79"
       cx="468.75833"
       cy="670.33551"
       fx="468.75833"
       fy="670.33551"
       r="34.68214"
       gradientTransform="matrix(0.35207511,0.26701539,-0.01137832,0.0150029,349.83811,-52.860015)"
       gradientUnits="userSpaceOnUse" />
    <radialGradient
       inkscape:collect="always"
       xlink:href="#linearGradient4478"
       id="radialGradient5654-4-1-8-79-4-4"
       cx="420.10306"
       cy="1173.8374"
       fx="420.10306"
       fy="1173.8374"
       r="34.68214"
       gradientTransform="matrix(-0.41380853,0.03815099,-0.00172861,-0.01875007,635.51937,127.44455)"
       gradientUnits="userSpaceOnUse" />
    <radialGradient
       inkscape:collect="always"
       xlink:href="#linearGradient4478"
       id="radialGradient5654-4-1-8-79-5"
       cx="472.83209"
       cy="589.24139"
       fx="472.83209"
       fy="589.24139"
       r="34.68214"
       gradientTransform="matrix(0.55916069,-0.17175132,0.00703367,0.02289935,201.18669,146.5126)"
       gradientUnits="userSpaceOnUse" />
    <radialGradient
       inkscape:collect="always"
       xlink:href="#linearGradient4478"
       id="radialGradient5654-4-1-8-79-5-5"
       cx="447.34845"
       cy="709.91998"
       fx="447.34845"
       fy="709.91998"
       r="34.68214"
       gradientTransform="matrix(0.2259289,-0.17629618,0.0115837,0.0148449,394.63202,131.5306)"
       gradientUnits="userSpaceOnUse" />
    <radialGradient
       inkscape:collect="always"
       xlink:href="#linearGradient4478"
       id="radialGradient5654-4-1-8-79-5-1"
       cx="469.07852"
       cy="659.92847"
       fx="469.07852"
       fy="659.92847"
       r="34.68214"
       gradientTransform="matrix(0.28309528,0.04689954,-0.00307752,0.01857638,298.01168,48.99481)"
       gradientUnits="userSpaceOnUse" />
    <radialGradient
       inkscape:collect="always"
       xlink:href="#linearGradient4448"
       id="radialGradient5654-1"
       cx="513.24231"
       cy="-56.948471"
       fx="513.24231"
       fy="-56.948471"
       r="34.68214"
       gradientTransform="matrix(0.66945717,-0.19955116,0.00528135,0.01771791,125.66345,181.98413)"
       gradientUnits="userSpaceOnUse" />
    <radialGradient
       inkscape:collect="always"
       xlink:href="#linearGradient4448"
       id="radialGradient5654-1-1"
       cx="513.99567"
       cy="28.215769"
       fx="513.99567"
       fy="28.215769"
       r="34.68214"
       gradientTransform="matrix(0.22583917,-0.1834137,0.00573547,0.00706213,387.1007,156.99543)"
       gradientUnits="userSpaceOnUse" />
    <radialGradient
       inkscape:collect="always"
       xlink:href="#linearGradient4448"
       id="radialGradient5654-1-6"
       cx="516.08643"
       cy="56.565941"
       fx="516.08643"
       fy="56.565941"
       r="34.68214"
       gradientTransform="matrix(0.32381314,0.05514976,-0.00237108,0.01392191,261.30239,53.440304)"
       gradientUnits="userSpaceOnUse" />
    <radialGradient
       inkscape:collect="always"
       xlink:href="#linearGradient4478"
       id="radialGradient5654-4-1-8-79-4-1"
       cx="437.61188"
       cy="1296.2238"
       fx="437.61188"
       fy="1296.2238"
       r="34.68214"
       gradientTransform="matrix(-0.0469117,0.28765939,-0.01858406,-0.00303073,494.35432,-63.471575)"
       gradientUnits="userSpaceOnUse" />
    <radialGradient
       inkscape:collect="always"
       xlink:href="#linearGradient4478"
       id="radialGradient5654-4-1-8-7-1-4"
       cx="485.85382"
       cy="-504.41089"
       fx="485.85382"
       fy="-504.41089"
       r="34.68214"
       gradientTransform="matrix(0.3618764,-0.22687561,0.00811658,0.01294633,323.27665,228.0905)"
       gradientUnits="userSpaceOnUse" />
    <radialGradient
       inkscape:collect="always"
       xlink:href="#linearGradient4448"
       id="radialGradient5654-1-6-9-1-5"
       cx="517.50684"
       cy="321.84766"
       fx="517.50684"
       fy="321.84766"
       r="34.68214"
       gradientTransform="matrix(-0.09453748,-0.16860033,0.00793545,-0.00444957,450.23513,158.3377)"
       gradientUnits="userSpaceOnUse" />
    <radialGradient
       inkscape:collect="always"
       xlink:href="#linearGradient4448"
       id="radialGradient5654-4-1-2-7-7-3"
       cx="500.22745"
       cy="189.80591"
       fx="500.22745"
       fy="189.80591"
       r="34.68214"
       gradientTransform="matrix(-0.08498682,0.53484401,-0.00898507,-0.00142774,457.55596,-214.01472)"
       gradientUnits="userSpaceOnUse" />
    <radialGradient
       inkscape:collect="always"
       xlink:href="#linearGradient4478"
       id="radialGradient5654-4-1-8-6"
       cx="470.99442"
       cy="495.35748"
       fx="470.99442"
       fy="495.35748"
       r="34.68214"
       gradientTransform="matrix(-0.06843114,0.40463605,-0.01856596,-0.00313987,538.57103,-143.76625)"
       gradientUnits="userSpaceOnUse" />
    <radialGradient
       inkscape:collect="always"
       xlink:href="#linearGradient4448"
       id="radialGradient5654-3"
       cx="510.75714"
       cy="36.457508"
       fx="510.75714"
       fy="36.457508"
       r="34.68214"
       gradientTransform="matrix(-0.0753427,0.47918039,-0.00898737,-0.00141311,488.17004,-186.3659)"
       gradientUnits="userSpaceOnUse" />
    <radialGradient
       inkscape:collect="always"
       xlink:href="#linearGradient4478"
       id="radialGradient5654-4-1-8-7-0"
       cx="482.14163"
       cy="363.06189"
       fx="482.14163"
       fy="363.06189"
       r="34.68214"
       gradientTransform="matrix(0.23262598,0.43840674,-0.0166331,0.00882574,316.21827,-109.76698)"
       gradientUnits="userSpaceOnUse" />
    <radialGradient
       inkscape:collect="always"
       xlink:href="#linearGradient4478"
       id="radialGradient5654-4-1-8-7-0-6"
       cx="469.01169"
       cy="390.39264"
       fx="469.01169"
       fy="390.39264"
       r="34.68214"
       gradientTransform="matrix(-0.02079632,0.27775782,-0.01232818,-9.2305589e-4,423.00624,-36.774694)"
       gradientUnits="userSpaceOnUse" />
    <filter
       inkscape:collect="always"
       style="color-interpolation-filters:sRGB"
       id="filter5926"
       x="-0.18641002"
       width="1.37282"
       y="-0.31597256"
       height="1.6319451">
      <feGaussianBlur
         inkscape:collect="always"
         stdDeviation="3.071984"
         id="feGaussianBlur5928" />
    </filter>
    <radialGradient
       inkscape:collect="always"
       xlink:href="#linearGradient4347"
       id="radialGradient5654-4-5"
       cx="508.55994"
       cy="66.746513"
       fx="508.55994"
       fy="66.746513"
       r="34.68214"
       gradientTransform="matrix(0.28685136,0.19266106,-0.01187892,0.01768634,368.78227,-66.128859)"
       gradientUnits="userSpaceOnUse" />
    <filter
       inkscape:collect="always"
       style="color-interpolation-filters:sRGB"
       id="filter4357"
       x="-0.2587134"
       width="1.5174268"
       y="-0.38318642"
       height="1.7663728">
      <feGaussianBlur
         inkscape:collect="always"
         stdDeviation="4.013875"
         id="feGaussianBlur4359" />
    </filter>
  </defs>
  <path
     d="m 0.9,169.17254 0,0 0,0 q 0,-7.3 3.5,-13.1 l 0,0 0,0 q 3.4,-5.7 9.2,-8.7 l 0,0 0,0 q 5.8,-3 12.9,-3 l 0,0 0,0 q 3.6,0 6.8,0.9 l 0,0 0,0 q 3.1,0.8 5.5,2.4 l 0,0 0,0 q 2.4,1.5 4.3,3.4 l 0,0 0,0 q 1.8,1.8 3.2,4 l 0,0 -8.4,4.7 0,0 q -1.8,-2.8 -4.8,-4.5 l 0,0 0,0 q -3,-1.8 -6.6,-1.8 l 0,0 0,0 q -6.6,0 -10.8,4.5 l 0,0 0,0 q -4.3,4.4 -4.3,11.2 l 0,0 0,0 q 0,6.9 4.3,11.3 l 0,0 0,0 q 4.2,4.5 10.8,4.5 l 0,0 0,0 q 4.9,0 8,-2.6 l 0,0 0,0 q 3.2,-2.7 4.5,-6.8 l 0,0 -15,0 0,-9 26.2,0 0,0 q 0,12.8 -6.6,20.2 l 0,0 0,0 q -6.5,7.3 -18,7.3 l 0,0 0,0 q -5,0 -9.4,-1.8 l 0,0 0,0 q -4.5,-1.8 -7.9,-4.9 l 0,0 0,0 q -3.4,-3.2 -5.4,-7.9 l 0,0 0,0 q -2,-4.7 -2,-10.3 z m 157.9,24 -34,0 0,-48 34,0 0,9 -23.8,0 0,10.1 23.3,0 0,9 -23.3,0 0,10.9 23.8,0 0,9 z m 77.3,-14 0,0 0,0 q -1.9,-4.6 -1.9,-10 l 0,0 0,0 q 0,-5.3 1.9,-9.9 l 0,0 0,0 q 1.9,-4.7 5.2,-7.9 l 0,0 0,0 q 3.3,-3.3 8,-5.1 l 0,0 0,0 q 4.7,-1.9 10,-1.9 l 0,0 0,0 q 7.2,0 12.9,3.2 l 0,0 0,0 q 5.7,3.1 9,8.8 l 0,0 0,0 q 3.2,5.7 3.2,12.8 l 0,0 0,0 q 0,7.2 -3.2,12.9 l 0,0 0,0 q -3.3,5.7 -9,8.8 l 0,0 0,0 q -5.7,3.2 -12.9,3.2 l 0,0 0,0 q -5.3,0 -10,-1.9 l 0,0 0,0 q -4.7,-1.8 -8,-5.1 l 0,0 0,0 q -3.3,-3.2 -5.2,-7.9 z m 8.7,-10 0,0 0,0 q 0,6.9 4,11.3 l 0,0 0,0 q 4,4.5 10.5,4.5 l 0,0 0,0 q 6.6,0 10.6,-4.5 l 0,0 0,0 q 4,-4.4 4,-11.3 l 0,0 0,0 q 0,-6.8 -4,-11.3 l 0,0 0,0 q -4,-4.4 -10.6,-4.4 l 0,0 0,0 q -6.6,0 -10.6,4.4 l 0,0 0,0 q -3.9,4.5 -3.9,11.3 z m 126.8,24 -10.2,0 0,-48 14.3,0 11.7,30 11.6,-30 14.4,0 0,48 -10.3,0 0,-34.6 -13.5,34.6 -4.5,0 -13.5,-34.6 0,34.6 z m 155.1,0 -34,0 0,-48 34,0 0,9 -23.7,0 0,10.1 23.2,0 0,9 -23.2,0 0,10.9 23.7,0 0,9 z m 88.9,-39 -14.1,0 0,-9 38.3,0 0,9 -13.9,0 0,39 -10.3,0 0,-39 z m 110.8,39 -10.3,0 0,-48 22.5,0 0,0 q 7.4,0 11.8,4.3 l 0,0 0,0 q 4.4,4.3 4.4,11.2 l 0,0 0,0 q 0,3 -0.9,5.6 l 0,0 0,0 q -0.9,2.5 -2.5,4.2 l 0,0 0,0 q -1.5,1.7 -3.3,2.8 l 0,0 0,0 q -1.8,1.1 -3.9,1.6 l 0,0 10.9,18.3 -11.8,0 -9.4,-17 -7.5,0 0,17 z m 0,-39 0,13 10.8,0 0,0 q 3.1,0 5.1,-1.8 l 0,0 0,0 q 2,-1.8 2,-4.8 l 0,0 0,0 q 0,-2.9 -2,-4.7 l 0,0 0,0 q -2,-1.7 -5.1,-1.7 l 0,0 -10.8,0 z m 116,39 -10.2,0 0,-48 10.2,0 0,48 z m 77.1,-24 0,0 0,0 q 0,-7.2 3.3,-12.9 l 0,0 0,0 q 3.4,-5.7 9.2,-8.8 l 0,0 0,0 q 5.9,-3.1 13.1,-3.1 l 0,0 0,0 q 3.8,0 7,1 l 0,0 0,0 q 3.3,0.9 5.7,2.6 l 0,0 0,0 q 2.4,1.7 4.2,3.7 l 0,0 0,0 q 1.8,2 3.1,4.4 l 0,0 -8.8,4.4 0,0 q -1.5,-3.1 -4.6,-5 l 0,0 0,0 q -3.1,-2 -6.6,-2 l 0,0 0,0 q -6.6,0 -10.9,4.5 l 0,0 0,0 q -4.2,4.4 -4.2,11.2 l 0,0 0,0 q 0,6.9 4.2,11.3 l 0,0 0,0 q 4.3,4.5 10.9,4.5 l 0,0 0,0 q 3.5,0 6.6,-2 l 0,0 0,0 q 3.1,-1.9 4.6,-5 l 0,0 8.8,4.3 0,0 q -1.4,2.4 -3.1,4.4 l 0,0 0,0 q -1.8,2 -4.2,3.7 l 0,0 0,0 q -2.4,1.7 -5.7,2.7 l 0,0 0,0 q -3.2,1 -7,1 l 0,0 0,0 q -5.4,0 -10.1,-1.8 l 0,0 0,0 q -4.8,-1.9 -8.2,-5.1 l 0,0 0,0 q -3.4,-3.2 -5.4,-7.8 l 0,0 0,0 q -1.9,-4.7 -1.9,-10.2 z"
     id="path12"
     inkscape:connector-curvature="0"
     style="fill:#333333;fill-rule:evenodd" />
  <path
     d="m 594.4,124.67254 -25.6,0 0,-119.9999994 56.2,0 0,0 q 18.4,0 29.5,10.8000004 l 0,0 0,0 q 11,10.8 11,27.8 l 0,0 0,0 q 0,7.6 -2.3,14 l 0,0 0,0 q -2.3,6.4 -6.1,10.7 l 0,0 0,0 q -3.9,4.3 -8.4,7 l 0,0 0,0 q -4.5,2.8 -9.6,4 l 0,0 27.1,45.699999 -29.5,0 -23.6,-42.599999 -18.7,0 0,42.599999 z m 0,-97.499999 0,32.4 27,0 0,0 q 7.7,0 12.8,-4.4 l 0,0 0,0 q 5,-4.5 5,-12 l 0,0 0,0 q 0,-7.3 -5,-11.7 l 0,0 0,0 q -5.1,-4.3 -12.8,-4.3 l 0,0 -27,0 z m 108.9,37.6 0,0 0,0 q 0,-18.2 8.4,-32.4 l 0,0 0,0 q 8.5,-14.3 23,-22 l 0,0 0,0 q 14.6,-7.8000004 32.7,-7.8000004 l 0,0 0,0 q 9.4,0 17.6,2.5 l 0,0 0,0 q 8.1,2.4 14.1,6.6000004 l 0,0 0,0 q 6,4.3 10.5,9.3 l 0,0 0,0 q 4.4,4.9 7.8,11 l 0,0 -22,10.8 0,0 q -3.9,-7.5 -11.5,-12.5 l 0,0 0,0 q -7.7,-4.9 -16.5,-4.9 l 0,0 0,0 q -16.5,0 -27.2,11.2 l 0,0 0,0 q -10.6,11.1 -10.6,28.2 l 0,0 0,0 q 0,17 10.6,28.2 l 0,0 0,0 q 10.7,11.199999 27.2,11.199999 l 0,0 0,0 q 8.8,0 16.5,-4.899999 l 0,0 0,0 q 7.6,-5 11.5,-12.5 l 0,0 22,10.6 0,0 q -3.5,6.099999 -7.8,10.999999 l 0,0 0,0 q -4.4,5 -10.4,9.3 l 0,0 0,0 q -6.1,4.3 -14.2,6.8 l 0,0 0,0 q -8.2,2.4 -17.6,2.4 l 0,0 0,0 q -13.5,0 -25.3,-4.5 l 0,0 0,0 q -11.8,-4.6 -20.4,-12.7 l 0,0 0,0 q -8.6,-8 -13.5,-19.599999 l 0,0 0,0 q -4.9,-11.7 -4.9,-25.3 z m 179.3,59.899999 -25.5,0 0,-119.9999994 25.5,0 0,47.2000004 56.7,0 0,-47.2000004 25.8,0 0,119.9999994 -25.8,0 0,-50.499999 -56.7,0 0,50.499999 z"
     id="path14"
     inkscape:connector-curvature="0"
     style="fill:#333333;fill-rule:evenodd" />
  <path
     d="m 25.6,124.67254 -25.6,0 0,-119.9999994 56.2,0 0,0 q 9.5,0 17.2,3 l 0,0 0,0 q 7.8,3.1000004 12.8,8.4000004 l 0,0 0,0 q 4.9,5.3 7.6,12.3 l 0,0 0,0 q 2.7,6.9 2.7,14.9 l 0,0 0,0 q 0,7.9 -2.7,14.9 l 0,0 0,0 q -2.7,6.9 -7.7,12.3 l 0,0 0,0 q -5,5.3 -12.7,8.3 l 0,0 0,0 q -7.7,3.1 -17.2,3.1 l 0,0 -30.6,0 0,42.799999 z m 0,-97.499999 0,32.2 27,0 0,0 q 7.7,0 12.7,-4.4 l 0,0 0,0 q 5.1,-4.4 5.1,-11.7 l 0,0 0,0 q 0,-7.3 -5.1,-11.7 l 0,0 0,0 q -5,-4.4 -12.7,-4.4 l 0,0 -27,0 z m 144.9,48.4 -46.1,-70.9000004 29.2,0 29.7,48.0000004 29.6,-48.0000004 29,0 -45.8,70.9000004 0,49.099999 -25.6,0 0,-49.099999 z m 134.8,-48.4 -35.2,0 0,-22.5000004 95.8,0 0,22.5000004 -34.9,0 0,97.499999 -25.7,0 0,-97.499999 z"
     id="path16"
     inkscape:connector-curvature="0"
     style="fill:#333333;fill-rule:evenodd" />
  <path
     style="fill:#ef5818"
     inkscape:connector-curvature="0"
     id="path20"
     d="m 497.85,5.6350406 -42.75,-4.0625 -33.0625,9.8125004 -26.9375,42.6875 12.5,49.999999 25,20 20,2.5 40,-10 30,-22.499999 5,-10 1.3125,-41.4375 z"
     sodipodi:nodetypes="cccccccccccc" />
  <path
     style="opacity:0.353;fill:url(#linearGradient4234);fill-opacity:1"
     inkscape:connector-curvature="0"
     id="path22"
     d="M 452.59933,39.071871 500.1,24.072541 l -7.5,47.5 z"
     sodipodi:nodetypes="cccc" />
  <path
     style="fill:#732908;fill-opacity:1"
     inkscape:connector-curvature="0"
     id="path24"
     d="m 522.6,94.072541 -17.52979,22.292959 -25.27136,11.23369 -22.54038,1.51754 -24.65847,-5.04419 50,-5 z"
     sodipodi:nodetypes="ccccccc" />
  <path
     style="fill:url(#linearGradient4424);fill-opacity:1"
     inkscape:connector-curvature="0"
     id="path26"
     d="m 500.1,24.072541 -45,-22.5000004 -2.5,37.5000004 47.5,-15 z" />
  <path
     style="fill:url(#linearGradient4416);fill-opacity:1"
     inkscape:connector-curvature="0"
     id="path28"
     d="m 455.1,1.5725406 42.75,4.0625 2.25,18.4375004 z"
     sodipodi:nodetypes="cccc" />
  <path
     style="fill:url(#linearGradient4299);fill-opacity:1;opacity:0.434"
     inkscape:connector-curvature="0"
     id="path30"
     d="M 497.77299,5.5227153 528.90067,42.625657 500.1,24.072541 Z"
     sodipodi:nodetypes="cccc" />
  <path
     style="fill:url(#linearGradient4291);fill-opacity:1;opacity:0.465"
     inkscape:connector-curvature="0"
     id="path32"
     d="m 500.1,24.072541 -7.5,47.5 36.31384,-28.93371 z"
     sodipodi:nodetypes="cccc" />
  <path
     style="fill:url(#linearGradient4307);fill-opacity:1"
     inkscape:connector-curvature="0"
     id="path34"
     d="m 528.9125,42.510041 -1.3125,41.5625 -5,10 z"
     sodipodi:nodetypes="cccc" />
  <path
     style="fill:url(#linearGradient4387);fill-opacity:1"
     inkscape:connector-curvature="0"
     id="path36"
     d="M 445.27678,85.802172 492.6,71.572541 482.6221,119.13883 Z"
     sodipodi:nodetypes="cccc" />
  <path
     style="fill:url(#linearGradient4251);fill-opacity:1"
     inkscape:connector-curvature="0"
     id="path38"
     d="m 482.6,119.07254 40,-24.999999 -30,-22.5 -10,47.499999 z" />
  <path
     sodipodi:nodetypes="cccc"
     style="fill:url(#linearGradient4458);fill-opacity:1"
     inkscape:connector-curvature="0"
     id="path42"
     d="m 445.20355,85.740434 -35.94929,-6.239495 7.64476,-47.471291 z" />
  <path
     style="fill:url(#linearGradient4426);fill-opacity:1"
     inkscape:connector-curvature="0"
     id="path44"
     d="M 416.91878,32.075682 455.1,1.5725406 452.6,39.072541 Z"
     sodipodi:nodetypes="cccc" />
  <path
     style="fill:#f2743f;fill-opacity:0"
     inkscape:connector-curvature="0"
     id="path46"
     d="m 455.1,1.5725406 -30,7.5 -10,22.5000004 40,-30.0000004 z" />
  <path
     style="fill:url(#linearGradient4275);fill-opacity:1"
     inkscape:connector-curvature="0"
     id="path48"
     d="m 432.6,124.07254 -25,-20 1.63218,-24.593698 z"
     sodipodi:nodetypes="cccc" />
  <path
     style="fill:url(#linearGradient4379);fill-opacity:1"
     inkscape:connector-curvature="0"
     id="path50"
     d="M 482.6,119.07254 445.27678,85.824269 432.6,124.07254 Z"
     sodipodi:nodetypes="cccc" />
  <path
     style="fill:url(#linearGradient4403);fill-opacity:1"
     inkscape:connector-curvature="0"
     id="path52"
     d="m 432.6,124.07254 -23.34575,-44.555028 36.02253,6.28466 z"
     sodipodi:nodetypes="cccc" />
  <path
     style="fill:url(#linearGradient4474);fill-opacity:1"
     inkscape:connector-curvature="0"
     id="path54"
     d="M 422.07254,11.323651 395.1,54.072541 416.91196,32.058677 Z"
     sodipodi:nodetypes="cccc" />
  <path
     style="opacity:1;fill:url(#linearGradient4283);fill-opacity:1"
     inkscape:connector-curvature="0"
     id="path56"
     d="M 407.6,104.07254 395.1,54.072541 409.25978,79.545133 Z"
     sodipodi:nodetypes="cccc" />
  <path
     style="fill:url(#linearGradient4466);fill-opacity:1"
     inkscape:connector-curvature="0"
     id="path58"
     d="M 409.2432,79.48989 395.1,54.072541 416.9125,32.041291 Z"
     sodipodi:nodetypes="cccc" />
  <rect
     style="fill:url(#radialGradient5654);fill-opacity:1;stroke:none;stroke-width:6;stroke-miterlimit:4;stroke-dasharray:none;stroke-opacity:1"
     id="rect4190"
     width="49.161102"
     height="18.51959"
     x="450.90689"
     y="22.35807"
     ry="6.7343965" />
  <rect
     style="opacity:0.60799997;isolation:isolate;fill:url(#radialGradient5654-4);fill-opacity:1;stroke:none;stroke-width:6;stroke-miterlimit:4;stroke-dasharray:none;stroke-opacity:1"
     id="rect4190-9"
     width="47.028576"
     height="25.815182"
     x="453.78745"
     y="0.68779367"
     ry="6.7343965"
     inkscape:transform-center-x="-3.8161581"
     inkscape:transform-center-y="27.835506" />
  <rect
     style="isolation:isolate;fill:url(#radialGradient5654-4-1);fill-opacity:1;stroke:none;stroke-width:6;stroke-miterlimit:4;stroke-dasharray:none;stroke-opacity:1"
     id="rect4190-9-2"
     width="8.1373863"
     height="38.105469"
     x="448.83392"
     y="1.0069108"
     ry="6.7343965" />
  <rect
     style="isolation:isolate;fill:url(#radialGradient5654-4-1-9);fill-opacity:1;stroke:none;stroke-width:6;stroke-miterlimit:4;stroke-dasharray:none;stroke-opacity:1"
     id="rect4190-9-2-1"
     width="29.519144"
     height="10.999506"
     x="420.50055"
     y="31.674107"
     ry="5.499753" />
  <rect
     style="isolation:isolate;fill:url(#radialGradient5654-4-1-2);fill-opacity:1;stroke:none;stroke-width:6;stroke-miterlimit:4;stroke-dasharray:none;stroke-opacity:1"
     id="rect4190-9-2-9"
     width="8.6781616"
     height="23.676083"
     x="415.923"
     y="9.5052042"
     ry="6.7343965" />
  <rect
     style="opacity:0.357;isolation:isolate;fill:url(#radialGradient5654-4-1-2-9);fill-opacity:1;stroke:none;stroke-width:6;stroke-miterlimit:4;stroke-dasharray:none;stroke-opacity:1"
     id="rect4190-9-2-9-0"
     width="7.6323252"
     height="21.662315"
     x="494.72989"
     y="2.820118"
     ry="6.7343965" />
  <rect
     style="isolation:isolate;fill:url(#radialGradient5654-4-1-2-0);fill-opacity:1;stroke:none;stroke-width:6;stroke-miterlimit:4;stroke-dasharray:none;stroke-opacity:1"
     id="rect4190-9-2-9-01"
     width="18.070591"
     height="22.223501"
     x="399.12524"
     y="28.743107"
     ry="6.7343965" />
  <rect
     style="isolation:isolate;fill:url(#radialGradient5654-4-1-2-7-7);fill-opacity:1;stroke:none;stroke-width:6;stroke-miterlimit:4;stroke-dasharray:none;stroke-opacity:1"
     id="rect4190-9-2-9-6-5"
     width="32.372704"
     height="51.665268"
     x="411.69611"
     y="31.324627"
     ry="6.7343965" />
  <path
     style="isolation:isolate;fill:url(#linearGradient4426-1);fill-opacity:1"
     inkscape:connector-curvature="0"
     id="path44-2"
     d="M 422.04781,11.372967 455.1107,1.5634655 416.91241,32.07372 Z"
     sodipodi:nodetypes="cccc" />
  <path
     sodipodi:nodetypes="cccc"
     style="isolation:isolate;fill:url(#linearGradient4458-1);fill-opacity:1"
     inkscape:connector-curvature="0"
     id="path42-2"
     d="M 452.59941,39.066801 445.28977,85.742878 416.91565,32.063129 Z" />
  <path
     sodipodi:nodetypes="cccc"
     style="opacity:0.46100003;isolation:isolate;fill:url(#linearGradient4458-1-4);fill-opacity:1"
     inkscape:connector-curvature="0"
     id="path42-2-6"
     d="M 492.59509,71.597846 445.21594,85.753616 452.598,39.071152 Z" />
  <rect
     style="opacity:0.60799997;isolation:isolate;fill:url(#radialGradient5654-4-18);fill-opacity:1;stroke:none;stroke-width:6;stroke-miterlimit:4;stroke-dasharray:none;stroke-opacity:1"
     id="rect4190-9-5"
     width="34.272217"
     height="27.754795"
     x="455.43124"
     y="42.343784"
     ry="6.7343965" />
  <path
     style="isolation:isolate;fill:url(#linearGradient4243);fill-opacity:1"
     inkscape:connector-curvature="0"
     id="path32-1"
     d="m 492.59367,71.582642 30.01281,22.495363 6.2956,-51.432932 z"
     sodipodi:nodetypes="cccc" />
  <path
     style="isolation:isolate;fill:#94330b;fill-opacity:1"
     inkscape:connector-curvature="0"
     id="path40-1"
     d="m 482.61328,119.07254 -25.36707,10.02589 -24.64775,-5.02723 z"
     sodipodi:nodetypes="cccc" />
  <rect
     style="opacity:0.60799997;isolation:isolate;fill:url(#radialGradient5654-4-18-0);fill-opacity:1;stroke:none;stroke-width:6;stroke-miterlimit:4;stroke-dasharray:none;stroke-opacity:1"
     id="rect4190-9-5-3"
     width="10.920955"
     height="41.456062"
     x="491.14941"
     y="25.559189"
     ry="6.7343965" />
  <rect
     style="opacity:0.38500001;isolation:isolate;fill:url(#radialGradient5654-4-1-8);fill-opacity:1;stroke:none;stroke-width:6;stroke-miterlimit:4;stroke-dasharray:none;stroke-opacity:1"
     id="rect4190-9-2-2"
     width="12.01239"
     height="42.980469"
     x="480.4938"
     y="76.207306"
     ry="6.7343965"
     rx="0" />
  <rect
     style="opacity:0.38500001;isolation:isolate;fill:url(#radialGradient5654-4-1-8-7);fill-opacity:1;stroke:none;stroke-width:6;stroke-miterlimit:4;stroke-dasharray:none;stroke-opacity:1"
     id="rect4190-9-2-2-7"
     width="15.38739"
     height="40.730469"
     x="432.34735"
     y="87.545692"
     ry="6.7343965"
     rx="0" />
  <rect
     style="opacity:0.54199997;isolation:isolate;fill:url(#radialGradient5654-4-1-8-7-1);fill-opacity:1;stroke:none;stroke-width:6;stroke-miterlimit:4;stroke-dasharray:none;stroke-opacity:1"
     id="rect4190-9-2-2-7-7"
     width="37.573021"
     height="30.23111"
     x="448.62064"
     y="93.150009"
     ry="6.7343965"
     rx="0" />
  <rect
     style="opacity:0.495;isolation:isolate;fill:url(#radialGradient5654-4-1-8-79);fill-opacity:1;stroke:none;stroke-width:6;stroke-miterlimit:4;stroke-dasharray:none;stroke-opacity:1"
     id="rect4190-9-2-2-9"
     width="35.34687"
     height="29.191881"
     x="488.61499"
     y="68.814392"
     ry="6.7343965"
     rx="0" />
  <rect
     style="opacity:0.613;isolation:isolate;fill:url(#radialGradient5654-4-1-8-79-4-4);fill-opacity:1;stroke:none;stroke-width:6;stroke-miterlimit:4;stroke-dasharray:none;stroke-opacity:1"
     id="rect4190-9-2-2-9-2-5"
     width="31.721893"
     height="13.566887"
     x="444.13904"
     y="113.9141"
     ry="6.7343965"
     rx="0" />
  <rect
     style="opacity:0.52899996;isolation:isolate;fill:url(#radialGradient5654-4-1-8-79-5);fill-opacity:1;stroke:none;stroke-width:6;stroke-miterlimit:4;stroke-dasharray:none;stroke-opacity:1"
     id="rect4190-9-2-2-9-3"
     width="42.506287"
     height="19.535034"
     x="448.32397"
     y="70.460358"
     ry="6.7343965"
     rx="0" />
  <rect
     style="opacity:0.3800001;isolation:isolate;fill:url(#radialGradient5654-4-1-8-79-5-5);fill-opacity:1;stroke:none;stroke-width:6;stroke-miterlimit:4;stroke-dasharray:none;stroke-opacity:1"
     id="rect4190-9-2-2-9-3-4"
     width="42.506294"
     height="23.535034"
     x="490.43436"
     y="47.117523"
     ry="6.7343965"
     rx="0" />
  <rect
     style="opacity:0.49500002;isolation:isolate;fill:url(#radialGradient5654-4-1-8-79-5-1);fill-opacity:1;stroke:none;stroke-width:6;stroke-miterlimit:4;stroke-dasharray:none;stroke-opacity:1"
     id="rect4190-9-2-2-9-3-6"
     width="25.403141"
     height="10.851304"
     x="415.16431"
     y="78.095161"
     ry="5.3372641"
     rx="0" />
  <rect
     style="opacity:1;isolation:isolate;fill:url(#radialGradient5654-1);fill-opacity:1;stroke:none;stroke-width:6;stroke-miterlimit:4;stroke-dasharray:none;stroke-opacity:1"
     id="rect4190-7"
     width="50.928867"
     height="16.309883"
     x="442.21164"
     y="71.239998"
     ry="6.7343965"
     rx="0" />
  <rect
     style="opacity:1;isolation:isolate;fill:url(#radialGradient5654-1-1);fill-opacity:1;stroke:none;stroke-width:6;stroke-miterlimit:4;stroke-dasharray:none;stroke-opacity:1"
     id="rect4190-7-8"
     width="49.161102"
     height="18.51959"
     x="477.10693"
     y="54.125244"
     ry="6.7343965" />
  <rect
     style="isolation:isolate;fill:url(#radialGradient5654-1-6);fill-opacity:1;stroke:none;stroke-width:6;stroke-miterlimit:4;stroke-dasharray:none;stroke-opacity:1"
     id="rect4190-7-4"
     width="25.64983"
     height="11.890466"
     x="415.42737"
     y="75.578072"
     ry="5.5916796" />
  <rect
     style="opacity:0.11400003;isolation:isolate;fill:url(#radialGradient5654-4-1-8-79-4-1);fill-opacity:1;stroke:none;stroke-width:6;stroke-miterlimit:4;stroke-dasharray:none;stroke-opacity:1"
     id="rect4190-9-2-2-9-2-6"
     width="9.9495544"
     height="31.646515"
     x="445.52542"
     y="45.363434"
     ry="6.7343965"
     rx="0" />
  <path
     style="isolation:isolate;fill:#672308;fill-opacity:1"
     inkscape:connector-curvature="0"
     id="path40-1-2"
     d="m 505.04323,116.366 -25.13479,11.17671 2.69842,-8.49491 z"
     sodipodi:nodetypes="cccc" />
  <rect
     style="opacity:1;isolation:isolate;fill:url(#radialGradient5654-4-1-8-7-1-4);fill-opacity:1;stroke:none;stroke-width:6;stroke-miterlimit:4;stroke-dasharray:none;stroke-opacity:1"
     id="rect4190-9-2-2-7-7-6"
     width="37.948029"
     height="22.98111"
     x="479.33847"
     y="98.456985"
     ry="6.7343965"
     rx="0" />
  <rect
     style="isolation:isolate;fill:url(#radialGradient5654-1-6-9-1-5);fill-opacity:1;stroke:none;stroke-width:6;stroke-miterlimit:4;stroke-dasharray:none;stroke-opacity:1"
     id="rect4190-7-4-7-7-1"
     width="11.203988"
     height="16.426004"
     x="397.89078"
     y="62.160049"
     ry="6.7343965" />
  <rect
     style="isolation:isolate;fill:url(#radialGradient5654-4-1-2-7-7-3);fill-opacity:1;stroke:none;stroke-width:6;stroke-miterlimit:4;stroke-dasharray:none;stroke-opacity:1"
     id="rect4190-9-2-9-6-5-9"
     width="9.7625713"
     height="41.314137"
     x="407.63333"
     y="33.286247"
     ry="6.7343965"
     rx="0" />
  <rect
     style="opacity:0.38000039;isolation:isolate;fill:#ffffff;fill-opacity:1;stroke:none;stroke-width:6;stroke-miterlimit:4;stroke-dasharray:none;stroke-opacity:1;filter:url(#filter4357)"
     id="rect4190-9-2-23"
     width="27.759598"
     height="30.327297"
     x="417.90237"
     y="21.633596"
     ry="15.163649"
     rx="13.879799"
     transform="matrix(0.69965901,0.54434642,-0.8719952,0.9139203,156.45552,-245.25819)" />
  <rect
     style="opacity:0.178;isolation:isolate;fill:url(#radialGradient5654-4-1-8-6);fill-opacity:1;stroke:none;stroke-width:6;stroke-miterlimit:4;stroke-dasharray:none;stroke-opacity:1"
     id="rect4190-9-2-2-2"
     width="12.01239"
     height="42.980469"
     x="490.22864"
     y="24.567144"
     ry="6.7343965"
     rx="0" />
  <rect
     style="opacity:0.16799999;isolation:isolate;fill:#4a1905;fill-opacity:0;stroke:none;stroke-width:6;stroke-miterlimit:4;stroke-dasharray:none;stroke-opacity:1"
     id="rect4190-9-2-2-2-9"
     width="10.01239"
     height="19.230469"
     x="494.06702"
     y="5.2104511"
     ry="6.7343965"
     rx="0" />
  <rect
     style="isolation:isolate;fill:url(#radialGradient5654-3);fill-opacity:1;stroke:none;stroke-width:6;stroke-miterlimit:4;stroke-dasharray:none;stroke-opacity:1"
     id="rect4190-95"
     width="10.888936"
     height="31.954615"
     x="443.5437"
     y="43.513027"
     ry="6.7343965" />
  <rect
     style="opacity:0.38500001;isolation:isolate;fill:url(#radialGradient5654-4-1-8-7-0);fill-opacity:1;stroke:none;stroke-width:6;stroke-miterlimit:4;stroke-dasharray:none;stroke-opacity:1"
     id="rect4190-9-2-2-7-9"
     width="19.808668"
     height="34.629833"
     x="411.53406"
     y="86.72245"
     ry="6.7343965"
     rx="0" />
  <rect
     style="opacity:0.38500001;isolation:isolate;fill:url(#radialGradient5654-4-1-8-7-0-6);fill-opacity:1;stroke:none;stroke-width:6;stroke-miterlimit:4;stroke-dasharray:none;stroke-opacity:1"
     id="rect4190-9-2-2-7-9-3"
     width="6.5744324"
     height="27.565369"
     x="404.0817"
     y="78.778442"
     ry="6.7343965"
     rx="0" />
  <rect
     style="isolation:isolate;fill:url(#radialGradient5654-7);fill-opacity:1;stroke:none;stroke-width:6;stroke-miterlimit:4;stroke-dasharray:none;stroke-opacity:1"
     id="rect4190-6"
     width="34.020077"
     height="21.740309"
     x="418.30548"
     y="5.733077"
     ry="7.1550322"
     rx="0" />
  <rect
     style="opacity:0.064;isolation:isolate;fill:#000000;fill-opacity:1;stroke:none;stroke-width:6;stroke-miterlimit:4;stroke-dasharray:none;stroke-opacity:1;filter:url(#filter5926)"
     id="rect4190-9-2-23-7"
     width="27.759598"
     height="30.327297"
     x="417.90237"
     y="21.633596"
     ry="15.163649"
     rx="13.879799"
     transform="matrix(1.1492432,1.239981,-1.9228282,1.451278,58.032074,-494.23217)" />
  <rect
     style="opacity:0.60799997;isolation:isolate;fill:url(#radialGradient5654-4-5);fill-opacity:1;stroke:none;stroke-width:6;stroke-miterlimit:4;stroke-dasharray:none;stroke-opacity:1"
     id="rect4190-9-0"
     width="47.028576"
     height="25.815182"
     x="490.61072"
     y="21.039949"
     ry="6.7343965"
     inkscape:transform-center-x="-3.8161581"
     inkscape:transform-center-y="27.835506" />
</svg>
