<?xml version="1.0" encoding="UTF-8" standalone="no"?>
<!-- Generator: Gravit.io -->
<svg id="svg2" xmlns:rdf="http://www.w3.org/1999/02/22-rdf-syntax-ns#" style="isolation:isolate" xmlns="http://www.w3.org/2000/svg" height="194.07" width="965.1" version="1.1" xmlns:cc="http://creativecommons.org/ns#" xmlns:xlink="http://www.w3.org/1999/xlink" viewBox="0 0 965.09998 194.07254" xmlns:dc="http://purl.org/dc/elements/1.1/">
 <metadata id="metadata62">
  <rdf:RDF>
   <cc:Work rdf:about="">
    <dc:format>image/svg+xml</dc:format>
    <dc:type rdf:resource="http://purl.org/dc/dcmitype/StillImage"/>
    <dc:title/>
   </cc:Work>
  </rdf:RDF>
 </metadata>
 <defs id="defs4">
  <linearGradient id="linearGradient4478">
   <stop id="stop4480" stop-color="#8d300a" offset="0"/>
   <stop id="stop4482" stop-color="#4a1905" stop-opacity="0" offset="1"/>
  </linearGradient>
  <linearGradient id="linearGradient4448">
   <stop id="stop4450" stop-color="#fff" stop-opacity=".39" offset="0"/>
   <stop id="stop4452" stop-color="#fff" stop-opacity="0" offset="1"/>
  </linearGradient>
  <linearGradient id="linearGradient4357">
   <stop id="stop4359" stop-color="#9f370a" offset="0"/>
   <stop id="stop4361" stop-color="#9f370a" stop-opacity="0" offset="1"/>
  </linearGradient>
  <linearGradient id="linearGradient5995">
   <stop id="stop5997" stop-color="#fff" stop-opacity=".272" offset="0"/>
   <stop id="stop5999" stop-color="#fff" stop-opacity="0" offset="1"/>
  </linearGradient>
  <linearGradient id="linearGradient5887">
   <stop id="stop5889" stop-color="#fff" offset="0"/>
   <stop id="stop5891" stop-color="#fff" stop-opacity="0" offset="1"/>
  </linearGradient>
  <radialGradient id="radialGradient5654" xlink:href="#linearGradient5887" gradientUnits="userSpaceOnUse" cy="19.467" cx="509.09" gradientTransform="matrix(.66549 -.20751 .0027082 .0086853 136.52 137.24)" r="34.682"/>
  <radialGradient id="radialGradient5654-7" xlink:href="#linearGradient5887" gradientUnits="userSpaceOnUse" cy="-84.474" cx="531" gradientTransform="matrix(.33794 -.27143 .0062740 .0078112 257.36 161.23)" r="34.682"/>
  <radialGradient id="radialGradient5654-4" xlink:href="#linearGradient5887" gradientUnits="userSpaceOnUse" cy="63.604" cx="509.02" gradientTransform="matrix(.62215 .31097 -.0040676 .0081378 160.81 -146.13)" r="34.682"/>
  <radialGradient id="radialGradient5654-4-1" xlink:href="#linearGradient5887" gradientUnits="userSpaceOnUse" cy="501.39" cx="478.42" gradientTransform="matrix(-.033083 .49981 -.018788 -.0012437 479.12 -217.92)" r="34.682"/>
  <radialGradient id="radialGradient5654-4-1-9" xlink:href="#linearGradient5887" gradientUnits="userSpaceOnUse" cy="2145.7" cx="460.8" gradientTransform="matrix(.35030 .071492 -.0018192 .0089140 277.17 -16.655)" r="34.682"/>
  <radialGradient id="radialGradient5654-4-1-2" xlink:href="#linearGradient5887" gradientUnits="userSpaceOnUse" cy="646.62" cx="486.58" gradientTransform="matrix(-.047977 .18731 -.0088133 -.0022574 449.06 -69.787)" r="34.682"/>
  <radialGradient id="radialGradient5654-4-1-2-9" xlink:href="#linearGradient5887" gradientUnits="userSpaceOnUse" cy="635.97" cx="474.75" gradientTransform="matrix(.027829 .22988 -.0090318 .0010934 491.16 -96.229)" r="34.682"/>
  <radialGradient id="radialGradient5654-4-1-2-0" gradientUnits="userSpaceOnUse" cy="433.91" cx="495.68" gradientTransform="matrix(-.19125 .18870 -.0063897 -.0064763 505.97 -50.033)" r="34.682">
   <stop id="stop5943" stop-color="#fff" stop-opacity=".272" offset="0"/>
   <stop id="stop5945" stop-color="#fff" stop-opacity="0" offset="1"/>
  </radialGradient>
  <radialGradient id="radialGradient5654-4-1-2-7-7" xlink:href="#linearGradient4448" gradientUnits="userSpaceOnUse" cy="144.87" cx="506.31" gradientTransform="matrix(.36659 .70917 -.0080818 .0041778 244.5 -304.65)" r="34.682"/>
  <linearGradient id="linearGradient4234" y2="12.465" xlink:href="#linearGradient5887" gradientUnits="userSpaceOnUse" x2="476.42" gradientTransform="translate(15.265 45.571)" y1="-5.4911" x1="459.09"/>
  <linearGradient id="linearGradient4416" y2="-27.957" xlink:href="#linearGradient5887" gradientUnits="userSpaceOnUse" x2="479.97" gradientTransform="translate(15.265 45.571)" y1="-50.676" x1="431.8"/>
  <linearGradient id="linearGradient4424" y2="-15.977" xlink:href="#linearGradient5887" gradientUnits="userSpaceOnUse" x2="478.92" gradientTransform="translate(15.265 45.571)" y1="-56.582" x1="415.89"/>
  <linearGradient id="linearGradient4426" y2="-.16150" xlink:href="#linearGradient5887" gradientUnits="userSpaceOnUse" x2="447.09" gradientTransform="translate(15.265 45.571)" y1="-35.121" x1="410.32"/>
  <linearGradient id="linearGradient4426-1" y2="-13.337" xlink:href="#linearGradient5887" gradientUnits="userSpaceOnUse" x2="422.64" gradientTransform="translate(26.78 49.153)" y1="-41.117" x1="397.96"/>
  <linearGradient id="linearGradient4458" y2="32.278" xlink:href="#linearGradient5887" gradientUnits="userSpaceOnUse" x2="403.03" gradientTransform="translate(15.265 45.571)" y1="-26.469" x1="395.41"/>
  <linearGradient id="linearGradient4466" y2="27.464" xlink:href="#linearGradient5887" gradientUnits="userSpaceOnUse" x2="389.64" gradientTransform="translate(15.265 45.571)" y1="-29.946" x1="385.49"/>
  <linearGradient id="linearGradient4474" y2="-7.8075" xlink:href="#linearGradient5887" gradientUnits="userSpaceOnUse" x2="413.8" gradientTransform="translate(15.265 45.571)" y1="-20.268" x1="391.98"/>
  <linearGradient id="linearGradient4458-1" y2="19.895" xlink:href="#linearGradient5887" gradientUnits="userSpaceOnUse" x2="410.9" gradientTransform="translate(29.943 50.591)" y1="-35.03" x1="386.13"/>
  <linearGradient id="linearGradient4458-1-4" y2="16.352" xlink:href="#linearGradient5887" gradientUnits="userSpaceOnUse" x2="422.01" gradientTransform="translate(43.833 50.431)" y1="-10.507" x1="408.97"/>
  <radialGradient id="radialGradient5654-4-18" xlink:href="#linearGradient5995" gradientUnits="userSpaceOnUse" cy="86.298" cx="503.29" gradientTransform="matrix(.45435 .37404 -.0057823 .0070238 242.99 -134.64)" r="34.682"/>
  <linearGradient id="linearGradient4243" y2="41.559" gradientUnits="userSpaceOnUse" x2="505.12" y1="84.895" x1="519.26">
   <stop id="stop4239" stop-color="#aa3b0b" offset="0"/>
   <stop id="stop4241" stop-color="#aa3b0b" stop-opacity="0" offset="1"/>
  </linearGradient>
  <linearGradient id="linearGradient4251" y2="76.648" gradientUnits="userSpaceOnUse" x2="492.85" y1="109.49" x1="505.61">
   <stop id="stop4247" stop-color="#8d300a" offset="0"/>
   <stop id="stop4249" stop-color="#4a1905" stop-opacity="0" offset="1"/>
  </linearGradient>
  <linearGradient id="linearGradient4275" y2="77.571" gradientUnits="userSpaceOnUse" x2="409.53" y1="125.59" x1="432.75">
   <stop id="stop4350" stop-color="#d2490f" offset="0"/>
   <stop id="stop4352" stop-color="#351204" stop-opacity="0" offset="1"/>
  </linearGradient>
  <linearGradient id="linearGradient4283" y2="46.823" gradientUnits="userSpaceOnUse" x2="396.85" y1="86.573" x1="403.1">
   <stop id="stop4271" stop-color="#d2490f" offset="0"/>
   <stop id="stop4273" stop-color="#d2490f" stop-opacity="0" offset="1"/>
  </linearGradient>
  <linearGradient id="linearGradient4291" y2="42.318" gradientUnits="userSpaceOnUse" x2="512.3" y1="32.965" x1="504.27">
   <stop id="stop4313" stop-color="#fff" stop-opacity=".283" offset="0"/>
   <stop id="stop4315" stop-color="#fff" stop-opacity="0" offset="1"/>
  </linearGradient>
  <linearGradient id="linearGradient4299" y2="38.766" gradientUnits="userSpaceOnUse" x2="523.92" y1="12.12" x1="499.2">
   <stop id="stop4307" stop-color="#fff" stop-opacity=".323" offset="0"/>
   <stop id="stop4309" stop-color="#fff" stop-opacity="0" offset="1"/>
  </linearGradient>
  <linearGradient id="linearGradient4307" y2="49.073" gradientUnits="userSpaceOnUse" x2="529.35" y1="83.573" x1="526.1">
   <stop id="stop4303" stop-color="#93340c" offset="0"/>
   <stop id="stop4305" stop-color="#93340c" stop-opacity="0" offset="1"/>
  </linearGradient>
  <linearGradient id="linearGradient4379" y2="61.361" xlink:href="#linearGradient4357" gradientUnits="userSpaceOnUse" x2="447.52" y1="115.66" x1="455.91"/>
  <linearGradient id="linearGradient4387" y2="67.402" gradientUnits="userSpaceOnUse" x2="469.1" y1="117.48" x1="482.83">
   <stop id="stop4383" stop-color="#872f0a" offset="0"/>
   <stop id="stop4385" stop-color="#cc470f" stop-opacity="0" offset="1"/>
  </linearGradient>
  <linearGradient id="linearGradient4403" y2="73.654" xlink:href="#linearGradient4357" gradientUnits="userSpaceOnUse" x2="417.17" y1="130.05" x1="430.38"/>
  <radialGradient id="radialGradient5654-4-18-0" xlink:href="#linearGradient5995" gradientUnits="userSpaceOnUse" cy="-65.778" cx="477.56" gradientTransform="matrix(-.066828 .41354 -.0089813 -.0014514 528.77 -157.01)" r="34.682"/>
  <radialGradient id="radialGradient5654-4-1-8" xlink:href="#linearGradient4478" gradientUnits="userSpaceOnUse" cy="495.36" cx="470.99" gradientTransform="matrix(-.10156 .51422 -.018473 -.0036485 544.39 -143.49)" r="34.682"/>
  <radialGradient id="radialGradient5654-4-1-8-7" xlink:href="#linearGradient4478" gradientUnits="userSpaceOnUse" cy="529.15" cx="467.19" gradientTransform="matrix(-.14649 .44596 -.017889 -.0058762 517.29 -100.78)" r="34.682"/>
  <radialGradient id="radialGradient5654-4-1-8-7-1" xlink:href="#linearGradient4478" gradientUnits="userSpaceOnUse" cy="285.04" cx="435.61" gradientTransform="matrix(.32373 .28716 -.012495 .014086 327.82 -25.081)" r="34.682"/>
  <radialGradient id="radialGradient5654-4-1-8-79" xlink:href="#linearGradient4478" gradientUnits="userSpaceOnUse" cy="670.34" cx="468.76" gradientTransform="matrix(.35208 .26702 -.011378 .015003 349.84 -52.86)" r="34.682"/>
  <radialGradient id="radialGradient5654-4-1-8-79-4-4" xlink:href="#linearGradient4478" gradientUnits="userSpaceOnUse" cy="1173.8" cx="420.1" gradientTransform="matrix(-.41381 .038151 -.0017286 -.018750 635.52 127.44)" r="34.682"/>
  <radialGradient id="radialGradient5654-4-1-8-79-5" xlink:href="#linearGradient4478" gradientUnits="userSpaceOnUse" cy="589.24" cx="472.83" gradientTransform="matrix(.55916 -.17175 .0070337 .022899 201.19 146.51)" r="34.682"/>
  <radialGradient id="radialGradient5654-4-1-8-79-5-5" xlink:href="#linearGradient4478" gradientUnits="userSpaceOnUse" cy="709.92" cx="447.35" gradientTransform="matrix(.22593 -.17630 .011584 .014845 394.63 131.53)" r="34.682"/>
  <radialGradient id="radialGradient5654-4-1-8-79-5-1" xlink:href="#linearGradient4478" gradientUnits="userSpaceOnUse" cy="659.93" cx="469.08" gradientTransform="matrix(.28310 0.0469 -.0030775 .018576 298.01 48.995)" r="34.682"/>
  <radialGradient id="radialGradient5654-1" xlink:href="#linearGradient4448" gradientUnits="userSpaceOnUse" cy="-56.948" cx="513.24" gradientTransform="matrix(.66946 -.19955 .0052814 .017718 125.66 181.98)" r="34.682"/>
  <radialGradient id="radialGradient5654-1-1" xlink:href="#linearGradient4448" gradientUnits="userSpaceOnUse" cy="28.216" cx="514" gradientTransform="matrix(.22584 -.18341 .0057355 .0070621 387.1 157)" r="34.682"/>
  <radialGradient id="radialGradient5654-1-6" xlink:href="#linearGradient4448" gradientUnits="userSpaceOnUse" cy="56.566" cx="516.09" gradientTransform="matrix(.32381 .055150 -.0023711 .013922 261.3 53.44)" r="34.682"/>
  <radialGradient id="radialGradient5654-4-1-8-79-4-1" xlink:href="#linearGradient4478" gradientUnits="userSpaceOnUse" cy="1296.2" cx="437.61" gradientTransform="matrix(-.046912 .28766 -.018584 -.0030307 494.35 -63.472)" r="34.682"/>
  <radialGradient id="radialGradient5654-4-1-8-7-1-4" xlink:href="#linearGradient4478" gradientUnits="userSpaceOnUse" cy="-504.41" cx="485.85" gradientTransform="matrix(.36188 -.22688 .0081166 .012946 323.28 228.09)" r="34.682"/>
  <radialGradient id="radialGradient5654-1-6-9-1-5" xlink:href="#linearGradient4448" gradientUnits="userSpaceOnUse" cy="321.85" cx="517.51" gradientTransform="matrix(-.094537 -.16860 .0079354 -.0044496 450.24 158.34)" r="34.682"/>
  <radialGradient id="radialGradient5654-4-1-2-7-7-3" xlink:href="#linearGradient4448" gradientUnits="userSpaceOnUse" cy="189.81" cx="500.23" gradientTransform="matrix(-.084987 .53484 -.0089851 -.0014277 457.56 -214.01)" r="34.682"/>
  <radialGradient id="radialGradient5654-4-1-8-6" xlink:href="#linearGradient4478" gradientUnits="userSpaceOnUse" cy="495.36" cx="470.99" gradientTransform="matrix(-.068431 .40464 -.018566 -.0031399 538.57 -143.77)" r="34.682"/>
  <radialGradient id="radialGradient5654-3" xlink:href="#linearGradient4448" gradientUnits="userSpaceOnUse" cy="36.458" cx="510.76" gradientTransform="matrix(-.075343 .47918 -.0089874 -.0014131 488.17 -186.37)" r="34.682"/>
  <radialGradient id="radialGradient5654-4-1-8-7-0" xlink:href="#linearGradient4478" gradientUnits="userSpaceOnUse" cy="363.06" cx="482.14" gradientTransform="matrix(.23263 .43841 -.016633 .0088257 316.22 -109.77)" r="34.682"/>
  <radialGradient id="radialGradient5654-4-1-8-7-0-6" xlink:href="#linearGradient4478" gradientUnits="userSpaceOnUse" cy="390.39" cx="469.01" gradientTransform="matrix(-.020796 .27776 -.012328 -.00092306 423.01 -36.775)" r="34.682"/>
  <filter id="filter5926" style="color-interpolation-filters:sRGB" height="1.6319" width="1.3728" y="-.31597" x="-.18641">
   <feGaussianBlur id="feGaussianBlur5928" stdDeviation="3.071984"/>
  </filter>
  <filter id="filter5974" style="color-interpolation-filters:sRGB" height="2.1663" width="1.8768" y="-.58314" x="-.43839">
   <feGaussianBlur id="feGaussianBlur5976" stdDeviation="6.43019"/>
  </filter>
  <radialGradient id="radialGradient5654-4-5" gradientUnits="userSpaceOnUse" cy="66.747" cx="508.56" gradientTransform="matrix(.28685 .19266 -.011879 .017686 368.78 -66.129)" r="34.682">
   <stop id="stop4349" stop-color="#fff" stop-opacity=".263" offset="0"/>
   <stop id="stop4351" stop-color="#fff" stop-opacity="0" offset="1"/>
  </radialGradient>
 </defs>
 <g fill-rule="evenodd" fill="#333">
  <path id="path12" d="m0.9 169.17q0-7.3 3.5-13.1 3.4-5.7 9.2-8.7t12.9-3q3.6 0 6.8 0.9 3.1 0.8 5.5 2.4 2.4 1.5 4.3 3.4 1.8 1.8 3.2 4l-8.4 4.7q-1.8-2.8-4.8-4.5-3-1.8-6.6-1.8-6.6 0-10.8 4.5-4.3 4.4-4.3 11.2 0 6.9 4.3 11.3 4.2 4.5 10.8 4.5 4.9 0 8-2.6 3.2-2.7 4.5-6.8h-15v-9h26.2q0 12.8-6.6 20.2-6.5 7.3-18 7.3-5 0-9.4-1.8-4.5-1.8-7.9-4.9-3.4-3.2-5.4-7.9t-2-10.3zm157.9 24h-34v-48h34v9h-23.8v10.1h23.3v9h-23.3v10.9h23.8v9zm77.3-14q-1.9-4.6-1.9-10 0-5.3 1.9-9.9 1.9-4.7 5.2-7.9 3.3-3.3 8-5.1 4.7-1.9 10-1.9 7.2 0 12.9 3.2 5.7 3.1 9 8.8 3.2 5.7 3.2 12.8 0 7.2-3.2 12.9-3.3 5.7-9 8.8-5.7 3.2-12.9 3.2-5.3 0-10-1.9-4.7-1.8-8-5.1-3.3-3.2-5.2-7.9zm8.7-10q0 6.9 4 11.3 4 4.5 10.5 4.5 6.6 0 10.6-4.5 4-4.4 4-11.3 0-6.8-4-11.3-4-4.4-10.6-4.4t-10.6 4.4q-3.9 4.5-3.9 11.3zm126.8 24h-10.2v-48h14.3l11.7 30 11.6-30h14.4v48h-10.3v-34.6l-13.5 34.6h-4.5l-13.5-34.6v34.6zm155.1 0h-34v-48h34v9h-23.7v10.1h23.2v9h-23.2v10.9h23.7v9zm88.9-39h-14.1v-9h38.3v9h-13.9v39h-10.3v-39zm110.8 39h-10.3v-48h22.5q7.4 0 11.8 4.3t4.4 11.2q0 3-0.9 5.6-0.9 2.5-2.5 4.2-1.5 1.7-3.3 2.8t-3.9 1.6l10.9 18.3h-11.8l-9.4-17h-7.5v17zm0-39v13h10.8q3.1 0 5.1-1.8t2-4.8q0-2.9-2-4.7-2-1.7-5.1-1.7h-10.8zm116 39h-10.2v-48h10.2v48zm77.1-24q0-7.2 3.3-12.9 3.4-5.7 9.2-8.8 5.9-3.1 13.1-3.1 3.8 0 7 1 3.3 0.9 5.7 2.6t4.2 3.7 3.1 4.4l-8.8 4.4q-1.5-3.1-4.6-5-3.1-2-6.6-2-6.6 0-10.9 4.5-4.2 4.4-4.2 11.2 0 6.9 4.2 11.3 4.3 4.5 10.9 4.5 3.5 0 6.6-2 3.1-1.9 4.6-5l8.8 4.3q-1.4 2.4-3.1 4.4-1.8 2-4.2 3.7t-5.7 2.7q-3.2 1-7 1-5.4 0-10.1-1.8-4.8-1.9-8.2-5.1t-5.4-7.8q-1.9-4.7-1.9-10.2z"/>
  <path id="path14" d="m594.4 124.67h-25.6v-120h56.2q18.4 0 29.5 10.8 11 10.8 11 27.8 0 7.6-2.3 14t-6.1 10.7q-3.9 4.3-8.4 7-4.5 2.8-9.6 4l27.1 45.7h-29.5l-23.6-42.6h-18.7v42.6zm0-97.5v32.4h27q7.7 0 12.8-4.4 5-4.5 5-12 0-7.3-5-11.7-5.1-4.3-12.8-4.3h-27zm108.9 37.6q0-18.2 8.4-32.4 8.5-14.3 23-22 14.6-7.8 32.7-7.8 9.4 0 17.6 2.5 8.1 2.4 14.1 6.6 6 4.3 10.5 9.3 4.4 4.9 7.8 11l-22 10.8q-3.9-7.5-11.5-12.5-7.7-4.9-16.5-4.9-16.5 0-27.2 11.2-10.6 11.1-10.6 28.2 0 17 10.6 28.2 10.7 11.2 27.2 11.2 8.8 0 16.5-4.9 7.6-5 11.5-12.5l22 10.6q-3.5 6.1-7.8 11-4.4 5-10.4 9.3-6.1 4.3-14.2 6.8-8.2 2.4-17.6 2.4-13.5 0-25.3-4.5-11.8-4.6-20.4-12.7-8.6-8-13.5-19.6-4.9-11.7-4.9-25.3zm179.3 59.9h-25.5v-120h25.5v47.2h56.7v-47.2h25.8v120h-25.8v-50.5h-56.7v50.5z"/>
  <path id="path16" d="m25.6 124.67h-25.6v-120h56.2q9.5 0 17.2 3 7.8 3.1 12.8 8.4 4.9 5.3 7.6 12.3 2.7 6.9 2.7 14.9 0 7.9-2.7 14.9-2.7 6.9-7.7 12.3-5 5.3-12.7 8.3-7.7 3.1-17.2 3.1h-30.6v42.8zm0-97.5v32.2h27q7.7 0 12.7-4.4 5.1-4.4 5.1-11.7t-5.1-11.7q-5-4.4-12.7-4.4h-27zm144.9 48.4-46.1-70.9h29.2l29.7 48 29.6-48h29l-45.8 70.9v49.1h-25.6v-49.1zm134.8-48.4h-35.2v-22.5h95.8v22.5h-34.9v97.5h-25.7v-97.5z"/>
 </g>
 <path id="path20" d="m497.85 5.635-42.75-4.0625-33.062 9.8125-26.938 42.688 12.5 50 25 20 20 2.5 40-10 30-22.5 5-10 1.3125-41.438z" fill="#ef5818"/>
 <g>
  <path id="path22" opacity=".353" d="m452.6 39.072 47.5-14.999l-7.5 47.5z" fill="url(#linearGradient4234)"/>
  <path id="path24" d="m522.6 94.073-17.53 22.293-25.271 11.234-22.54 1.5175-24.658-5.0442 50-5z" fill="#732908"/>
  <path id="path26" d="m500.1 24.073-45-22.5-2.5 37.5 47.5-15z" fill="url(#linearGradient4424)"/>
  <path id="path28" d="m455.1 1.5725 42.75 4.0625 2.25 18.438z" fill="url(#linearGradient4416)"/>
  <path id="path30" opacity=".434" d="m497.77 5.5227 31.13 37.103-28.8-18.553z" fill="url(#linearGradient4299)"/>
  <path id="path32" opacity=".465" d="m500.1 24.073-7.5 47.5 36.314-28.934z" fill="url(#linearGradient4291)"/>
  <path id="path34" d="m528.91 42.51-1.3125 41.562-5 10z" fill="url(#linearGradient4307)"/>
  <path id="path36" d="m445.28 85.802 47.32-14.229-9.98 47.567z" fill="url(#linearGradient4387)"/>
  <path id="path38" d="m482.6 119.07 40-25-30-22.5-10 47.5z" fill="url(#linearGradient4251)"/>
  <path id="path42" d="m445.2 85.74-35.949-6.2395 7.6448-47.471z" fill="url(#linearGradient4458)"/>
  <path id="path44" d="m416.92 32.076 38.18-30.504-2.5 37.501z" fill="url(#linearGradient4426)"/>
 </g>
 <path id="path46" d="m455.1 1.5725-30 7.5-10 22.5 40-30z" fill-opacity="0"/>
 <g>
  <path id="path48" d="m432.6 124.07-25-20 1.6322-24.594z" fill="url(#linearGradient4275)"/>
  <path id="path50" d="m482.6 119.07-37.32-33.246-12.68 38.246z" fill="url(#linearGradient4379)"/>
  <path id="path52" d="m432.6 124.07-23.346-44.555 36.023 6.2847z" fill="url(#linearGradient4403)"/>
  <path id="path54" d="m422.07 11.324-26.97 42.749 21.81-22.014z" fill="url(#linearGradient4474)"/>
  <path id="path56" d="m407.6 104.07-12.5-49.997 14.16 25.472z" fill="url(#linearGradient4283)"/>
  <path id="path58" d="m409.24 79.49-14.14-25.417 21.81-22.032z" fill="url(#linearGradient4466)"/>
  <rect id="rect4190" ry="6.7344" height="18.52" width="49.161" y="22.358" x="450.91" fill="url(#radialGradient5654)"/>
  <rect id="rect4190-9" opacity="0.608" style="isolation:isolate" ry="6.7344" height="25.815" width="47.029" y=".68779" x="453.79" fill="url(#radialGradient5654-4)"/>
  <rect id="rect4190-9-2" style="isolation:isolate" ry="6.7344" height="38.105" width="8.1374" y="1.0069" x="448.83" fill="url(#radialGradient5654-4-1)"/>
  <rect id="rect4190-9-2-1" style="isolation:isolate" ry="5.4998" height="11" width="29.519" y="31.674" x="420.5" fill="url(#radialGradient5654-4-1-9)"/>
  <rect id="rect4190-9-2-9" style="isolation:isolate" ry="6.7344" height="23.676" width="8.6782" y="9.5052" x="415.92" fill="url(#radialGradient5654-4-1-2)"/>
  <rect id="rect4190-9-2-9-0" opacity=".357" style="isolation:isolate" ry="6.7344" height="21.662" width="7.6323" y="2.8201" x="494.73" fill="url(#radialGradient5654-4-1-2-9)"/>
  <rect id="rect4190-9-2-9-01" style="isolation:isolate" ry="6.7344" height="22.224" width="18.071" y="28.743" x="399.13" fill="url(#radialGradient5654-4-1-2-0)"/>
  <rect id="rect4190-9-2-9-6-5" style="isolation:isolate" ry="6.7344" height="51.665" width="32.373" y="31.325" x="411.7" fill="url(#radialGradient5654-4-1-2-7-7)"/>
  <path id="path44-2" style="isolation:isolate" d="m422.05 11.373 33.06-9.8095-38.2 30.51z" fill="url(#linearGradient4426-1)"/>
  <path id="path42-2" style="isolation:isolate" d="m452.6 39.067-7.31 46.676-28.37-53.68z" fill="url(#linearGradient4458-1)"/>
  <path id="path42-2-6" opacity="0.461" style="isolation:isolate" d="m492.6 71.598-47.38 14.156 7.38-46.683z" fill="url(#linearGradient4458-1-4)"/>
  <rect id="rect4190-9-5" opacity="0.608" style="isolation:isolate" ry="6.7344" height="27.755" width="34.272" y="42.344" x="455.43" fill="url(#radialGradient5654-4-18)"/>
  <path id="path32-1" style="isolation:isolate" d="m492.59 71.583 30.013 22.495 6.2956-51.433z" fill="url(#linearGradient4243)"/>
  <path id="path40-1" style="isolation:isolate" d="m482.61 119.07-25.367 10.026-24.648-5.0272z" fill="#94330b"/>
  <rect id="rect4190-9-5-3" opacity="0.608" style="isolation:isolate" ry="6.7344" height="41.456" width="10.921" y="25.559" x="491.15" fill="url(#radialGradient5654-4-18-0)"/>
  <rect id="rect4190-9-2-2" opacity="0.385" style="isolation:isolate" rx="0" ry="6.7344" height="42.98" width="12.012" y="76.207" x="480.49" fill="url(#radialGradient5654-4-1-8)"/>
  <rect id="rect4190-9-2-2-7" opacity="0.385" style="isolation:isolate" rx="0" ry="6.7344" height="40.73" width="15.387" y="87.546" x="432.35" fill="url(#radialGradient5654-4-1-8-7)"/>
  <rect id="rect4190-9-2-2-7-7" opacity="0.542" style="isolation:isolate" rx="0" ry="6.7344" height="30.231" width="37.573" y="93.15" x="448.62" fill="url(#radialGradient5654-4-1-8-7-1)"/>
  <rect id="rect4190-9-2-2-9" opacity=".495" style="isolation:isolate" rx="0" ry="6.7344" height="29.192" width="35.347" y="68.814" x="488.61" fill="url(#radialGradient5654-4-1-8-79)"/>
  <rect id="rect4190-9-2-2-9-2-5" opacity=".613" style="isolation:isolate" rx="0" ry="6.7344" height="13.567" width="31.722" y="113.91" x="444.14" fill="url(#radialGradient5654-4-1-8-79-4-4)"/>
  <rect id="rect4190-9-2-2-9-3" opacity="0.529" style="isolation:isolate" rx="0" ry="6.7344" height="19.535" width="42.506" y="70.46" x="448.32" fill="url(#radialGradient5654-4-1-8-79-5)"/>
  <rect id="rect4190-9-2-2-9-3-4" opacity="0.38" style="isolation:isolate" rx="0" ry="6.7344" height="23.535" width="42.506" y="47.118" x="490.43" fill="url(#radialGradient5654-4-1-8-79-5-5)"/>
  <rect id="rect4190-9-2-2-9-3-6" opacity="0.495" style="isolation:isolate" rx="0" ry="5.3373" height="10.851" width="25.403" y="78.095" x="415.16" fill="url(#radialGradient5654-4-1-8-79-5-1)"/>
  <rect id="rect4190-7" style="isolation:isolate" rx="0" ry="6.7344" height="16.31" width="50.929" y="71.24" x="442.21" fill="url(#radialGradient5654-1)"/>
  <rect id="rect4190-7-8" style="isolation:isolate" ry="6.7344" height="18.52" width="49.161" y="54.125" x="477.11" fill="url(#radialGradient5654-1-1)"/>
  <rect id="rect4190-7-4" style="isolation:isolate" ry="5.5917" height="11.89" width="25.65" y="75.578" x="415.43" fill="url(#radialGradient5654-1-6)"/>
  <rect id="rect4190-9-2-2-9-2-6" opacity="0.114" style="isolation:isolate" rx="0" ry="6.7344" height="31.647" width="9.9496" y="45.363" x="445.53" fill="url(#radialGradient5654-4-1-8-79-4-1)"/>
  <path id="path40-1-2" style="isolation:isolate" d="m505.04 116.37-25.135 11.177 2.6984-8.4949z" fill="#672308"/>
  <rect id="rect4190-9-2-2-7-7-6" style="isolation:isolate" rx="0" ry="6.7344" height="22.981" width="37.948" y="98.457" x="479.34" fill="url(#radialGradient5654-4-1-8-7-1-4)"/>
  <rect id="rect4190-7-4-7-7-1" style="isolation:isolate" ry="6.7344" height="16.426" width="11.204" y="62.16" x="397.89" fill="url(#radialGradient5654-1-6-9-1-5)"/>
  <rect id="rect4190-9-2-9-6-5-9" style="isolation:isolate" rx="0" ry="6.7344" height="41.314" width="9.7626" y="33.286" x="407.63" fill="url(#radialGradient5654-4-1-2-7-7-3)"/>
  <rect id="rect4190-9-2-23" opacity="0.38" style="isolation:isolate" transform="matrix(.69966 .54435 -0.872 .91392 158.58 -236.07)" rx="13.88" ry="15.164" height="30.327" filter="url(#filter5974)" width="27.76" y="21.634" x="417.9" fill="#fff"/>
  <rect id="rect4190-9-2-2-2" opacity=".178" style="isolation:isolate" rx="0" ry="6.7344" height="42.98" width="12.012" y="24.567" x="490.23" fill="url(#radialGradient5654-4-1-8-6)"/>
 </g>
 <rect id="rect4190-9-2-2-2-9" opacity="0.168" style="isolation:isolate" fill-opacity="0" rx="0" ry="6.7344" height="19.23" width="10.012" y="5.2105" x="494.07"/>
 <g>
  <rect id="rect4190-95" style="isolation:isolate" ry="6.7344" height="31.955" width="10.889" y="43.513" x="443.54" fill="url(#radialGradient5654-3)"/>
  <rect id="rect4190-9-2-2-7-9" opacity="0.385" style="isolation:isolate" rx="0" ry="6.7344" height="34.63" width="19.809" y="86.722" x="411.53" fill="url(#radialGradient5654-4-1-8-7-0)"/>
  <rect id="rect4190-9-2-2-7-9-3" opacity="0.385" style="isolation:isolate" rx="0" ry="6.7344" height="27.565" width="6.5744" y="78.778" x="404.08" fill="url(#radialGradient5654-4-1-8-7-0-6)"/>
  <rect id="rect4190-6" style="isolation:isolate" rx="0" ry="7.155" height="21.74" width="34.02" y="5.7331" x="418.31" fill="url(#radialGradient5654-7)"/>
  <rect id="rect4190-9-2-23-7" opacity=".064" style="isolation:isolate" transform="matrix(1.1492 1.24 -1.9228 1.4513 58.032 -494.23)" rx="13.88" ry="15.164" height="30.327" filter="url(#filter5926)" width="27.76" y="21.634" x="417.9"/>
  <rect id="rect4190-9-0" opacity="0.608" style="isolation:isolate" ry="6.7344" height="25.815" width="47.029" y="21.04" x="490.61" fill="url(#radialGradient5654-4-5)"/>
 </g>
</svg>
