<?xml version="1.0" standalone="no"?><!-- Generator: Gravit.io --><svg xmlns="http://www.w3.org/2000/svg" xmlns:xlink="http://www.w3.org/1999/xlink" style="isolation:isolate" viewBox="342.849 692 1405.151 401" width="1405.151" height="401"><path d=" M 982.9 814.6 C 982.9 782.9 963.1 762.7 935.6 762.7 C 908.1 762.7 887 783.6 887 815 C 887 846.6 907 866.8 934.5 866.8 C 961.8 866.8 982.9 845.9 982.9 814.6 Z  M 969.8 815 C 969.8 838.2 956 854.8 935.2 854.8 C 914.3 854.8 900.4 838.6 900.4 814.6 C 900.4 791.3 914.1 774.8 935 774.8 C 955.8 774.8 969.8 790.9 969.8 815 Z  M 1015 864 L 1015 800.8 C 1022.7 782.9 1032.4 775.4 1042.7 775.4 C 1048.5 775.4 1053.5 777.1 1057.8 779.7 L 1061.2 767.3 C 1056.7 764.7 1050.7 762.7 1044 762.7 C 1031.1 762.7 1021.6 770.9 1015 783.8 L 1015 762.7 L 1001.6 765.5 L 1001.6 864 L 1015 864 Z  M 1144.4 858.4 L 1141.6 846.2 C 1134.1 851.1 1124.4 854.3 1114.3 854.3 C 1093.5 854.3 1079.5 838.6 1079.5 814.6 C 1079.5 791.3 1092.6 775.2 1114.1 775.2 C 1124.4 775.2 1133.9 778.2 1141.4 783.2 L 1144.9 771.1 C 1136.5 765.7 1126.1 762.7 1114.1 762.7 C 1086.2 762.7 1065.7 784.2 1065.7 815 C 1065.7 845.5 1084 866.8 1113.9 866.8 C 1125.3 866.8 1136 863.6 1144.4 858.4 Z  M 1228.1 864 L 1241.4 864 L 1241.4 796.5 C 1241.4 775 1229.8 762.7 1210.7 762.7 C 1199.7 762.7 1186.8 768.1 1176.5 778.4 L 1176.5 716.3 L 1163.1 719.1 L 1163.1 864 L 1176.5 864 L 1176.5 789.4 C 1184.9 781 1195.6 775.4 1207 775.4 C 1221.4 775.4 1228.1 783.2 1228.1 800.4 L 1228.1 864 Z  M 760.6 862.9 L 798.9 765.5 L 784.9 765.5 L 754.6 846.8 L 723.6 765.5 L 709.2 765.5 L 747.7 862.5 L 741.1 879.9 C 734.2 898.6 728.4 902.7 720.8 902.7 C 715.5 902.7 710.7 901 705.8 898.4 L 701.7 910.7 C 707.7 913.2 713.3 915.2 720.8 915.2 C 734.4 915.2 743.4 908.5 752.7 884.2 L 760.6 862.9 Z  M 845.8 742.5 L 893.1 742.5 L 893.1 729.6 L 784.7 729.6 L 784.7 742.5 L 832 742.5 L 832 864 L 845.8 864 L 845.8 742.5 Z  M 700.4 771.6 C 700.4 746.8 683.4 729.6 648 729.6 L 614.2 729.6 L 614.2 864 L 628 864 L 628 816.7 L 646.2 816.5 C 679.8 815.8 700.4 801 700.4 771.6 Z  M 686.2 772.2 C 686.2 793.1 672.7 802.9 647.1 803.6 L 628 804 L 628 742.3 L 647.5 742.3 C 672.7 742.3 686.2 753.1 686.2 772.2 Z " fill-rule="evenodd" fill="rgb(37,37,37)"/><path d=" M 837.7 909.2 C 837.7 902 842 897 849.2 897 C 856.9 897 860.9 902.1 860.9 908.9 C 860.9 916 856.6 920.9 849.5 920.9 C 842 920.9 837.7 915.9 837.7 909.2 Z  M 843.1 940.3 C 845.8 940.6 849.6 940.6 852.7 940.6 C 861.9 940.6 866.6 942.4 866.6 947.9 C 866.6 954.1 858.9 958.7 849.4 958.7 C 839.7 958.7 833.8 954.8 833.8 949.3 C 833.8 945.4 837.5 941.8 843.1 940.3 Z  M 837.7 939.1 C 831.7 940.6 827.8 945.2 827.8 950.4 C 827.8 958.4 836.2 963.8 848.5 963.8 C 861.3 963.8 872.6 956.8 872.6 946.8 C 872.6 939.2 866.9 934.8 853.6 934.8 L 847.7 934.8 C 839.6 934.8 837.3 933 837.3 930.1 C 837.3 927.4 840 925.7 842.4 924.6 C 844.7 925.4 846.7 925.9 849.2 925.9 C 859.3 925.9 867 918.8 867 909.1 C 867 905.4 865.6 901.1 863.3 898.8 L 873.4 899.8 L 873.1 893.6 L 860.4 894.6 C 857.9 893.1 854.4 891.9 849.6 891.9 C 838.8 891.9 831.6 899.4 831.6 909.1 C 831.6 915.5 834.6 920.4 839 923.1 C 834.7 924.7 831.5 927.9 831.5 931.8 C 831.5 935.1 833.8 937.6 837.7 939.1 Z  M 885.8 916.8 L 885.8 916.3 L 916.8 916.1 C 917.5 914.1 917.8 911.2 917.8 908.8 C 917.8 898.4 911.2 891.9 901.1 891.9 C 888.7 891.9 879.5 902.1 879.5 916.5 C 879.5 930.5 888.4 940.3 901.6 940.3 C 907.3 940.3 912.4 938.8 916.3 936.4 L 915.1 930.7 C 911.6 933 906.9 934.5 901.8 934.5 C 892.2 934.5 886.1 927.2 885.8 916.8 Z  M 911.6 911.3 L 886.2 911.4 C 887.3 903.8 892.4 897.5 900.7 897.5 C 907.9 897.5 911.7 902.2 911.7 909.3 C 911.7 909.8 911.7 910.8 911.6 911.3 Z  M 972.6 916 C 972.6 901.3 963.4 891.9 950.6 891.9 C 937.8 891.9 928 901.6 928 916.2 C 928 930.9 937.3 940.3 950.1 940.3 C 962.8 940.3 972.6 930.6 972.6 916 Z  M 966.5 916.2 C 966.5 927 960.1 934.7 950.4 934.7 C 940.7 934.7 934.2 927.2 934.2 916 C 934.2 905.2 940.6 897.5 950.3 897.5 C 960 897.5 966.5 905 966.5 916.2 Z  M 1042.8 939 L 1049 939 L 1049 907.7 C 1049 897.6 1043.7 891.9 1034.9 891.9 C 1029.6 891.9 1023.8 894.4 1018.7 899.5 C 1016.4 894.4 1012 891.9 1006.3 891.9 C 1001.6 891.9 996.5 893.9 991.8 898.2 L 991.8 891.9 L 985.6 893.2 L 985.6 939 L 991.8 939 L 991.8 903.1 C 995.3 900 999.7 897.8 1004.5 897.8 C 1011.2 897.8 1014.2 901.5 1014.2 909.5 L 1014.2 939 L 1020.4 939 L 1020.4 907.8 C 1020.4 906.7 1020.3 904.4 1020.2 903.7 C 1023.7 900.4 1028.2 897.8 1033.1 897.8 C 1039.8 897.8 1042.8 901.5 1042.8 909.5 L 1042.8 939 Z  M 1067.9 916.8 L 1067.9 916.3 L 1098.9 916.1 C 1099.6 914.1 1099.9 911.2 1099.9 908.8 C 1099.9 898.4 1093.3 891.9 1083.2 891.9 C 1070.8 891.9 1061.6 902.1 1061.6 916.5 C 1061.6 930.5 1070.5 940.3 1083.7 940.3 C 1089.4 940.3 1094.5 938.8 1098.4 936.4 L 1097.2 930.7 C 1093.7 933 1089 934.5 1083.9 934.5 C 1074.3 934.5 1068.2 927.2 1067.9 916.8 Z  M 1093.7 911.3 L 1068.3 911.4 C 1069.4 903.8 1074.5 897.5 1082.8 897.5 C 1090 897.5 1093.8 902.2 1093.8 909.3 C 1093.8 909.8 1093.8 910.8 1093.7 911.3 Z  M 1135.9 938.1 L 1134.8 932.7 C 1132 933.9 1129.1 934.9 1126 934.9 C 1121.3 934.9 1119.1 932 1119.3 926.3 L 1120 898.9 L 1135.2 898.9 L 1135.5 893.4 L 1120.2 893.4 L 1120.5 882.7 L 1114.6 882.7 L 1114.3 893.1 L 1107.4 894.7 L 1107.1 898.6 L 1114.1 899 L 1113.4 926.1 C 1113.1 935.7 1116.9 940.5 1125.7 940.5 C 1129 940.5 1132.7 939.6 1135.9 938.1 Z  M 1153.7 939 L 1153.7 909.6 C 1157.3 901.3 1161.8 897.8 1166.6 897.8 C 1169.3 897.8 1171.6 898.6 1173.6 899.8 L 1175.2 894 C 1173.1 892.8 1170.3 891.9 1167.2 891.9 C 1161.2 891.9 1156.8 895.7 1153.7 901.7 L 1153.7 891.9 L 1147.5 893.2 L 1147.5 939 L 1153.7 939 Z  M 1192 878.1 C 1192 875.8 1190.6 873.7 1187.8 873.7 C 1185 873.7 1183.6 875.8 1183.6 878.1 C 1183.6 880.5 1185 882.7 1187.8 882.7 C 1190.6 882.7 1192 880.5 1192 878.1 Z  M 1184.7 939 L 1190.9 939 L 1190.9 891.9 L 1184.7 893.2 L 1184.7 939 Z  M 1240.6 936.4 L 1239.3 930.7 C 1235.8 933 1231.3 934.5 1226.6 934.5 C 1216.9 934.5 1210.4 927.2 1210.4 916 C 1210.4 905.2 1216.5 897.7 1226.5 897.7 C 1231.3 897.7 1235.7 899.1 1239.2 901.4 L 1240.8 895.8 C 1236.9 893.3 1232.1 891.9 1226.5 891.9 C 1213.5 891.9 1204 901.9 1204 916.2 C 1204 930.4 1212.5 940.3 1226.4 940.3 C 1231.7 940.3 1236.7 938.8 1240.6 936.4 Z " fill-rule="evenodd" fill="rgb(37,37,37)"/><g id="Group"><path d=" M 411.3 715.6 L 359.8 778.9 L 470.7 743.3 L 411.3 715.6 Z " fill="rgb(192,61,36)" vector-effect="non-scaling-stroke" stroke-width="2.3" stroke="rgb(89,28,16)" stroke-linejoin="round" stroke-linecap="round" stroke-miterlimit="3"/><path d=" M 359.8 778.9 L 439 850.2 L 470.7 743.3 L 359.8 778.9 Z " fill="rgb(230,73,42)" vector-effect="non-scaling-stroke" stroke-width="2.3" stroke="rgb(89,28,16)" stroke-linejoin="round" stroke-linecap="round" stroke-miterlimit="3"/><path d=" M 542 834.4 L 474.7 929.4 L 439 850.2 L 542 834.4 Z " fill="rgb(204,65,38)" vector-effect="non-scaling-stroke" stroke-width="2.3" stroke="rgb(89,28,16)" stroke-linejoin="round" stroke-linecap="round" stroke-miterlimit="3"/><path d=" M 359.8 778.9 L 344 810.6 L 359.8 893.8 L 359.8 778.9 Z " fill="rgb(144,46,27)" vector-effect="non-scaling-stroke" stroke-width="2.3" stroke="rgb(89,28,16)" stroke-linejoin="round" stroke-linecap="round" stroke-miterlimit="3"/><path d=" M 359.8 778.9 L 439 850.2 L 359.8 893.8 L 359.8 778.9 Z " fill="rgb(197,63,36)" vector-effect="non-scaling-stroke" stroke-width="2.3" stroke="rgb(89,28,16)" stroke-linejoin="round" stroke-linecap="round" stroke-miterlimit="3"/><path d=" M 359.8 893.8 L 474.7 929.4 L 439 850.2 L 359.8 893.8 Z " fill="rgb(181,58,33)" vector-effect="non-scaling-stroke" stroke-width="2.3" stroke="rgb(89,28,16)" stroke-linejoin="round" stroke-linecap="round" stroke-miterlimit="3"/><path d=" M 439 850.2 L 470.7 743.3 L 542 834.4 L 439 850.2 Z " fill="rgb(233,75,43)" vector-effect="non-scaling-stroke" stroke-width="2.3" stroke="rgb(89,28,16)" stroke-linejoin="round" stroke-linecap="round" stroke-miterlimit="3"/><path d=" M 542 834.4 L 526.2 870 L 474.7 929.4 L 542 834.4 Z " fill="rgb(147,47,27)" vector-effect="non-scaling-stroke" stroke-width="2.3" stroke="rgb(89,28,16)" stroke-linejoin="round" stroke-linecap="round" stroke-miterlimit="3"/><path d=" M 470.7 743.3 L 542 834.4 L 526.2 751.2 L 470.7 743.3 Z " fill="rgb(199,63,37)" vector-effect="non-scaling-stroke" stroke-width="2.3" stroke="rgb(89,28,16)" stroke-linejoin="round" stroke-linecap="round" stroke-miterlimit="3"/><path d=" M 411.3 715.6 L 470.7 743.3 L 526.2 751.2 L 411.3 715.6 Z " fill="rgb(174,55,32)" vector-effect="non-scaling-stroke" stroke-width="2.3" stroke="rgb(89,28,16)" stroke-linejoin="round" stroke-linecap="round" stroke-miterlimit="3"/></g></svg>