<svg id="Layer_1" data-name="Layer 1" xmlns="http://www.w3.org/2000/svg" viewBox="0 0 688.64 231.14"><defs><style>.cls-1{fill:#42a5f5;}.cls-2{fill:#1e88e5;}.cls-3{fill:#1565c0;}.cls-4{fill:#6d44c6;}.cls-5{fill:#f57c00;}.cls-6{fill:#512da8;}.cls-7{fill:#ff9800;}.cls-8{fill:#ffc107;}.cls-9{fill:#815fe0;}.cls-10{fill:#232332;}.cls-11{fill:#fff;}.cls-12{fill:#3c2179;}</style></defs><path class="cls-1" d="M157,76.77a9.87,9.87,0,0,1-.13-1.53L133,71.75a11.13,11.13,0,0,1-7.79,8.65L128,105.7a11.07,11.07,0,0,1,5.15,1.75l25.67-26.4A11.07,11.07,0,0,1,157,76.77Z" transform="translate(-7.19 -3.6)"/><path class="cls-2" d="M123.69,106.18l-2.77-25.36a11.13,11.13,0,0,1-5.79-2.32L87.94,109a11,11,0,0,1,3.27,5.63h24.85A11.12,11.12,0,0,1,123.69,106.18Z" transform="translate(-7.19 -3.6)"/><path class="cls-3" d="M47.25,114.57l21,53.7a11.12,11.12,0,0,1,11.08,5.65l26.46-8.76a11.06,11.06,0,0,1,2.22-8.11L84.18,127.66a10.09,10.09,0,0,1-1.75.51,11.18,11.18,0,0,1-13.05-8.91,11.32,11.32,0,0,1-.11-3L51,110.49A11,11,0,0,1,47.25,114.57Z" transform="translate(-7.19 -3.6)"/><path class="cls-4" d="M145.15,191a11.16,11.16,0,0,1,8.29-6.86c.3-.06.59,0,.88-.08L157.41,147a11.08,11.08,0,0,1-5.22-3.63l-25.08,16.13a11.06,11.06,0,0,1,.67,2.23,11.14,11.14,0,0,1-20.7,7.48L80.61,178c0,.33.07.66.08,1Z" transform="translate(-7.19 -3.6)"/><path class="cls-2" d="M93.59,51.34a11.1,11.1,0,0,1-6.23-.63L49.74,98a11,11,0,0,1,2.5,5.13,11.17,11.17,0,0,1,.07,3.31l18.14,5.73a11,11,0,0,1,13.77-5.37l28.09-31.54A11.35,11.35,0,0,1,111,71.82a11.06,11.06,0,0,1,2.3-9L98.89,48.71A11,11,0,0,1,93.59,51.34Z" transform="translate(-7.19 -3.6)"/><path class="cls-2" d="M168.74,85.79l-4.87,39.95a11.16,11.16,0,0,1,6.68,5.21l32.54-7.58a11.08,11.08,0,0,1,2-6.81L174,84.09a9.44,9.44,0,0,1-5.23,1.7Z" transform="translate(-7.19 -3.6)"/><path class="cls-5" d="M176.28,40.75l-73.76,1.3a10.92,10.92,0,0,1-1,3.24L116.62,60a11,11,0,0,1,16.29,7.39L157.45,71a11,11,0,0,1,13.71-7l9-17A11.06,11.06,0,0,1,176.28,40.75Z" transform="translate(-7.19 -3.6)"/><path class="cls-3" d="M135.49,124a11,11,0,0,1-6.42,3.79,11.52,11.52,0,0,1-2.4.18l-5.78,25.51a11.18,11.18,0,0,1,3.85,2.5l25.48-16.39c-.1-.35-.24-.68-.31-1a11,11,0,0,1,.62-6.17Z" transform="translate(-7.19 -3.6)"/><path class="cls-2" d="M159.6,125.41l4.89-40.14A11.24,11.24,0,0,1,161.84,84l-25.67,26.4a10.89,10.89,0,0,1,1.41,9.8l15.26,8.51a11,11,0,0,1,6-3.26C159.08,125.43,159.34,125.44,159.6,125.41Z" transform="translate(-7.19 -3.6)"/><path class="cls-3" d="M111.21,154.21a11.08,11.08,0,0,1,3.53-1.36,11.53,11.53,0,0,1,1.93-.17L122.49,127a11.14,11.14,0,0,1-6.45-8.09l-24.68,0a11.14,11.14,0,0,1-3.49,6.55Z" transform="translate(-7.19 -3.6)"/><path class="cls-6" d="M150.43,205a10.86,10.86,0,0,1-6.07-9.81L80,183.2a11.13,11.13,0,0,1-8.36,7.08,10.88,10.88,0,0,1-3.46.05L57.83,217.14l84.05,17.6Z" transform="translate(-7.19 -3.6)"/><path class="cls-6" d="M64.12,189a11.07,11.07,0,0,1,0-19.39L43.27,116.13a11.16,11.16,0,0,1-8.07-1.63L7.57,143.05l46.7,71.44Z" transform="translate(-7.19 -3.6)"/><path class="cls-6" d="M166.64,195.69a11.16,11.16,0,0,1-9.06,10.44,10.88,10.88,0,0,1-3.06.1l-7.79,27.17,68.49-44.77Z" transform="translate(-7.19 -3.6)"/><path class="cls-7" d="M195.73,31.31a10.94,10.94,0,0,1,2.42,5,11.12,11.12,0,0,1-5.62,11.81l20.39,63.77a11.14,11.14,0,0,1,12.26,9,11.26,11.26,0,0,1,.19,2.23l14.37,3L215.9,6.57Z" transform="translate(-7.19 -3.6)"/><path class="cls-4" d="M224.49,127.33A11.07,11.07,0,0,1,209,132.8L164.05,188a10.91,10.91,0,0,1,1.95,3.42l54.3-7.9,19.16-53.09Z" transform="translate(-7.19 -3.6)"/><path class="cls-5" d="M32.12,111.53a11,11,0,0,1-1.83-4.31,11.18,11.18,0,0,1,8.91-13,11,11,0,0,1,7.19,1.11L83.75,48.37a11.1,11.1,0,0,1-2.6-3.87L24.37,55.2,7.19,137.28Z" transform="translate(-7.19 -3.6)"/><path class="cls-5" d="M208.85,113.24,188.46,49.47a11.13,11.13,0,0,1-4.54-.41l-9,17A11,11,0,0,1,177,81.13l31.12,32.47C208.39,113.46,208.63,113.36,208.85,113.24Z" transform="translate(-7.19 -3.6)"/><path class="cls-8" d="M106.12,3.6l71.7,28.76a11,11,0,0,1,14.62-3.73L212.6,3.85Z" transform="translate(-7.19 -3.6)"/><path class="cls-7" d="M80.36,40.29a11.14,11.14,0,0,1,22-2.52l73.87-1.3s0-.09,0-.14L98.15,5,29.53,49.87Z" transform="translate(-7.19 -3.6)"/><path class="cls-9" d="M205.67,130.1a11,11,0,0,1-1.62-2.55L171.92,135a11.14,11.14,0,0,1-9,12.4,11.4,11.4,0,0,1-1.3.11l-3.11,36.9a11.43,11.43,0,0,1,2.18.88Z" transform="translate(-7.19 -3.6)"/><path class="cls-10" d="M312.25,188.33V45.53h60.64a53.31,53.31,0,0,1,25.94,6.3A46.34,46.34,0,0,1,416.88,69.4a49.56,49.56,0,0,1,6.49,25.19A52.47,52.47,0,0,1,417,120.66,45.26,45.26,0,0,1,399,138.41a52.81,52.81,0,0,1-25.74,6.25h-30v43.65H312.25Zm59.83-72a18.89,18.89,0,0,0,10.2-2.83,20.19,20.19,0,0,0,7.33-7.78,23,23,0,0,0,2.7-11.14,19.91,19.91,0,0,0-2.72-10.17,21.58,21.58,0,0,0-7.47-7.69,19,19,0,0,0-10.24-2.87H343.3v42.48Z" transform="translate(-7.19 -3.6)"/><path class="cls-11" d="M372.89,48.53a50.12,50.12,0,0,1,24.49,5.93,43.12,43.12,0,0,1,16.9,16.45,46.37,46.37,0,0,1,6.08,23.69,49.16,49.16,0,0,1-6,24.59,42.32,42.32,0,0,1-16.75,16.6,49.64,49.64,0,0,1-24.29,5.88h-33v43.65H315.25V48.53h57.64M340.3,119.34h31.79a22.1,22.1,0,0,0,11.77-3.27,23.43,23.43,0,0,0,8.4-8.9,25.9,25.9,0,0,0,3.07-12.57,23,23,0,0,0-3.12-11.67,24.4,24.4,0,0,0-8.5-8.75,22.12,22.12,0,0,0-11.82-3.32H340.3v48.48m32.59-76.81H309.25v148.8H346.3V147.68h27a55.82,55.82,0,0,0,27.18-6.62,48.29,48.29,0,0,0,19.09-18.91,55.35,55.35,0,0,0,6.81-27.54,52.56,52.56,0,0,0-6.89-26.69,49.25,49.25,0,0,0-19.2-18.7,56.19,56.19,0,0,0-27.39-6.69ZM346.3,76.86h25.58a16,16,0,0,1,8.67,2.43A18.45,18.45,0,0,1,387,85.92a17,17,0,0,1,2.32,8.68,19.67,19.67,0,0,1-2.34,9.7,17.33,17.33,0,0,1-6.27,6.66,16.09,16.09,0,0,1-8.63,2.38H346.3V76.86Z" transform="translate(-7.19 -3.6)"/><path class="cls-10" d="M433.56,223.63V197.51h20.2a17,17,0,0,0,7.47-1.4,11.91,11.91,0,0,0,4.67-4.21,46,46,0,0,0,4.35-8.91l.83-2.41L430.21,78.93h32.14l25,64.19L511.84,79l32.45-.13-42,105.22c-4.17,10.53-8.4,18.66-12.56,24.18-4.34,5.75-9.39,9.8-15,12-5.46,2.18-12.45,3.28-20.78,3.28Z" transform="translate(-7.19 -3.6)"/><path class="cls-11" d="M539.86,81.93,499.53,183q-6.13,15.49-12.17,23.49t-13.73,11.07q-7.69,3.06-19.66,3.07h-17.4V200.53h17.2a19.88,19.88,0,0,0,8.8-1.71,14.91,14.91,0,0,0,5.83-5.23,48.93,48.93,0,0,0,4.68-9.56l1.21-3.52L434.66,81.94h25.65l24.34,62.56,2.62,10.66L490,144.6,513.93,82l25.93-.11m8.87-6-8.89,0-26,.1-4.11,0-1.47,3.84-21,54.9-21.41-55-1.49-3.82H425.77l3.31,8.24,38.8,96.5-.45,1.3a42.45,42.45,0,0,1-4,8.26,9,9,0,0,1-3.5,3.19,14.29,14.29,0,0,1-6.15,1.09h-23.2v32.12H454c8.7,0,16.07-1.18,21.88-3.49,6.14-2.45,11.63-6.83,16.3-13,4.39-5.82,8.63-14,13-24.89L545.43,84.15l3.3-8.26Z" transform="translate(-7.19 -3.6)"/><path class="cls-12" d="M619.63,191.24a74.07,74.07,0,0,1-37.67-10,75.3,75.3,0,0,1-27.33-27.07,74.32,74.32,0,0,1,0-74.88,75.42,75.42,0,0,1,65.4-37,79.31,79.31,0,0,1,30.1,6,71,71,0,0,1,25.46,17.54,56.65,56.65,0,0,1,14.06,27.22l.76,3.62h-31.1l-.79-1.79A37.87,37.87,0,0,0,643.36,77.5a45.4,45.4,0,0,0-23.94-6.25A44.43,44.43,0,0,0,597.26,77,41.74,41.74,0,0,0,581.34,93a47.78,47.78,0,0,0-5.9,23.82c0,9.08,2,17.14,5.89,24a41.34,41.34,0,0,0,15.86,15.82,44.94,44.94,0,0,0,22.22,5.6,47.64,47.64,0,0,0,19.78-3.85,35.22,35.22,0,0,0,13.55-10.56,37,37,0,0,0,6.11-12.17H615.41V108.7H692.8l0,3c.14,15.42-2.69,29.26-8.39,41.16a65.78,65.78,0,0,1-25.38,28.27C648,187.83,634.74,191.24,619.63,191.24Z" transform="translate(-7.19 -3.6)"/><path class="cls-11" d="M620,45.31a76.2,76.2,0,0,1,29,5.78,67.73,67.73,0,0,1,24.39,16.8,53.55,53.55,0,0,1,13.33,25.8H661.27a40.5,40.5,0,0,0-16.35-18.76q-11-6.69-25.5-6.69a47.2,47.2,0,0,0-23.64,6.09,44.46,44.46,0,0,0-17,17.2,50.49,50.49,0,0,0-6.29,25.3q0,14.49,6.29,25.45a44.15,44.15,0,0,0,17,16.95,47.74,47.74,0,0,0,23.69,6,50.22,50.22,0,0,0,21-4.12,37.94,37.94,0,0,0,14.69-11.47,40.35,40.35,0,0,0,7.54-17H618.41V111.7h71.42q.2,22.53-8.1,39.83a62.53,62.53,0,0,1-24.24,27q-15.94,9.71-37.87,9.71a70.68,70.68,0,0,1-36.16-9.61,72,72,0,0,1-26.25-26,71.26,71.26,0,0,1,0-71.82A72.44,72.44,0,0,1,620,45.31m0-6a78.42,78.42,0,0,0-68,38.45,77.31,77.31,0,0,0,0,77.94,78.32,78.32,0,0,0,28.4,28.13,77,77,0,0,0,39.17,10.42c15.67,0,29.46-3.56,41-10.58a68.72,68.72,0,0,0,26.53-29.54c5.91-12.31,8.83-26.6,8.69-42.48l-.05-6H612.41v32.92h42.2a32.9,32.9,0,0,1-4.25,7.35A31.86,31.86,0,0,1,638,155.63a44.53,44.53,0,0,1-18.54,3.58A42.08,42.08,0,0,1,598.65,154a37.88,37.88,0,0,1-14.72-14.7c-3.64-6.35-5.49-13.91-5.49-22.46A44.74,44.74,0,0,1,584,94.49a38.23,38.23,0,0,1,14.78-14.93,40.94,40.94,0,0,1,20.68-5.31,42.43,42.43,0,0,1,22.38,5.82,34.3,34.3,0,0,1,14,16.06l1.58,3.58H694.1l-1.53-7.24a59.65,59.65,0,0,0-14.8-28.64,74.17,74.17,0,0,0-26.53-18.28A82.07,82.07,0,0,0,620,39.31Z" transform="translate(-7.19 -3.6)"/></svg>
