<?xml version="1.0" encoding="utf-8"?>
<!-- Generator: Adobe Illustrator 24.3.0, SVG Export Plug-In . SVG Version: 6.00 Build 0)  -->
<svg version="1.1" id="Layer_1" xmlns="http://www.w3.org/2000/svg" xmlns:xlink="http://www.w3.org/1999/xlink" x="0px" y="0px"
	 viewBox="0 0 698.5 237.79" style="enable-background:new 0 0 698.5 237.79;" xml:space="preserve">
<style type="text/css">
	.st0{fill:#42A5F5;}
	.st1{fill:#1E88E5;}
	.st2{fill:#1565C0;}
	.st3{fill:#6D44C6;}
	.st4{fill:#F57C00;}
	.st5{fill:#512DA8;}
	.st6{fill:#FF9800;}
	.st7{fill:#FFC107;}
	.st8{fill:#815FE0;}
	.st9{fill:#232332;}
	.st10{fill:#FFFFFF;}
	.st11{fill:#3C2179;}
</style>
<g>
	<g>
		<path class="st0" d="M156.96,76.77c-0.1-0.51-0.11-1.02-0.13-1.53l-23.86-3.49c-0.74,4.05-3.7,7.43-7.79,8.65l2.77,25.3
			c1.86,0.16,3.63,0.75,5.15,1.75l25.67-26.4C157.9,79.8,157.26,78.36,156.96,76.77z"/>
		<path class="st1" d="M123.69,106.18l-2.77-25.36c-2.15-0.21-4.14-1.03-5.79-2.32l-27.19,30.53c1.59,1.47,2.75,3.39,3.27,5.63
			l24.85,0C116.83,110.71,119.71,107.42,123.69,106.18z"/>
		<path class="st2" d="M47.25,114.57l20.98,53.7c4.6-0.56,8.92,1.76,11.08,5.65l26.46-8.76c-0.36-2.99,0.49-5.87,2.22-8.11
			l-23.81-29.39c-0.56,0.21-1.14,0.4-1.75,0.51c-6.06,1.14-11.9-2.85-13.05-8.91c-0.19-1.02-0.19-2.03-0.11-3.01l-18.25-5.76
			C50.13,112.13,48.86,113.55,47.25,114.57z"/>
		<path class="st3" d="M145.15,191.03c1.37-3.43,4.39-6.12,8.29-6.86c0.3-0.06,0.59-0.04,0.88-0.08l3.09-37.07
			c-2.06-0.68-3.87-1.93-5.22-3.63l-25.08,16.13c0.29,0.71,0.53,1.45,0.67,2.23c1.14,6.06-2.85,11.9-8.91,13.05
			c-4.85,0.91-9.51-1.49-11.79-5.57l-26.47,8.76c0.04,0.33,0.07,0.66,0.08,0.98L145.15,191.03z"/>
		<path class="st1" d="M93.59,51.34c-2.18,0.41-4.32,0.14-6.23-0.63L49.74,97.95c1.22,1.43,2.13,3.15,2.5,5.13
			c0.21,1.13,0.19,2.23,0.07,3.31l18.14,5.73c1.52-2.97,4.31-5.25,7.84-5.91c2.06-0.39,4.09-0.14,5.93,0.54l28.09-31.54
			c-0.58-1.04-1.05-2.15-1.29-3.39c-0.63-3.33,0.33-6.57,2.3-9.02L98.89,48.71C97.43,50,95.65,50.96,93.59,51.34z"/>
		<path class="st1" d="M168.74,85.79l-4.87,39.95c2.81,0.79,5.22,2.65,6.68,5.21l32.54-7.58c-0.09-2.49,0.63-4.87,2-6.81
			l-31.12-32.47c-1.17,0.76-2.5,1.31-3.96,1.59C169.58,85.76,169.16,85.76,168.74,85.79z"/>
		<path class="st4" d="M176.28,40.75l-73.76,1.3c-0.17,1.14-0.51,2.23-1.01,3.24l15.11,14.74c1.02-0.56,2.11-1.02,3.32-1.25
			c5.97-1.12,11.7,2.73,12.97,8.64L157.45,71c1.28-3.63,4.37-6.51,8.42-7.28c1.83-0.34,3.62-0.17,5.29,0.33l9.02-17
			C178.26,45.5,176.84,43.34,176.28,40.75z"/>
		<path class="st2" d="M135.49,123.97c-1.6,1.89-3.79,3.3-6.42,3.79c-0.81,0.15-1.61,0.2-2.4,0.18l-5.78,25.51
			c1.44,0.57,2.76,1.4,3.85,2.5l25.48-16.39c-0.1-0.35-0.24-0.68-0.31-1.04c-0.41-2.15-0.14-4.27,0.62-6.17L135.49,123.97z"/>
		<path class="st1" d="M159.6,125.41l4.89-40.14c-0.93-0.31-1.83-0.7-2.65-1.24l-25.67,26.4c0.87,1.25,1.51,2.69,1.81,4.29
			c0.36,1.91,0.16,3.79-0.4,5.51l15.26,8.51c1.56-1.63,3.6-2.82,5.98-3.26C159.08,125.43,159.34,125.44,159.6,125.41z"/>
		<path class="st2" d="M111.21,154.21c1.07-0.62,2.24-1.12,3.53-1.36c0.65-0.12,1.29-0.16,1.93-0.17l5.82-25.68
			c-3.23-1.43-5.73-4.36-6.45-8.09l-24.68-0.04c-0.39,2.54-1.62,4.84-3.49,6.55L111.21,154.21z"/>
		<path class="st5" d="M150.43,205.04c-2.96-1.52-5.24-4.3-5.9-7.83c-0.13-0.66-0.16-1.32-0.17-1.98L80.01,183.2
			c-1.33,3.54-4.38,6.33-8.36,7.08c-1.18,0.22-2.33,0.2-3.46,0.05l-10.36,26.81l84.05,17.6L150.43,205.04z"/>
		<path class="st5" d="M64.12,188.98c-2.77-1.56-4.88-4.25-5.51-7.62c-0.91-4.84,1.47-9.49,5.55-11.77l-20.89-53.46
			c-2.91,0.53-5.76-0.14-8.07-1.63L7.57,143.05l46.7,71.44L64.12,188.98z"/>
		<path class="st5" d="M166.64,195.69c-0.24,5.04-3.88,9.46-9.06,10.44c-1.04,0.2-2.06,0.19-3.06,0.1l-7.79,27.17l68.49-44.77
			L166.64,195.69z"/>
		<path class="st6" d="M195.73,31.31c1.18,1.41,2.06,3.1,2.42,5.04c0.92,4.87-1.5,9.54-5.62,11.81l20.39,63.77
			c5.77-0.67,11.17,3.18,12.26,8.98c0.14,0.75,0.2,1.49,0.19,2.23l14.37,3.01L215.9,6.57L195.73,31.31z"/>
		<path class="st3" d="M224.49,127.33c-1.41,3.33-4.4,5.91-8.21,6.63c-2.6,0.49-5.13-0.01-7.29-1.16l-44.94,55.23
			c0.84,1,1.5,2.14,1.95,3.42l54.3-7.9l19.16-53.09L224.49,127.33z"/>
		<path class="st4" d="M32.12,111.53c-0.88-1.26-1.53-2.7-1.83-4.31c-1.14-6.06,2.85-11.9,8.91-13.05c2.56-0.48,5.05-0.01,7.19,1.11
			l37.36-46.91c-1.11-1.08-2.01-2.38-2.6-3.87L24.37,55.2L7.19,137.28L32.12,111.53z"/>
		<path class="st4" d="M208.85,113.24l-20.39-63.77c-1.57,0.18-3.1,0.03-4.54-0.41l-9,17c1.99,1.61,3.47,3.87,3.98,6.58
			c0.58,3.09-0.18,6.11-1.86,8.49l31.12,32.47C208.39,113.46,208.63,113.36,208.85,113.24z"/>
		<path class="st7" d="M106.12,3.6l71.7,28.76c1.6-2.47,4.16-4.32,7.29-4.91c2.61-0.49,5.16,0.01,7.33,1.18l20.16-24.78L106.12,3.6z
			"/>
		<path class="st6" d="M80.36,40.29c0.03-5.24,3.75-9.89,9.09-10.9c5.88-1.11,11.51,2.63,12.89,8.38l73.87-1.3
			c0.01-0.05,0.01-0.09,0.02-0.14L98.15,5.02L29.53,49.87L80.36,40.29z"/>
		<path class="st8" d="M205.67,130.1c-0.64-0.77-1.2-1.61-1.62-2.55l-32.13,7.48c0.75,5.83-3.12,11.3-8.96,12.4
			c-0.44,0.08-0.86,0.08-1.3,0.11l-3.11,36.9c0.76,0.22,1.48,0.51,2.18,0.88L205.67,130.1z"/>
	</g>
</g>
<g>
	<g>
		<path class="st9" d="M312.25,188.33V45.53h60.64c9.59,0,18.31,2.12,25.94,6.3c7.66,4.21,13.73,10.12,18.05,17.57
			c4.31,7.44,6.49,15.92,6.49,25.19c0,9.73-2.16,18.5-6.42,26.07c-4.28,7.6-10.31,13.58-17.92,17.75
			c-7.56,4.15-16.21,6.25-25.74,6.25H343.3v43.65H312.25z M372.08,116.34c3.76,0,7.1-0.92,10.2-2.83c3.13-1.92,5.52-4.46,7.33-7.78
			c1.79-3.29,2.7-7.04,2.7-11.14c0-3.66-0.89-6.98-2.72-10.17c-1.82-3.17-4.33-5.75-7.47-7.69c-3.13-1.93-6.48-2.87-10.24-2.87
			H343.3v42.48H372.08z"/>
		<path class="st10" d="M372.89,48.53c9.12,0,17.28,1.98,24.49,5.93c7.21,3.96,12.84,9.44,16.9,16.45
			c4.06,7.01,6.08,14.9,6.08,23.69c0,9.25-2.01,17.45-6.04,24.59s-9.61,12.67-16.75,16.6c-7.14,3.92-15.24,5.88-24.29,5.88H340.3
			v43.65h-25.05V48.53H372.89 M340.3,119.34h31.79c4.29,0,8.21-1.09,11.77-3.27c3.55-2.18,6.35-5.15,8.4-8.9
			c2.04-3.75,3.07-7.95,3.07-12.57c0-4.16-1.04-8.05-3.12-11.67c-2.08-3.62-4.91-6.54-8.5-8.75c-3.59-2.21-7.53-3.32-11.82-3.32
			H340.3V119.34 M372.89,42.53h-57.64h-6v6v136.8v6h6h25.05h6v-6v-37.65h26.99c10.03,0,19.18-2.23,27.18-6.62
			c8.1-4.45,14.53-10.81,19.09-18.91c4.52-8.02,6.81-17.28,6.81-27.54c0-9.81-2.32-18.79-6.89-26.69
			c-4.6-7.94-11.06-14.23-19.2-18.7C392.2,44.78,382.98,42.53,372.89,42.53L372.89,42.53z M346.3,76.86h25.58
			c3.19,0,6.02,0.79,8.67,2.43c2.75,1.7,4.86,3.87,6.45,6.63c1.56,2.72,2.32,5.56,2.32,8.68c0,3.64-0.76,6.82-2.34,9.7
			c-1.55,2.84-3.6,5.02-6.27,6.66c-2.62,1.6-5.44,2.38-8.63,2.38H346.3V76.86L346.3,76.86z"/>
	</g>
	<g>
		<path class="st9" d="M433.56,223.63v-26.12h20.2c3.07,0,5.59-0.47,7.47-1.4c1.85-0.91,3.38-2.29,4.67-4.21
			c1.44-2.14,2.9-5.14,4.35-8.91l0.83-2.41L430.21,78.93h32.14l24.97,64.19l24.52-64.08l32.45-0.13l-41.98,105.22
			c-4.17,10.53-8.4,18.66-12.56,24.18c-4.34,5.75-9.39,9.8-15.01,12.04c-5.46,2.18-12.45,3.28-20.78,3.28H433.56z"/>
		<path class="st10" d="M539.86,81.93l-40.33,101.09c-4.09,10.33-8.15,18.16-12.17,23.49s-8.6,9.02-13.73,11.07
			c-5.13,2.04-11.68,3.07-19.66,3.07h-17.4v-20.12h17.2c3.55,0,6.49-0.57,8.8-1.71c2.31-1.14,4.26-2.88,5.83-5.23
			c1.58-2.35,3.13-5.53,4.68-9.56l1.21-3.52l-39.63-98.57h25.65l24.34,62.56l2.62,10.66l2.72-10.56l23.94-62.56L539.86,81.93
			 M548.73,75.89l-8.89,0.03l-25.95,0.1l-4.11,0.02l-1.47,3.84l-21.01,54.9l-21.41-55.03l-1.49-3.82h-4.1h-25.65h-8.88l3.31,8.24
			l38.8,96.5l-0.45,1.3c-1.36,3.54-2.71,6.32-4.02,8.26c-0.99,1.47-2.14,2.52-3.5,3.19c-1.47,0.72-3.54,1.09-6.15,1.09h-17.2h-6v6
			v20.12v6h6h17.4c8.7,0,16.07-1.18,21.88-3.49c6.14-2.45,11.63-6.83,16.3-13.03c4.39-5.82,8.63-13.96,12.96-24.89l40.33-101.07
			L548.73,75.89L548.73,75.89z"/>
	</g>
	<g>
		<path class="st11" d="M619.63,191.24c-13.55,0-26.23-3.37-37.67-10.01c-11.43-6.63-20.62-15.74-27.33-27.07
			c-6.72-11.34-10.12-23.91-10.12-37.34c0-13.56,3.41-26.19,10.12-37.54c6.71-11.33,15.94-20.42,27.44-27.02
			c11.51-6.6,24.28-9.95,37.96-9.95c10.2,0,20.33,2.02,30.1,6.01c9.82,4.01,18.39,9.91,25.46,17.54
			c7.15,7.71,11.88,16.87,14.06,27.22l0.76,3.62h-31.1l-0.79-1.79c-3.29-7.44-8.39-13.29-15.16-17.41
			c-6.83-4.15-14.89-6.25-23.94-6.25c-8.02,0-15.48,1.92-22.16,5.7c-6.66,3.77-12.02,9.17-15.92,16.07
			c-3.91,6.92-5.9,14.93-5.9,23.82c0,9.08,1.98,17.14,5.89,23.96c3.9,6.8,9.23,12.12,15.86,15.82c6.65,3.72,14.13,5.6,22.22,5.6
			c7.51,0,14.17-1.3,19.78-3.85c5.55-2.53,10.11-6.08,13.55-10.56c2.74-3.58,4.79-7.66,6.11-12.17h-43.44V108.7h77.39l0.03,2.97
			c0.14,15.42-2.69,29.26-8.39,41.16c-5.76,12.01-14.3,21.52-25.38,28.27C648,187.83,634.74,191.24,619.63,191.24z"/>
		<path class="st10" d="M620.03,45.31c9.86,0,19.51,1.93,28.97,5.78c9.46,3.86,17.58,9.46,24.39,16.8
			c6.8,7.34,11.25,15.94,13.33,25.8h-25.45c-3.55-8.05-9-14.3-16.35-18.76c-7.34-4.46-15.84-6.69-25.5-6.69
			c-8.58,0-16.46,2.03-23.64,6.09c-7.18,4.06-12.86,9.79-17.05,17.2c-4.19,7.41-6.29,15.84-6.29,25.3c0,9.66,2.09,18.14,6.29,25.45
			c4.19,7.31,9.86,12.96,17,16.95c7.14,3.99,15.04,5.98,23.69,5.98c7.98,0,14.99-1.37,21.02-4.12c6.04-2.75,10.93-6.57,14.69-11.47
			c3.75-4.89,6.27-10.56,7.54-17h-44.26V111.7h71.42c0.13,15.02-2.56,28.3-8.1,39.83c-5.53,11.53-13.61,20.54-24.24,27.01
			c-10.63,6.47-23.25,9.71-37.87,9.71c-13.08,0-25.13-3.2-36.16-9.61c-11.03-6.4-19.78-15.07-26.25-26
			c-6.47-10.93-9.71-22.87-9.71-35.81c0-13.08,3.23-25.08,9.71-36.01c6.47-10.93,15.25-19.58,26.35-25.95
			C594.67,48.5,606.82,45.31,620.03,45.31 M620.03,39.31c-14.21,0-27.48,3.48-39.45,10.35c-11.96,6.86-21.55,16.32-28.53,28.1
			c-7,11.82-10.54,24.96-10.54,39.07c0,13.97,3.55,27.05,10.54,38.87c6.97,11.77,16.53,21.24,28.4,28.13
			c11.9,6.91,25.08,10.42,39.17,10.42c15.67,0,29.46-3.56,40.99-10.58c11.59-7.06,20.51-16.99,26.53-29.54
			c5.91-12.31,8.83-26.6,8.69-42.48l-0.05-5.95h-5.95h-71.42h-6v6v20.92v6h6h36.2c-1.11,2.65-2.53,5.11-4.25,7.35
			c-3.18,4.14-7.24,7.3-12.41,9.66c-5.22,2.38-11.45,3.58-18.54,3.58c-7.57,0-14.56-1.76-20.76-5.22
			c-6.23-3.48-11.05-8.29-14.72-14.7c-3.64-6.35-5.49-13.91-5.49-22.46c0-8.36,1.85-15.88,5.51-22.34
			c3.68-6.5,8.51-11.39,14.78-14.93c6.32-3.57,13.08-5.31,20.68-5.31c8.5,0,16.03,1.96,22.38,5.82c6.33,3.84,10.9,9.09,13.97,16.06
			l1.58,3.58h3.91h25.45h7.4l-1.53-7.24c-2.3-10.89-7.27-20.52-14.8-28.64c-7.38-7.95-16.3-14.1-26.53-18.28
			C641.13,41.41,630.62,39.31,620.03,39.31L620.03,39.31z"/>
	</g>
</g>
</svg>
