<?xml version="1.0" encoding="utf-8"?>
<!-- Generator: Adobe Illustrator 24.3.0, SVG Export Plug-In . SVG Version: 6.00 Build 0)  -->
<svg version="1.1" id="Layer_1" xmlns="http://www.w3.org/2000/svg" xmlns:xlink="http://www.w3.org/1999/xlink" x="0px" y="0px"
	 viewBox="0 0 249 237.79" style="enable-background:new 0 0 249 237.79;" xml:space="preserve">
<style type="text/css">
	.st0{fill:#42A5F5;}
	.st1{fill:#1E88E5;}
	.st2{fill:#1565C0;}
	.st3{fill:#6D44C6;}
	.st4{fill:#F57C00;}
	.st5{fill:#512DA8;}
	.st6{fill:#FF9800;}
	.st7{fill:#FFC107;}
	.st8{fill:#815FE0;}
</style>
<g>
	<g>
		<path class="st0" d="M156.96,76.77c-0.1-0.51-0.11-1.02-0.13-1.53l-23.86-3.49c-0.74,4.05-3.7,7.43-7.79,8.65l2.77,25.3
			c1.86,0.16,3.63,0.75,5.15,1.75l25.67-26.4C157.9,79.8,157.26,78.36,156.96,76.77z"/>
		<path class="st1" d="M123.69,106.18l-2.77-25.36c-2.15-0.21-4.14-1.03-5.79-2.32l-27.19,30.53c1.59,1.47,2.75,3.39,3.27,5.63
			h24.85C116.83,110.71,119.71,107.42,123.69,106.18z"/>
		<path class="st2" d="M47.25,114.57l20.98,53.7c4.6-0.56,8.92,1.76,11.08,5.65l26.46-8.76c-0.36-2.99,0.49-5.87,2.22-8.11
			l-23.81-29.39c-0.56,0.21-1.14,0.4-1.75,0.51c-6.06,1.14-11.9-2.85-13.05-8.91c-0.19-1.02-0.19-2.03-0.11-3.01l-18.25-5.76
			C50.13,112.13,48.86,113.55,47.25,114.57z"/>
		<path class="st3" d="M145.15,191.03c1.37-3.43,4.39-6.12,8.29-6.86c0.3-0.06,0.59-0.04,0.88-0.08l3.09-37.07
			c-2.06-0.68-3.87-1.93-5.22-3.63l-25.08,16.13c0.29,0.71,0.53,1.45,0.67,2.23c1.14,6.06-2.85,11.9-8.91,13.05
			c-4.85,0.91-9.51-1.49-11.79-5.57l-26.47,8.76c0.04,0.33,0.07,0.66,0.08,0.98L145.15,191.03z"/>
		<path class="st1" d="M93.59,51.34c-2.18,0.41-4.32,0.14-6.23-0.63L49.74,97.95c1.22,1.43,2.13,3.15,2.5,5.13
			c0.21,1.13,0.19,2.23,0.07,3.31l18.14,5.73c1.52-2.97,4.31-5.25,7.84-5.91c2.06-0.39,4.09-0.14,5.93,0.54l28.09-31.54
			c-0.58-1.04-1.05-2.15-1.29-3.39c-0.63-3.33,0.33-6.57,2.3-9.02L98.89,48.71C97.43,50,95.65,50.96,93.59,51.34z"/>
		<path class="st1" d="M168.74,85.79l-4.87,39.95c2.81,0.79,5.22,2.65,6.68,5.21l32.54-7.58c-0.09-2.49,0.63-4.87,2-6.81
			l-31.12-32.47c-1.17,0.76-2.5,1.31-3.96,1.59C169.58,85.76,169.16,85.76,168.74,85.79z"/>
		<path class="st4" d="M176.28,40.75l-73.76,1.3c-0.17,1.14-0.51,2.23-1.01,3.24l15.11,14.74c1.02-0.56,2.11-1.02,3.32-1.25
			c5.97-1.12,11.7,2.73,12.97,8.64L157.45,71c1.28-3.63,4.37-6.51,8.42-7.28c1.83-0.34,3.62-0.17,5.29,0.33l9.02-17
			C178.26,45.5,176.84,43.34,176.28,40.75z"/>
		<path class="st2" d="M135.49,123.97c-1.6,1.89-3.79,3.3-6.42,3.79c-0.81,0.15-1.61,0.2-2.4,0.18l-5.78,25.51
			c1.44,0.57,2.76,1.4,3.85,2.5l25.48-16.39c-0.1-0.35-0.24-0.68-0.31-1.04c-0.41-2.15-0.14-4.27,0.62-6.17L135.49,123.97z"/>
		<path class="st1" d="M159.6,125.41l4.89-40.14c-0.93-0.31-1.83-0.7-2.65-1.24l-25.67,26.4c0.87,1.25,1.51,2.69,1.81,4.29
			c0.36,1.91,0.16,3.79-0.4,5.51l15.26,8.51c1.56-1.63,3.6-2.82,5.98-3.26C159.08,125.43,159.34,125.44,159.6,125.41z"/>
		<path class="st2" d="M111.21,154.21c1.07-0.62,2.24-1.12,3.53-1.36c0.65-0.12,1.29-0.16,1.93-0.17l5.82-25.68
			c-3.23-1.43-5.73-4.36-6.45-8.09l-24.68-0.04c-0.39,2.54-1.62,4.84-3.49,6.55L111.21,154.21z"/>
		<path class="st5" d="M150.43,205.04c-2.96-1.52-5.24-4.3-5.9-7.83c-0.13-0.66-0.16-1.32-0.17-1.98L80.01,183.2
			c-1.33,3.54-4.38,6.33-8.36,7.08c-1.18,0.22-2.33,0.2-3.46,0.05l-10.36,26.81l84.05,17.6L150.43,205.04z"/>
		<path class="st5" d="M64.12,188.98c-2.77-1.56-4.88-4.25-5.51-7.62c-0.91-4.84,1.47-9.49,5.55-11.77l-20.89-53.46
			c-2.91,0.53-5.76-0.14-8.07-1.63L7.57,143.05l46.7,71.44L64.12,188.98z"/>
		<path class="st5" d="M166.64,195.69c-0.24,5.04-3.88,9.46-9.06,10.44c-1.04,0.2-2.06,0.19-3.06,0.1l-7.79,27.17l68.49-44.77
			L166.64,195.69z"/>
		<path class="st6" d="M195.73,31.31c1.18,1.41,2.06,3.1,2.42,5.04c0.92,4.87-1.5,9.54-5.62,11.81l20.39,63.77
			c5.77-0.67,11.17,3.18,12.26,8.98c0.14,0.75,0.2,1.49,0.19,2.23l14.37,3.01L215.9,6.57L195.73,31.31z"/>
		<path class="st3" d="M224.49,127.33c-1.41,3.33-4.4,5.91-8.21,6.63c-2.6,0.49-5.13-0.01-7.29-1.16l-44.94,55.23
			c0.84,1,1.5,2.14,1.95,3.42l54.3-7.9l19.16-53.09L224.49,127.33z"/>
		<path class="st4" d="M32.12,111.53c-0.88-1.26-1.53-2.7-1.83-4.31c-1.14-6.06,2.85-11.9,8.91-13.05c2.56-0.48,5.05-0.01,7.19,1.11
			l37.36-46.91c-1.11-1.08-2.01-2.38-2.6-3.87L24.37,55.2L7.19,137.28L32.12,111.53z"/>
		<path class="st4" d="M208.85,113.24l-20.39-63.77c-1.57,0.18-3.1,0.03-4.54-0.41l-9,17c1.99,1.61,3.47,3.87,3.98,6.58
			c0.58,3.09-0.18,6.11-1.86,8.49l31.12,32.47C208.39,113.46,208.63,113.36,208.85,113.24z"/>
		<path class="st7" d="M106.12,3.6l71.7,28.76c1.6-2.47,4.16-4.32,7.29-4.91c2.61-0.49,5.16,0.01,7.33,1.18L212.6,3.85L106.12,3.6z"
			/>
		<path class="st6" d="M80.36,40.29c0.03-5.24,3.75-9.89,9.09-10.9c5.88-1.11,11.51,2.63,12.89,8.38l73.87-1.3
			c0.01-0.05,0.01-0.09,0.02-0.14L98.15,5.02L29.53,49.87L80.36,40.29z"/>
		<path class="st8" d="M205.67,130.1c-0.64-0.77-1.2-1.61-1.62-2.55l-32.13,7.48c0.75,5.83-3.12,11.3-8.96,12.4
			c-0.44,0.08-0.86,0.08-1.3,0.11l-3.11,36.9c0.76,0.22,1.48,0.51,2.18,0.88L205.67,130.1z"/>
	</g>
</g>
</svg>
