<?xml version="1.0" standalone="no"?><!-- Generator: Gravit.io --><svg xmlns="http://www.w3.org/2000/svg" xmlns:xlink="http://www.w3.org/1999/xlink" style="isolation:isolate" viewBox="0 0 203 219" width="203" height="219"><defs><clipPath id="_clipPath_5whuutb0iqX0aqXRgqjUDsYleFglFfil"><rect width="203" height="219"/></clipPath></defs><g clip-path="url(#_clipPath_5whuutb0iqX0aqXRgqjUDsYleFglFfil)"><g><path d=" M 69.82 2.58 L 18.34 65.94 L 129.22 30.3 L 69.82 2.58 Z " fill="rgb(192,61,36)" stroke-width="2.3" stroke="rgb(89,28,16)" stroke-linejoin="round" stroke-linecap="round" stroke-miterlimit="3"/><path d=" M 18.34 65.94 L 97.54 137.22 L 129.22 30.3 L 18.34 65.94 Z " fill="rgb(230,73,42)" stroke-width="2.3" stroke="rgb(89,28,16)" stroke-linejoin="round" stroke-linecap="round" stroke-miterlimit="3"/><path d=" M 200.5 121.38 L 133.18 216.42 L 97.54 137.22 L 200.5 121.38 Z " fill="rgb(204,65,38)" stroke-width="2.3" stroke="rgb(89,28,16)" stroke-linejoin="round" stroke-linecap="round" stroke-miterlimit="3"/><path d=" M 18.34 65.94 L 2.5 97.62 L 18.34 180.78 L 18.34 65.94 Z " fill="rgb(144,46,27)" stroke-width="2.3" stroke="rgb(89,28,16)" stroke-linejoin="round" stroke-linecap="round" stroke-miterlimit="3"/><path d=" M 18.34 65.94 L 97.54 137.22 L 18.34 180.78 L 18.34 65.94 Z " fill="rgb(197,63,36)" stroke-width="2.3" stroke="rgb(89,28,16)" stroke-linejoin="round" stroke-linecap="round" stroke-miterlimit="3"/><path d=" M 18.34 180.78 L 133.18 216.42 L 97.54 137.22 L 18.34 180.78 Z " fill="rgb(181,58,33)" stroke-width="2.3" stroke="rgb(89,28,16)" stroke-linejoin="round" stroke-linecap="round" stroke-miterlimit="3"/><path d=" M 97.54 137.22 L 129.22 30.3 L 200.5 121.38 L 97.54 137.22 Z " fill="rgb(233,75,43)" stroke-width="2.3" stroke="rgb(89,28,16)" stroke-linejoin="round" stroke-linecap="round" stroke-miterlimit="3"/><path d=" M 200.5 121.38 L 184.66 157.02 L 133.18 216.42 L 200.5 121.38 Z " fill="rgb(147,47,27)" stroke-width="2.3" stroke="rgb(89,28,16)" stroke-linejoin="round" stroke-linecap="round" stroke-miterlimit="3"/><path d=" M 129.22 30.3 L 200.5 121.38 L 184.66 38.22 L 129.22 30.3 Z " fill="rgb(199,63,37)" stroke-width="2.3" stroke="rgb(89,28,16)" stroke-linejoin="round" stroke-linecap="round" stroke-miterlimit="3"/><path d=" M 69.82 2.58 L 129.22 30.3 L 184.66 38.22 L 69.82 2.58 Z " fill="rgb(174,55,32)" stroke-width="2.3" stroke="rgb(89,28,16)" stroke-linejoin="round" stroke-linecap="round" stroke-miterlimit="3"/></g></g></svg>
